<svg xmlns="http://www.w3.org/2000/svg" xmlns:xlink="http://www.w3.org/1999/xlink" width="15" height="12" viewBox="0 0 15 12">
    <path d="M1111.68 52.22c-.56.35-1.19.6-1.83.74a2.81 2.81 0 0 0-2.11-.96 2.96 2.96 0 0 0-2.88 3.02c0 .24.02.47.07.69a8.06 8.06 0 0 1-5.95-3.16c-.25.47-.39.99-.39 1.52-.01 1 .47 1.94 1.28 2.52a2.7 2.7 0 0 1-1.3-.38v.04a3 3 0 0 0 2.31 2.97c-.25.06-.5.1-.76.1-.18 0-.36-.02-.54-.06a2.9 2.9 0 0 0 2.69 2.1c-1 .84-2.27 1.3-3.58 1.3l-.69-.04a8.02 8.02 0 0 0 4.42 1.36c5.31 0 8.21-4.61 8.21-8.6l-.01-.4a5.98 5.98 0 0 0 1.45-1.56c-.53.24-1.09.4-1.66.48a3.05 3.05 0 0 0 1.27-1.68z" transform="translate(-1097 -52)"/>
</svg>