<svg xmlns="http://www.w3.org/2000/svg" xmlns:xlink="http://www.w3.org/1999/xlink" width="15" height="16" viewBox="0 0 15 16">
    <path d="M1134.76 54.95v6.41a3.88 3.88 0 0 1-3.8 3.95h-6.16a3.88 3.88 0 0 1-3.8-3.95v-6.41a3.89 3.89 0 0 1 3.8-3.95h6.16a3.89 3.89 0 0 1 3.8 3.95zm-1.22 6.41v-6.41a2.64 2.64 0 0 0-2.58-2.68h-6.16a2.63 2.63 0 0 0-2.58 2.68v6.41a2.63 2.63 0 0 0 2.58 2.68h6.16a2.64 2.64 0 0 0 2.58-2.68zm-5.66-6.89c2 .05 3.58 1.7 3.54 3.69a3.7 3.7 0 1 1-3.54-3.69zm0 6.11a2.38 2.38 0 0 0 2.32-2.42 2.42 2.42 0 1 0-2.32 2.42zm4.32-6.92c.36.37.36.95 0 1.32a.84.84 0 0 1-.63.28.84.84 0 0 1-.63-.28.96.96 0 0 1 0-1.32.93.93 0 0 1 .63-.27c.24.01.47.1.63.27z" transform="translate(-1120 -50)"/>
</svg>