<svg xmlns="http://www.w3.org/2000/svg" xmlns:xlink="http://www.w3.org/1999/xlink" width="85" height="65" viewBox="0 0 85 65">
    <path fill="#7b00ff" transform="translate(-848 -1478)" d="M867.4 1543c-7.23 0-12.27-1.72-15.12-5.16-2.85-3.44-4.28-9.97-4.28-19.6 0-12.38 2.78-22.05 8.35-28.99 5.56-6.95 14.11-10.7 25.66-11.25l1.04 15.06c-4.73.28-8.31 1.55-10.75 3.82-2.43 2.27-3.99 5.74-4.69 10.42.42-.14.84-.2 1.25-.2h1.25c5.98 0 10.19 1.06 12.63 3.19 2.43 2.14 3.65 6.92 3.65 14.34 0 7.16-1.43 12.01-4.28 14.55-2.85 2.55-7.75 3.82-14.71 3.82zm46.62 0c-7.24 0-12.28-1.72-15.13-5.16-2.85-3.44-4.28-9.97-4.28-19.6 0-12.38 2.78-22.05 8.35-28.99 5.56-6.95 14.11-10.7 25.66-11.25l1.04 15.06c-4.73.28-8.31 1.55-10.74 3.82-2.44 2.27-4 5.74-4.7 10.42.42-.14.84-.2 1.26-.2h1.25c5.98 0 10.19 1.06 12.62 3.19 2.43 2.14 3.65 6.92 3.65 14.34 0 7.16-1.43 12.01-4.28 14.55-2.85 2.55-7.75 3.82-14.7 3.82z"/>
</svg>