<?xml version="1.0" encoding="utf-8"?>
<!-- Generator: Adobe Illustrator 19.2.1, SVG Export Plug-In . SVG Version: 6.00 Build 0)  -->
<svg version="1.1" id="Layer_1" xmlns="http://www.w3.org/2000/svg" xmlns:xlink="http://www.w3.org/1999/xlink" x="0px" y="0px"
	 viewBox="0 0 17 16" style="enable-background:new 0 0 17 16;" xml:space="preserve">
<style type="text/css">
	.st0{enable-background:new    ;}
</style>
<path id="Linkedin_Logo" class="st0" d="M17,9.8V16h-3.6v-5.8c0-1.5-0.5-2.3-1.8-2.3c-0.8,0-1.5,0.4-1.7,1.2C9.9,9.4,9.9,9.7,9.9,10
	v6H6.3c0,0,0.1-9.7,0-10.7h3.6v1.4c0,0,0,0,0,0h0v0c0.5-0.7,1-1.4,2.9-1.4C15.2,5.3,17,6.5,17,9.8z M2.1,0C1-0.1,0.1,0.7,0,1.7
	c-0.1,1,0.7,1.9,1.7,2c0.1,0,0.2,0,0.3,0h0c1,0.1,1.9-0.7,2-1.7S3.4,0.1,2.4,0C2.3,0,2.2,0,2.1,0z M0.2,16h3.6V5.3H0.2V16z"/>
</svg>
