<svg xmlns="http://www.w3.org/2000/svg" xmlns:xlink="http://www.w3.org/1999/xlink" width="86" height="65" viewBox="0 0 86 65"><defs><path id="puvea" d="M155.43 376c-7.24 0-12.29-1.72-15.15-5.16-2.85-3.44-4.28-9.97-4.28-19.6 0-12.38 2.79-22.05 8.36-28.99 5.57-6.95 14.14-10.7 25.7-11.25l1.05 15.06c-4.74.28-8.33 1.55-10.76 3.82-2.44 2.27-4.01 5.74-4.71 10.42.42-.14.84-.2 1.26-.2h1.25c5.99 0 10.21 1.06 12.64 3.19 2.44 2.14 3.66 6.92 3.66 14.34 0 7.16-1.43 12.01-4.28 14.55-2.86 2.55-7.77 3.82-14.74 3.82zm46.69 0c-7.24 0-12.29-1.72-15.15-5.16-2.85-3.44-4.28-9.97-4.28-19.6 0-12.38 2.79-22.05 8.36-28.99 5.57-6.95 14.14-10.7 25.7-11.25l1.05 15.06c-4.74.28-8.33 1.55-10.76 3.82-2.44 2.27-4.01 5.74-4.71 10.42.42-.14.84-.2 1.26-.2h1.25c5.99 0 10.21 1.06 12.64 3.19 2.44 2.14 3.66 6.92 3.66 14.34 0 7.16-1.43 12.01-4.28 14.55-2.86 2.55-7.77 3.82-14.74 3.82z"/></defs><g><g opacity=".2" transform="translate(-136 -311)"><use fill="#f7f7f7" xlink:href="#puvea"/></g></g></svg>