<?xml version="1.0" encoding="UTF-8"?>
<svg width="245px" height="55px" viewBox="0 0 245 55" version="1.1" xmlns="http://www.w3.org/2000/svg" xmlns:xlink="http://www.w3.org/1999/xlink">
    <!-- Generator: Sketch 48.2 (47327) - http://www.bohemiancoding.com/sketch -->
    <title>Logo</title>
    <desc>Created with Sketch.</desc>
    <defs>
        <polygon id="path-1" points="0 54.3863158 244.960133 54.3863158 244.960133 0 0 0"></polygon>
    </defs>
    <g id="UI" stroke="none" stroke-width="1" fill="none" fill-rule="evenodd" transform="translate(-518.000000, -93.000000)">
        <g id="Logo" transform="translate(518.000000, 93.000000)">
            <path d="M25.1539615,9.21177632 C25.4091095,9.82256579 25.1090207,10.5144079 24.5008698,10.7604605 C23.897068,11.0079605 23.1997604,10.7206579 22.9518609,10.1127632 C22.7075858,9.50269737 22.9902781,8.80940789 23.5955296,8.56263158 C24.2065799,8.31513158 24.9038876,8.60388158 25.1539615,9.21177632" id="Fill-1" fill="#7B00FF"></path>
            <path d="M25.1539615,44.3559803 C25.4091095,44.9667697 25.1090207,45.6586118 24.5008698,45.9046645 C23.897068,46.1521645 23.1997604,45.8648618 22.9518609,45.2569671 C22.7075858,44.6469013 22.9902781,43.9536118 23.5955296,43.7068355 C24.2065799,43.4593355 24.9038876,43.7480855 25.1539615,44.3559803" id="Fill-3" fill="#7B00FF"></path>
            <path d="M16.9512456,14.6694408 C17.4760385,15.0674671 17.566645,15.8208224 17.1687012,16.3375329 C16.7700325,16.8491776 16.0183609,16.9490461 15.5008166,16.5466776 C14.9810976,16.1406908 14.881068,15.4025329 15.2898846,14.8807566 C15.679855,14.3654934 16.4373254,14.2649013 16.9512456,14.6694408" id="Fill-5" fill="#7B00FF"></path>
            <path d="M12.587926,23.4868092 C13.2373935,23.5714803 13.6962249,24.1772039 13.6077929,24.8198355 C13.5157367,25.4675329 12.9199083,25.9270724 12.2668166,25.8380592 C11.6173491,25.7475987 11.162142,25.1527303 11.2534734,24.4999671 C11.3361065,23.8537171 11.9370089,23.3977961 12.587926,23.4868092" id="Fill-7" fill="#7B00FF"></path>
            <path d="M13.2193447,33.3021382 C13.8180725,33.0488487 14.5269778,33.3513487 14.7741524,33.9520066 C15.0169778,34.5533882 14.727037,35.2445066 14.1232352,35.4985197 C13.5063861,35.7438487 12.820676,35.4587171 12.5691524,34.8479276 C12.3227027,34.2472697 12.6104689,33.5496382 13.2193447,33.3021382" id="Fill-9" fill="#7B00FF"></path>
            <path d="M18.6876287,41.490625 C19.0761494,40.9659539 19.8394186,40.8725987 20.3526139,41.270625 C20.8679837,41.6751645 20.9622145,42.4183882 20.562821,42.9372697 C20.1532796,43.4597697 19.4153802,43.5574671 18.8927618,43.1522039 C18.3810163,42.7541776 18.2759127,42.0073355 18.6876287,41.490625" id="Fill-11" fill="#7B00FF"></path>
            <path d="M37.3469157,45.2115197 C37.1011908,44.6166513 37.4005547,43.9132303 37.9905843,43.6657303 C38.6030843,43.421125 39.2938683,43.709875 39.5446672,44.3141513 C39.790392,44.9263882 39.5134985,45.6167829 38.8966494,45.8679013 C38.2935725,46.1125066 37.5919157,45.8280987 37.3469157,45.2115197" id="Fill-13" fill="#7B00FF"></path>
            <path d="M37.3469157,10.0676053 C37.1011908,9.47273684 37.4005547,8.76931579 37.9905843,8.52253947 C38.6030843,8.27721053 39.2938683,8.56740789 39.5446672,9.17023684 C39.790392,9.78247368 39.5134985,10.4728684 38.8966494,10.7239868 C38.2935725,10.9685921 37.5919157,10.6841842 37.3469157,10.0676053" id="Fill-15" fill="#7B00FF"></path>
            <path d="M45.548182,39.7563158 C45.0270133,39.3640789 44.9327825,38.6063816 45.3256524,38.0969079 C45.7330192,37.5794737 46.4752678,37.4832237 46.9964364,37.88125 C47.517605,38.2894079 47.620534,39.0290132 47.2160666,39.5493421 C46.8202973,40.0595395 46.0664512,40.1680921 45.548182,39.7563158" id="Fill-17" fill="#7B00FF"></path>
            <path d="M49.9143284,30.9403224 C49.2706598,30.8578224 48.8082041,30.2470329 48.8879379,29.6116382 C48.990142,28.9603224 49.5743728,28.5094671 50.2281893,28.5941382 C50.8812811,28.6845987 51.3401124,29.2729539 51.2502308,29.9249934 C51.1697722,30.5690724 50.5695947,31.0344013 49.9143284,30.9403224" id="Fill-19" fill="#7B00FF"></path>
            <path d="M49.2807352,21.1214474 C48.6820074,21.3732895 47.9738269,21.0751316 47.7230281,20.4846053 C47.4758536,19.8730921 47.7665192,19.1863158 48.3739453,18.9366447 C48.9958683,18.6884211 49.6808536,18.9670395 49.9302027,19.5749342 C50.1766524,20.1755921 49.8939601,20.8797368 49.2807352,21.1214474" id="Fill-21" fill="#7B00FF"></path>
            <path d="M43.8104216,12.9415 C43.4276997,13.4545921 42.6550074,13.5501184 42.1454364,13.1672895 C41.6300666,12.7540658 41.5380104,12.0137368 41.9352293,11.4963026 C42.3404216,10.9723553 43.0790459,10.8739342 43.6023891,11.2705132 C44.1177589,11.6707105 44.2235873,12.4211711 43.8104216,12.9415" id="Fill-23" fill="#7B00FF"></path>
            <path d="M21.6549556,28.5285724 C22.2928254,28.3693618 22.9451923,28.7630461 23.108284,29.3998882 C23.2670266,30.0374539 22.8843047,30.685875 22.2399112,30.8501513 C21.5984172,31.0071908 20.9460503,30.6243618 20.7844083,29.984625 C20.6256657,29.3477829 21.0083876,28.6906776 21.6549556,28.5285724" id="Fill-25" fill="#7B00FF"></path>
            <path d="M40.9131154,25.8603487 C40.2752456,26.0202829 39.6199793,25.6229803 39.4590621,24.9912039 C39.2988698,24.3514671 39.6830414,23.6994276 40.3259852,23.5387697 C40.9696538,23.3817303 41.6220207,23.7652829 41.7800385,24.4042961 C41.9402308,25.0425855 41.5589586,25.6960724 40.9131154,25.8603487" id="Fill-27" fill="#7B00FF"></path>
            <path d="M25.2417411,14.0732697 C25.6193891,14.7383355 25.379463,15.596625 24.7075251,15.9736645 C24.0355873,16.3507039 23.1817115,16.1155066 22.8004393,15.4460987 C22.4242411,14.7752434 22.659818,13.9220197 23.3295814,13.5406382 C24.0007944,13.1650461 24.8590192,13.3951776 25.2417411,14.0732697" id="Fill-29" fill="#7B00FF"></path>
            <path d="M19.4782973,18.8464737 C20.1408121,19.2343684 20.3597175,20.0977237 19.9661228,20.7627895 C19.573253,21.4220658 18.7208269,21.6442368 18.0525133,21.2527237 C17.3921731,20.8597632 17.1689186,20.0065395 17.5588891,19.3414737 C17.9503092,18.6793026 18.8114334,18.4520658 19.4782973,18.8464737" id="Fill-31" fill="#7B00FF"></path>
            <path d="M16.8804275,25.8578882 C17.647321,25.8636776 18.2699689,26.5026908 18.2590962,27.2690724 C18.2576464,28.0383487 17.6241257,28.6592697 16.8514334,28.6549276 C16.0852648,28.6433487 15.4611672,28.0180855 15.4647914,27.2466382 C15.4713151,26.4788092 16.1019364,25.8484803 16.8804275,25.8578882" id="Fill-33" fill="#7B00FF"></path>
            <path d="M18.1411627,33.2265132 C18.8102012,32.8501974 19.6677012,33.0897368 20.0467988,33.7598684 C20.4244467,34.4307237 20.1852456,35.2803289 19.516932,35.6653289 C18.8478935,36.0373026 17.9903935,35.8035526 17.6112959,35.1355921 C17.2329231,34.4676316 17.4641509,33.6086184 18.1411627,33.2265132" id="Fill-35" fill="#7B00FF"></path>
            <path d="M22.9256213,38.9827697 C23.314142,38.3191513 24.1738166,38.1020461 24.8392308,38.4899408 C25.504645,38.8814539 25.7278994,39.7346776 25.3357544,40.4040855 C24.9414349,41.0626382 24.0868343,41.2848092 23.4177959,40.8983618 C22.7531065,40.5090197 22.5320266,39.6500066 22.9256213,38.9827697" id="Fill-37" fill="#7B00FF"></path>
            <path d="M37.3256775,40.316375 C36.9487544,39.6484145 37.1879556,38.7930197 37.8598935,38.4159803 C38.5340059,38.0374934 39.3871568,38.2712434 39.7655296,38.9428224 C40.1402781,39.6129539 39.9039763,40.4640066 39.2378373,40.8453882 C38.5673491,41.2260461 37.7120237,40.9915724 37.3256775,40.316375" id="Fill-39" fill="#7B00FF"></path>
            <path d="M43.0890488,35.5399868 C42.4272589,35.1513684 42.206179,34.2887368 42.598324,33.6272895 C42.9926435,32.9643947 43.8515932,32.7407763 44.5126583,33.1322895 C45.1744482,33.5274211 45.3998772,34.3835395 45.0120814,35.0464342 C44.6184867,35.7122237 43.7580873,35.9358421 43.0890488,35.5399868" id="Fill-41" fill="#7B00FF"></path>
            <path d="M45.6876435,28.5300197 C44.9200251,28.5227829 44.3017263,27.8837697 44.303176,27.1166645 C44.313324,26.3466645 44.9432204,25.7286382 45.7166376,25.7337039 C46.4835311,25.7460066 47.1105281,26.3734408 47.1040044,27.1412697 C47.0967559,27.9148882 46.4668595,28.5387039 45.6876435,28.5300197" id="Fill-43" fill="#7B00FF"></path>
            <path d="M44.4212544,21.1624079 C43.7580148,21.5351053 42.9005148,21.2962895 42.5185178,20.6290526 C42.1437692,19.9581974 42.380071,19.10425 43.0527337,18.7250395 C43.7217722,18.3523421 44.5792722,18.5824737 44.9590947,19.2526053 C45.3367426,19.9234605 45.1026154,20.7824737 44.4212544,21.1624079" id="Fill-45" fill="#7B00FF"></path>
            <path d="M39.6431746,15.4096974 C39.2546538,16.0675263 38.3928047,16.2868026 37.7295651,15.8989079 C37.0605266,15.5066711 36.8452456,14.652 37.2344911,13.9869342 C37.6273609,13.3269342 38.4870355,13.1018684 39.1481006,13.4897632 C39.8185888,13.8812763 40.0389438,14.7417368 39.6431746,15.4096974" id="Fill-47" fill="#7B00FF"></path>
            <path d="M38.229568,5.74388158 C38.067926,6.30111842 37.4902189,6.63546053 36.9255592,6.47697368 C36.363074,6.32717105 36.024568,5.73809211 36.1854852,5.18230263 C36.3391538,4.61493421 36.9255592,4.28565789 37.4902189,4.43907895 C38.0563284,4.59901316 38.3875858,5.17651316 38.229568,5.74388158" id="Fill-49" fill="#7B00FF"></path>
            <path d="M26.5583624,5.15407895 C26.6968092,5.71493421 26.3626524,6.29315789 25.7972678,6.43717105 C25.2318831,6.58625 24.644753,6.24901316 24.5041317,5.68309211 C24.3562618,5.11717105 24.6962175,4.54039474 25.2645015,4.38914474 C25.8320607,4.24657895 26.4075932,4.58309211 26.5583624,5.15407895" id="Fill-51" fill="#7B00FF"></path>
            <path d="M21.0065754,7.12619079 C21.2863683,7.63204605 21.1138536,8.27829605 20.6035577,8.56270395 C20.0961612,8.853625 19.4430695,8.674875 19.1618269,8.16829605 C18.8653624,7.65954605 19.0509246,7.01691447 19.5575962,6.72165132 C20.0686169,6.43651974 20.7115607,6.61382237 21.0065754,7.12619079" id="Fill-53" fill="#7B00FF"></path>
            <path d="M16.1563003,10.4661382 C16.5564186,10.8829803 16.5549689,11.5531118 16.1367293,11.9612697 C15.7279127,12.3715987 15.0480015,12.3672566 14.643534,11.9518618 C14.2245695,11.5364671 14.2347175,10.8663355 14.648608,10.4494934 C15.0726464,10.0406118 15.7380607,10.0500197 16.1563003,10.4661382" id="Fill-55" fill="#7B00FF"></path>
            <path d="M12.3359675,14.9482039 C12.8288669,15.2427434 13.0013817,15.8889934 12.705642,16.3962961 C12.4135266,16.8978092 11.7546361,17.0700461 11.2610118,16.7704408 C10.7492663,16.4780724 10.5854497,15.8296513 10.8753905,15.3209013 C11.176929,14.8157697 11.8263964,14.6522171 12.3359675,14.9482039" id="Fill-57" fill="#7B00FF"></path>
            <path d="M9.80536391,20.2627961 C10.3627751,20.4198355 10.696932,21.003125 10.5374645,21.5647039 C10.388145,22.1262829 9.79521598,22.4635197 9.24142899,22.3021382 C8.67242012,22.1508882 8.34406213,21.5661513 8.49048225,20.9987829 C8.65357396,20.4328618 9.23345562,20.1079276 9.80536391,20.2627961" id="Fill-59" fill="#7B00FF"></path>
            <path d="M8.74287574,26.0476382 C9.31695858,26.0592171 9.79101183,26.536125 9.78521302,27.1150724 C9.78521302,27.7005329 9.30173669,28.1767171 8.72185503,28.1665855 C8.134,28.1665855 7.66864497,27.6875066 7.66357101,27.1013224 C7.67444379,26.5122434 8.15284615,26.0476382 8.74287574,26.0476382" id="Fill-61" fill="#7B00FF"></path>
            <path d="M9.21142012,31.9120132 C9.77318047,31.7745132 10.3566864,32.1088553 10.4994822,32.6769474 C10.6495266,33.2378026 10.3052219,33.8247105 9.74563609,33.9629342 C9.17445266,34.1141842 8.59819527,33.7740526 8.44017751,33.2103026 C8.30028107,32.6385921 8.63951183,32.0647105 9.21142012,31.9120132" id="Fill-63" fill="#7B00FF"></path>
            <path d="M11.1863521,37.4580395 C11.6973728,37.1779737 12.3490148,37.3516579 12.627358,37.8589605 C12.9194734,38.3648158 12.7375355,39.0219211 12.2330385,39.2983684 C11.7241923,39.5929079 11.0754497,39.4127105 10.7818846,38.9061316 C10.4984675,38.3923158 10.6746065,37.7518553 11.1863521,37.4580395" id="Fill-65" fill="#7B00FF"></path>
            <path d="M14.5345888,42.3008618 C14.949929,41.8992171 15.6269408,41.8992171 16.0306834,42.3160592 C16.4409497,42.7314539 16.4380503,43.4088224 16.0205355,43.806125 C15.6051953,44.2258618 14.9347071,44.2171776 14.5150178,43.806125 C14.1083757,43.3834934 14.1134497,42.7155329 14.5345888,42.3008618" id="Fill-67" fill="#7B00FF"></path>
            <path d="M19.0224379,46.1167763 C19.3181775,45.6210526 19.9690947,45.4459211 20.4706923,45.7448026 C20.9730148,46.0364474 21.143355,46.6978947 20.8468905,47.1885526 C20.5547751,47.6973026 19.9053077,47.8615789 19.3921124,47.575 C18.8905148,47.2710526 18.7208994,46.6276974 19.0224379,46.1167763" id="Fill-69" fill="#7B00FF"></path>
            <path d="M24.3469837,48.6398289 C24.5042766,48.0840395 25.085608,47.7468026 25.6502678,47.9096316 C26.2120281,48.0601579 26.5476346,48.6521316 26.3845429,49.2021316 C26.2359482,49.7731184 25.653892,50.0987763 25.0827086,49.9562105 C24.517324,49.7904868 24.1896908,49.2108158 24.3469837,48.6398289" id="Fill-71" fill="#7B00FF"></path>
            <path d="M36.0182618,49.2331053 C35.8718417,48.6736974 36.2103476,48.0904079 36.7808062,47.9471184 C37.3440163,47.7973158 37.9246228,48.1425132 38.0623447,48.7026447 C38.217463,49.2707368 37.8833062,49.8438947 37.3113979,50.0023816 C36.7431139,50.1391579 36.1661317,49.8040921 36.0182618,49.2331053" id="Fill-73" fill="#7B00FF"></path>
            <path d="M41.569324,47.2595461 C41.2844571,46.7551382 41.4620459,46.1030987 41.9694423,45.8194145 C42.4746642,45.5306645 43.1299305,45.7159276 43.4126228,46.2188882 C43.7112618,46.7261908 43.5271494,47.3688224 43.019753,47.6662566 C42.505108,47.9463224 41.8607145,47.7748092 41.569324,47.2595461" id="Fill-75" fill="#7B00FF"></path>
            <path d="M46.4195991,43.9185132 C46.0129571,43.5016711 46.0165814,42.8315395 46.434821,42.4248289 C46.8501612,42.0159474 47.5271731,42.0202895 47.9309157,42.4378553 C48.3491553,42.8518026 48.3382825,43.5175921 47.9272914,43.9395 C47.5003536,44.3418684 46.8342145,44.3418684 46.4195991,43.9185132" id="Fill-77" fill="#7B00FF"></path>
            <path d="M50.2413092,39.4354342 C49.7426109,39.1437895 49.5693713,38.49175 49.8672855,37.9909605 C50.16375,37.4887237 50.820466,37.3186579 51.3133654,37.6175395 C51.8272855,37.9084605 51.9911021,38.5532632 51.7011612,39.06925 C51.3967234,39.5678684 50.7501553,39.7386579 50.2413092,39.4354342" id="Fill-79" fill="#7B00FF"></path>
            <path d="M52.7662589,34.123375 C52.2073979,33.9656118 51.8768654,33.3830461 52.035608,32.8229145 C52.1878269,32.2613355 52.7785814,31.9284408 53.3352678,32.0854803 C53.9013772,32.2367303 54.2304601,32.8164013 54.0847648,33.3873882 C53.9158743,33.9518618 53.3381672,34.2840329 52.7662589,34.123375" id="Fill-81" fill="#7B00FF"></path>
            <path d="M53.8301967,28.3363618 C53.2510399,28.3298487 52.7835104,27.8522171 52.7871346,27.2732697 C52.7885843,26.6878092 53.2727855,26.2123487 53.8548417,26.225375 C54.4397973,26.2174145 54.9058772,26.6964934 54.9138506,27.2855724 C54.8979038,27.8724803 54.4260251,28.342875 53.8301967,28.3363618" id="Fill-83" fill="#7B00FF"></path>
            <path d="M53.3623047,22.4695263 C52.797645,22.6171579 52.2184882,22.2755789 52.072068,21.7118289 C51.9241982,21.1495263 52.2677781,20.5633421 52.8288136,20.4258421 C53.4021716,20.2709737 53.9726302,20.6125526 54.1320976,21.1784737 C54.2727189,21.7509079 53.934213,22.3262368 53.3623047,22.4695263" id="Fill-85" fill="#7B00FF"></path>
            <path d="M51.3845459,16.9266842 C50.879324,17.2147105 50.2313062,17.0330658 49.9449896,16.5286579 C49.654324,16.02425 49.8384364,15.3678684 50.3436583,15.0921447 C50.8503299,14.7903684 51.4910991,14.9734605 51.7962618,15.4778684 C52.0775044,15.9981974 51.8999157,16.6386579 51.3845459,16.9266842" id="Fill-87" fill="#7B00FF"></path>
            <path d="M48.037034,12.0845855 C47.625318,12.4912961 46.9512056,12.4862303 46.5452885,12.0686645 C46.1328476,11.6568882 46.1379216,10.9780724 46.5568861,10.5793224 C46.9700518,10.1566908 47.6325666,10.1718882 48.0587796,10.5771513 C48.4668713,11.0055724 48.463247,11.6735329 48.037034,12.0845855" id="Fill-89" fill="#7B00FF"></path>
            <path d="M43.551287,8.27250658 C43.2540976,8.76895395 42.6017308,8.93829605 42.100858,8.64520395 C41.6014349,8.35500658 41.429645,7.69500658 41.7311834,7.20073026 C42.0196746,6.68836184 42.6626183,6.52625658 43.1772633,6.81066447 C43.6853846,7.11605921 43.8557249,7.76375658 43.551287,8.27250658" id="Fill-91" fill="#7B00FF"></path>
            <path d="M22.314716,2.71801316 C22.5256479,3.20794737 22.2770237,3.77531579 21.785574,3.9765 C21.2984734,4.169 20.7345385,3.93525 20.5344793,3.44314474 C20.3329704,2.95031579 20.5656479,2.38801316 21.0614467,2.18755263 C21.5543462,1.98709211 22.1059586,2.22663158 22.314716,2.71801316" id="Fill-93" fill="#7B00FF"></path>
            <path d="M16.2752485,5.86965789 C16.6057811,6.29301316 16.5137249,6.89873684 16.0904112,7.22222368 C15.669997,7.53413158 15.062571,7.45669737 14.7421864,7.03044737 C14.4210769,6.60636842 14.5000858,6.00498684 14.9270237,5.67932895 C15.351787,5.35946053 15.944716,5.45281579 16.2752485,5.86965789" id="Fill-95" fill="#7B00FF"></path>
            <path d="M11.2607219,10.4782237 C11.6883846,10.7988158 11.7586953,11.4074342 11.4325118,11.8322368 C11.1041538,12.2396711 10.5010769,12.3185526 10.0821124,11.9907237 C9.66097337,11.6665132 9.57689053,11.0636842 9.91032249,10.6425 C10.2336065,10.2249342 10.8301598,10.1554605 11.2607219,10.4782237" id="Fill-97" fill="#7B00FF"></path>
            <path d="M7.60884467,16.2221053 C8.1060932,16.4203947 8.33079734,16.9928289 8.12493935,17.4878289 C7.91908136,17.9647368 7.35224704,18.1977632 6.86224704,17.9886184 C6.37369675,17.7830921 6.13594527,17.2222368 6.34905178,16.7294079 C6.55273521,16.2445395 7.11377071,16.0209211 7.60884467,16.2221053" id="Fill-99" fill="#7B00FF"></path>
            <path d="M5.56947337,22.7150724 C6.10368935,22.7787566 6.4704645,23.2730329 6.39870414,23.8005987 C6.32114497,24.3173092 5.83694379,24.6885592 5.31287574,24.6132961 C4.78228402,24.5430987 4.40826036,24.0625724 4.48219527,23.5306645 C4.55757988,23.0059934 5.04033136,22.6484934 5.56947337,22.7150724" id="Fill-101" fill="#7B00FF"></path>
            <path d="M5.2856213,29.5130724 C5.81476331,29.4370855 6.29751479,29.8177434 6.36565089,30.3482039 C6.42798817,30.8670855 6.05468935,31.3512303 5.52699704,31.4127434 C4.99785503,31.4829408 4.51075444,31.1124145 4.44986686,30.5819539 C4.38318047,30.0565592 4.75502959,29.5847171 5.2856213,29.5130724" id="Fill-103" fill="#7B00FF"></path>
            <path d="M6.77214793,36.1516447 C7.26504734,35.9439474 7.83333136,36.1863816 8.03121598,36.6763158 C8.22765089,37.1669737 7.99207396,37.7285526 7.49989941,37.9275658 C7.007,38.1301974 6.44016568,37.8986184 6.24228107,37.4028947 C6.04004734,36.9129605 6.27634911,36.3586184 6.77214793,36.1516447" id="Fill-105" fill="#7B00FF"></path>
            <path d="M9.92706657,42.1824671 C10.3540044,41.8510197 10.9621553,41.9407566 11.2810902,42.3633882 C11.6014749,42.7838487 11.517392,43.3895724 11.0919038,43.7072697 C10.6693151,44.0314803 10.0626139,43.9562171 9.73932988,43.5270724 C9.41967012,43.1037171 9.50737722,42.508125 9.92706657,42.1824671" id="Fill-107" fill="#7B00FF"></path>
            <path d="M14.5409675,47.1906513 C14.8642515,46.7607829 15.4796509,46.6898618 15.8971657,47.0155197 C16.3146805,47.3375592 16.3900651,47.9454539 16.0617071,48.3644671 C15.7405976,48.7827566 15.130997,48.8674276 14.7084083,48.5359803 C14.2901686,48.2132171 14.219858,47.6161776 14.5409675,47.1906513" id="Fill-109" fill="#7B00FF"></path>
            <path d="M20.2944808,50.8352697 C20.4930902,50.3395461 21.0715222,50.1101382 21.5593476,50.3171118 C22.0449985,50.5219145 22.2755015,51.0892829 22.0667441,51.5763224 C21.8659601,52.0677039 21.3005754,52.303625 20.8055015,52.0930329 C20.3184009,51.8867829 20.0951464,51.3288224 20.2944808,50.8352697" id="Fill-111" fill="#7B00FF"></path>
            <path d="M40.2619083,51.6719934 C40.0459024,51.1784408 40.2938018,50.6089013 40.7859763,50.4091645 C41.2767012,50.2130461 41.8384615,50.4496908 42.037071,50.9446908 C42.2422041,51.4331776 42.0088018,51.998375 41.5093787,52.2010066 C41.0193787,52.4000197 40.4699408,52.1612039 40.2619083,51.6719934" id="Fill-113" fill="#7B00FF"></path>
            <path d="M46.3013757,48.5196974 C45.9679438,48.0963421 46.0563757,47.4848289 46.4811391,47.1642368 C46.9066272,46.8443684 47.510429,46.9326579 47.8264645,47.3581842 C48.1511982,47.7764737 48.0758136,48.3821974 47.6452515,48.7085789 C47.2226627,49.0255526 46.628284,48.9379868 46.3013757,48.5196974" id="Fill-115" fill="#7B00FF"></path>
            <path d="M51.3187293,43.9128684 C50.8881672,43.5922763 50.8135074,42.9756974 51.1433151,42.5581316 C51.4687737,42.1398421 52.0718506,42.06675 52.4900902,42.3945789 C52.9134038,42.7144474 52.9953121,43.3237895 52.6655044,43.7464211 C52.3371464,44.1639868 51.7427678,44.2305658 51.3187293,43.9128684" id="Fill-117" fill="#7B00FF"></path>
            <path d="M54.968432,38.1668882 C54.4690089,37.9685987 54.2406805,37.3925461 54.4472633,36.9040592 C54.654571,36.4148487 55.2192308,36.1890592 55.7070562,36.4010987 C56.1985059,36.6001118 56.4348077,37.1631382 56.2267751,37.6588618 C56.0201923,38.1473487 55.4627811,38.3673487 54.968432,38.1668882" id="Fill-119" fill="#7B00FF"></path>
            <path d="M57.0049763,31.6738487 C56.4736598,31.6101645 56.1032604,31.1129934 56.1757456,30.5890461 C56.2504053,30.0622039 56.7353314,29.7003618 57.2622988,29.7734539 C57.7878166,29.8414803 58.1654645,30.325625 58.0922544,30.8582566 C58.016145,31.3814803 57.5333935,31.7389803 57.0049763,31.6738487" id="Fill-121" fill="#7B00FF"></path>
            <path d="M57.2930325,24.8765724 C56.7624408,24.9511118 56.2753402,24.5697303 56.2093787,24.0414408 C56.1455917,23.5153224 56.5203402,23.0369671 57.0480325,22.9769013 C57.5706509,22.9030855 58.0628254,23.2714408 58.1280621,23.8069671 C58.1903994,24.3316382 57.8214497,24.8005855 57.2930325,24.8765724" id="Fill-123" fill="#7B00FF"></path>
            <path d="M55.8030266,18.2355395 C55.3115769,18.4483026 54.7411183,18.2015263 54.5432337,17.7065263 C54.3424497,17.2158684 54.5838254,16.6608026 55.0774497,16.4639605 C55.5674497,16.2598816 56.1321095,16.4885658 56.3357929,16.9871842 C56.5351272,17.4771184 56.2930266,18.0263947 55.8030266,18.2355395" id="Fill-125" fill="#7B00FF"></path>
            <path d="M52.6480355,12.2071776 C52.223997,12.538625 51.6100473,12.4467171 51.2940118,12.0233618 C50.9721775,11.5978355 51.0584349,11.0000724 51.4853728,10.6809276 C51.9014379,10.3574408 52.5117633,10.4319803 52.836497,10.8647434 C53.1539822,11.2859276 53.0648254,11.8779013 52.6480355,12.2071776" id="Fill-127" fill="#7B00FF"></path>
            <path d="M48.037034,7.19443421 C47.7123003,7.62502632 47.0947263,7.69956579 46.6801109,7.37028947 C46.2567973,7.04390789 46.1864867,6.44397368 46.5162944,6.02423684 C46.836679,5.60522368 47.4412056,5.51765789 47.8674186,5.84982895 C48.2849334,6.17621053 48.350895,6.77180263 48.037034,7.19443421" id="Fill-129" fill="#7B00FF"></path>
            <path d="M42.2806938,3.54945395 C42.0820843,4.04879605 41.5051021,4.27748026 41.0158269,4.06688816 C40.5258269,3.86063816 40.3025725,3.29978289 40.5113299,2.80984868 C40.7099393,2.32280921 41.2709749,2.08254605 41.7711228,2.29096711 C42.2560488,2.50011184 42.475679,3.05951974 42.2806938,3.54945395" id="Fill-131" fill="#7B00FF"></path>
            <path d="M16.6787012,0.484072368 C16.890358,0.871967105 16.7577101,1.35900658 16.3713639,1.57611184 C15.9929911,1.79249342 15.4942929,1.66078289 15.2804615,1.27723026 C15.0601065,0.889335526 15.1971036,0.400125 15.5798254,0.183019737 C15.9683462,-0.0369802632 16.4612456,0.0954539474 16.6787012,0.484072368" id="Fill-133" fill="#7B00FF"></path>
            <path d="M5.25800444,11.3527237 C5.63492751,11.58575 5.76757544,12.0735132 5.53997189,12.4505526 C5.32034172,12.8297632 4.82381805,12.9643684 4.44472041,12.7378553 C4.06054882,12.5135132 3.93514941,12.0214079 4.15477959,11.64075 C4.38165828,11.25575 4.87528254,11.1276579 5.25800444,11.3527237" id="Fill-135" fill="#7B00FF"></path>
            <path d="M0.814081361,26.4681711 C1.25406657,26.47975 1.61431805,26.8379737 1.60779438,27.27725 C1.60489497,27.7150789 1.24246893,28.0790921 0.801034024,28.0733026 C0.35525,28.0675132 0.000797337278,27.7063947 7.24852071e-05,27.2671184 C0.00732100592,26.8206053 0.366847633,26.4616579 0.814081361,26.4681711" id="Fill-137" fill="#7B00FF"></path>
            <path d="M4.53315237,41.7761184 C4.91949852,41.56625 5.41239793,41.6972368 5.62550444,42.0800658 C5.84006065,42.4621711 5.71031213,42.9586184 5.32469083,43.1706579 C4.93761982,43.3913816 4.44906953,43.2538816 4.22726479,42.8739474 C4.01125888,42.4838816 4.1439068,41.9932237 4.53315237,41.7761184" id="Fill-139" fill="#7B00FF"></path>
            <path d="M15.4201405,53.1766053 C15.6491938,52.8010132 16.1391938,52.67075 16.5175666,52.8972632 C16.8930399,53.1172632 17.0343861,53.6122632 16.8060577,53.99075 C16.579179,54.3721316 16.0884541,54.4973289 15.7064571,54.2795 C15.3208358,54.0508158 15.1918121,53.5594342 15.4201405,53.1766053" id="Fill-141" fill="#7B00FF"></path>
            <path d="M45.8915444,53.9020987 C45.6784379,53.5156513 45.8132604,53.0264408 46.1930828,52.8129539 C46.5765296,52.5972961 47.0759527,52.7253882 47.2883343,53.1096645 C47.5072396,53.4982829 47.373142,53.983875 46.991145,54.2089408 C46.6011746,54.423875 46.1075503,54.2907171 45.8915444,53.9020987" id="Fill-143" fill="#7B00FF"></path>
            <path d="M57.3093417,43.0316382 C56.9316938,42.805125 56.8012204,42.3115724 57.0295488,41.9381513 C57.249179,41.5603882 57.7449778,41.4207171 58.1240754,41.6479539 C58.5067973,41.8751908 58.635821,42.3636776 58.4147411,42.7465066 C58.184963,43.1286118 57.6898891,43.2610461 57.3093417,43.0316382" id="Fill-145" fill="#7B00FF"></path>
            <path d="M61.7547145,27.9176382 C61.3147293,27.9104013 60.9566524,27.5485592 60.9624512,27.1114539 C60.9639009,26.6750724 61.3248772,26.3059934 61.7684867,26.3125066 C62.2106464,26.3182961 62.5679985,26.6779671 62.5687234,27.1201382 C62.5614749,27.5652039 62.2004985,27.9270461 61.7547145,27.9176382" id="Fill-147" fill="#7B00FF"></path>
            <path d="M58.0362959,12.6121513 C57.6506746,12.8249145 57.1570503,12.6895855 56.9453935,12.3074803 C56.7293876,11.9260987 56.8584112,11.4274803 57.2440325,11.2132697 C57.6296538,10.9976118 58.1203787,11.1314934 58.3414586,11.5143224 C58.5589142,11.9014934 58.4262663,12.3957697 58.0362959,12.6121513" id="Fill-149" fill="#7B00FF"></path>
            <path d="M47.1486553,1.21057895 C46.9203269,1.58472368 46.4288772,1.71788158 46.052679,1.49281579 C45.6735814,1.26992105 45.5373092,0.774921053 45.7641879,0.397881579 C45.9881672,0.0150526316 46.4817914,-0.112315789 46.8645133,0.107684211 C47.2465104,0.335644737 47.3777086,0.829921053 47.1486553,1.21057895" id="Fill-151" fill="#7B00FF"></path>
            <mask id="mask-2" fill="white">
                <use xlink:href="#path-1"></use>
            </mask>
            <g id="Clip-154"></g>
            <polygon id="Fill-153" fill="#7B00FF" mask="url(#mask-2)" points="74.1871598 24.6928289 76.7705325 24.6928289 76.7705325 10.8632237 74.1871598 10.8632237"></polygon>
            <path d="M81.9387278,24.6928289 L79.3734763,24.6928289 L79.3734763,13.5401316 L81.5313609,13.5401316 L81.7633136,15.7705263 C82.0612278,15.0077632 82.5273077,14.3998684 83.163003,13.9468421 C83.7972485,13.4945395 84.5931361,13.2680263 85.5513905,13.2680263 C86.8988905,13.2680263 87.9260059,13.6819737 88.6320118,14.5098684 C89.3380178,15.3363158 89.6902959,16.4421053 89.6902959,17.8257895 L89.6902959,24.6928289 L87.1250444,24.6928289 L87.1250444,18.4467105 C87.1250444,17.5421053 86.9510799,16.8205921 86.6017012,16.2843421 C86.2515976,15.7480921 85.6231509,15.4796053 84.7163609,15.4796053 C83.770429,15.4796053 83.0716716,15.7864474 82.6179142,16.4008553 C82.1648817,17.0152632 81.9387278,17.8388158 81.9387278,18.8729605 L81.9387278,24.6928289 Z" id="Fill-155" fill="#7B00FF" mask="url(#mask-2)"></path>
            <path d="M91.9641568,24.6928289 L94.5482544,24.6928289 L94.5482544,13.5401316 L91.9641568,13.5401316 L91.9641568,24.6928289 Z M91.983003,11.9690132 C91.7235059,11.7229605 91.5944822,11.2836842 91.5944822,10.6497368 C91.5944822,10.0288158 91.7372781,9.59605263 92.022145,9.35072368 C92.3077367,9.10394737 92.7288757,8.98164474 93.2848373,8.98164474 C93.8429734,8.98164474 94.2633876,9.10394737 94.5482544,9.35072368 C94.8323964,9.59605263 94.9744675,10.0288158 94.9744675,10.6497368 C94.9744675,11.2446053 94.8352959,11.6744737 94.5569527,11.9393421 C94.2793343,12.2049342 93.854571,12.3373684 93.2848373,12.3373684 C92.6759615,12.3373684 92.2425,12.2143421 91.983003,11.9690132 Z" id="Fill-156" fill="#7B00FF" mask="url(#mask-2)"></path>
            <path d="M103.698497,24.6928289 L102.26184,24.6928289 C101.742121,24.6928289 101.279666,24.6573684 100.872299,24.5864474 C100.463482,24.5148026 100.123527,24.4156579 99.8509822,24.2853947 C99.2950207,24.0009868 98.9101243,23.5356579 98.695568,22.8894079 C98.4817367,22.2431579 98.3751834,21.3566447 98.3751834,20.2313158 L98.3751834,15.7900658 L96.1999024,15.7900658 L96.1999024,13.6363816 L97.1900503,13.6363816 C97.3712633,13.6363816 97.5263817,13.6269737 97.6561302,13.6074342 C97.7851538,13.5878947 97.8960562,13.5589474 97.9859379,13.5198684 C98.1678757,13.4294079 98.2968994,13.2680263 98.3751834,13.0342763 C98.4527426,12.8019737 98.5042071,12.4596711 98.5310266,12.0073684 C98.5433491,11.7620395 98.553497,11.4964474 98.5592959,11.2113158 C98.5658195,10.9269079 98.5694438,10.7003947 98.5694438,10.5332237 L100.74545,10.5332237 L100.74545,13.5401316 L103.698497,13.5401316 L103.698497,15.7900658 L100.74545,15.7900658 L100.74545,19.8043421 C100.74545,20.1669079 100.758497,20.4867763 100.783867,20.7653947 C100.811411,21.0432895 100.849104,21.2726974 100.900568,21.4536184 C100.991175,21.8161842 101.191959,22.0521053 101.50292,22.1621053 C101.813882,22.2713816 102.279962,22.3271053 102.901885,22.3271053 L103.698497,22.3271053 L103.698497,24.6928289 Z" id="Fill-157" fill="#7B00FF" mask="url(#mask-2)"></path>
            <path d="M105.543536,24.6928289 L108.127633,24.6928289 L108.127633,13.5401316 L105.543536,13.5401316 L105.543536,24.6928289 Z M105.563831,11.9690132 C105.304334,11.7229605 105.176036,11.2836842 105.176036,10.6497368 C105.176036,10.0288158 105.317382,9.59605263 105.602973,9.35072368 C105.886391,9.10394737 106.30753,8.98164474 106.865666,8.98164474 C107.421627,8.98164474 107.842766,9.10394737 108.128358,9.35072368 C108.413225,9.59605263 108.556021,10.0288158 108.556021,10.6497368 C108.556021,11.2446053 108.415399,11.6744737 108.138506,11.9393421 C107.859438,12.2049342 107.435399,12.3373684 106.865666,12.3373684 C106.25679,12.3373684 105.822604,12.2143421 105.563831,11.9690132 Z" id="Fill-158" fill="#7B00FF" mask="url(#mask-2)"></path>
            <path d="M115.481547,22.8991776 C115.799033,22.8152303 116.093322,22.6885855 116.365142,22.5206908 C116.910231,22.1849013 117.327746,21.7543092 117.618411,21.2310855 C117.909802,20.7071382 118.056222,20.1802961 118.056222,19.6498355 L118.056222,19.0484539 C117.822095,19.2170724 117.514757,19.3589145 117.13276,19.4747039 C116.750763,19.5912171 116.307154,19.6881908 115.801932,19.7663487 C115.12782,19.8698355 114.620423,19.9697039 114.277568,20.0666776 C113.933263,20.1636513 113.63245,20.2960855 113.373678,20.4647039 C113.153322,20.6065461 112.988056,20.7751645 112.877879,20.9683882 C112.767701,21.1623355 112.713337,21.3823355 112.713337,21.6283882 C112.713337,22.0937171 112.859033,22.4432566 113.150423,22.6762829 C113.441089,22.9085855 113.878899,23.0250987 114.460956,23.0250987 C114.824107,23.0250987 115.164062,22.983125 115.481547,22.8991776 Z M118.152627,22.4627961 C117.777154,23.1872039 117.21032,23.7885855 116.452849,24.2662171 C115.695379,24.7438487 114.740024,24.9841118 113.587509,24.9841118 C112.38208,24.9841118 111.473115,24.7127303 110.857716,24.1692434 C110.242317,23.6264803 109.934979,22.9020724 109.934979,21.9967434 C109.934979,21.3758224 110.064003,20.8359539 110.3235,20.3771382 C110.582272,19.9190461 110.938899,19.5463487 111.391932,19.2619408 C111.54705,19.1584539 111.705793,19.0672697 111.867435,18.9905592 C112.029802,18.913125 112.18782,18.8479934 112.343663,18.7966118 C112.667672,18.679375 113.056192,18.5758882 113.509225,18.4861513 C113.962257,18.3956908 114.53924,18.2987171 115.238722,18.1952303 C116.236118,18.0656908 116.951547,17.9072039 117.385734,17.7204934 C117.819195,17.5316118 118.035926,17.2131908 118.035926,16.7594408 C118.035926,16.2941118 117.861962,15.9250329 117.511858,15.654375 C117.162479,15.3822697 116.552879,15.2469408 115.685956,15.2469408 C114.766118,15.2469408 114.086207,15.4408882 113.646222,15.8280592 C113.204787,16.2166776 112.965586,16.7659539 112.927169,17.4773355 L110.303204,17.4773355 C110.39526,16.2101645 110.893234,15.1919408 111.800024,14.4219408 C112.706089,13.6533882 113.957183,13.2683882 115.549683,13.2683882 C116.157834,13.2683882 116.701473,13.3067434 117.181325,13.3849013 C117.661178,13.4623355 118.081592,13.5853618 118.444018,13.7525329 C119.169595,14.0629934 119.690763,14.5102303 120.008249,15.0913487 C120.325734,15.6731908 120.484476,16.3650329 120.484476,17.166875 L120.484476,24.6931908 L118.425172,24.6931908 L118.152627,22.4627961 Z" id="Fill-159" fill="#7B00FF" mask="url(#mask-2)"></path>
            <path d="M129.14972,24.6928289 L127.711614,24.6928289 C127.193345,24.6928289 126.730889,24.6573684 126.322797,24.5864474 C125.914706,24.5148026 125.574025,24.4156579 125.301481,24.2853947 C124.746244,24.0009868 124.359898,23.5356579 124.146791,22.8894079 C123.93296,22.2431579 123.826407,21.3566447 123.826407,20.2313158 L123.826407,15.7900658 L121.651126,15.7900658 L121.651126,13.6363816 L122.641274,13.6363816 C122.821762,13.6363816 122.97688,13.6269737 123.107354,13.6074342 C123.236377,13.5878947 123.34728,13.5589474 123.437161,13.5198684 C123.618374,13.4294079 123.748123,13.2680263 123.826407,13.0342763 C123.903966,12.8019737 123.95543,12.4596711 123.98225,12.0073684 C123.994572,11.7620395 124.003996,11.4964474 124.010519,11.2113158 C124.017043,10.9269079 124.020667,10.7003947 124.020667,10.5332237 L126.196673,10.5332237 L126.196673,13.5401316 L129.14972,13.5401316 L129.14972,15.7900658 L126.196673,15.7900658 L126.196673,19.8043421 C126.196673,20.1669079 126.208996,20.4867763 126.23509,20.7653947 C126.26191,21.0432895 126.299602,21.2726974 126.351791,21.4536184 C126.442398,21.8161842 126.643182,22.0521053 126.954143,22.1621053 C127.26438,22.2713816 127.731185,22.3271053 128.352383,22.3271053 L129.14972,22.3271053 L129.14972,24.6928289 Z" id="Fill-160" fill="#7B00FF" mask="url(#mask-2)"></path>
            <path d="M130.995991,24.6928289 L133.579364,24.6928289 L133.579364,13.5401316 L130.995991,13.5401316 L130.995991,24.6928289 Z M131.014112,11.9690132 C130.756065,11.7229605 130.624867,11.2836842 130.624867,10.6497368 C130.624867,10.0288158 130.768388,9.59605263 131.053254,9.35072368 C131.337396,9.10394737 131.75926,8.98164474 132.315222,8.98164474 C132.873358,8.98164474 133.294497,9.10394737 133.579364,9.35072368 C133.864231,9.59605263 134.006302,10.0288158 134.006302,10.6497368 C134.006302,11.2446053 133.86713,11.6744737 133.589512,11.9393421 C133.310444,12.2049342 132.88568,12.3373684 132.315222,12.3373684 C131.707071,12.3373684 131.274334,12.2143421 131.014112,11.9690132 Z" id="Fill-161" fill="#7B00FF" mask="url(#mask-2)"></path>
            <polygon id="Fill-162" fill="#7B00FF" mask="url(#mask-2)" points="139.252346 24.6928289 134.861192 13.5401316 137.522849 13.5401316 140.417908 21.5310526 143.429669 13.5401316 146.110172 13.5401316 141.524757 24.6928289"></polygon>
            <path d="M149.957324,16.0125263 C149.413685,16.4981184 149.07083,17.1798289 148.927309,18.0591053 L154.988522,18.0591053 C154.897916,17.2051579 154.616673,16.5299605 154.143345,16.0320658 C153.670741,15.5348947 152.988655,15.2852237 152.094188,15.2852237 C151.212768,15.2852237 150.501688,15.5269342 149.957324,16.0125263 M155.543034,24.0331184 C154.642768,24.6670658 153.460534,24.9840395 151.996333,24.9840395 C150.119691,24.9840395 148.714203,24.4767368 147.781318,23.4606842 C146.848433,22.4453553 146.383078,21.0783158 146.383078,19.3588421 L146.383078,19.0867368 C146.383078,18.4925921 146.441067,17.9389737 146.557768,17.4280526 C146.674469,16.9178553 146.848433,16.4423947 147.082561,16.0031184 C147.547916,15.1368684 148.205357,14.4638421 149.054883,13.9862105 C149.90151,13.5071316 150.909055,13.2683158 152.075342,13.2683158 C153.034321,13.2683158 153.859203,13.4231842 154.552161,13.7336447 C155.244395,14.0433816 155.811954,14.4638421 156.251939,14.9935789 C156.691925,15.5240395 157.015933,16.1261447 157.222516,16.7984474 C157.430549,17.47075 157.535652,18.1625921 157.535652,18.87325 L157.535652,20.0571974 L148.908463,20.0571974 C149.012117,20.9618026 149.3383,21.6601579 149.889188,22.1522632 C150.440075,22.6429211 151.175075,22.8889737 152.094188,22.8889737 C152.7683,22.8889737 153.311939,22.7601579 153.726555,22.5003553 C154.140445,22.2427237 154.444883,21.8736447 154.639868,21.3960132 L157.379084,21.3960132 C157.0558,22.5198947 156.4433,23.4006184 155.543034,24.0331184" id="Fill-163" fill="#7B00FF" mask="url(#mask-2)"></path>
            <path d="M168.74404,15.7506974 L168.724469,24.6932632 L166.296214,24.6932632 L166.296214,15.7506974 L164.33404,15.7506974 L164.33404,13.5398421 L166.296214,13.5398421 L166.296214,13.0933289 C166.296214,11.6712895 166.594854,10.66175 167.189957,10.0676053 C167.785786,9.47273684 168.74404,9.17457895 170.065445,9.17457895 L171.386126,9.17457895 L171.386126,11.2696447 L170.414824,11.2696447 C170.182146,11.2696447 169.974839,11.2826711 169.793626,11.308 C169.611688,11.3355 169.463093,11.3731316 169.347117,11.4252368 C169.099942,11.5294474 168.939025,11.7328026 168.860741,12.03675 C168.783907,12.3406974 168.74404,12.7958947 168.74404,13.4037895 L168.74404,13.5398421 L171.36728,13.5398421 L171.36728,15.7506974 L168.74404,15.7506974 Z" id="Fill-164" fill="#7B00FF" mask="url(#mask-2)"></path>
            <path d="M179.866678,21.8511382 C180.403793,21.2497566 180.673438,20.3994276 180.673438,19.300875 L180.673438,19.0483092 C180.673438,17.9114013 180.397269,17.0248882 179.847107,16.3909408 C179.296944,15.7577171 178.561219,15.4407434 177.642831,15.4407434 C176.735317,15.4407434 176.000317,15.7483092 175.437107,16.3612697 C174.874621,16.9756776 174.591929,17.8715987 174.591929,19.0483092 L174.591929,19.300875 C174.591929,20.3994276 174.860849,21.2497566 175.397964,21.8511382 C175.93508,22.4525197 176.676604,22.7535724 177.62326,22.7535724 C178.58224,22.7535724 179.329562,22.4525197 179.866678,21.8511382 M173.455361,23.5192303 C172.476811,22.5429803 171.988985,21.1491645 171.988985,19.3392303 L171.988985,19.0483092 C171.988985,18.4273882 172.049873,17.8527829 172.172373,17.3223224 C172.296322,16.7925855 172.481885,16.3135066 172.726885,15.8865329 C173.206737,15.0333092 173.870701,14.3834408 174.718778,13.9369276 C175.566855,13.4911382 176.534533,13.2675197 177.62326,13.2675197 C178.179947,13.2675197 178.701115,13.3232434 179.187491,13.4332434 C179.672417,13.5432434 180.12255,13.7140329 180.536441,13.9463355 C181.392491,14.4000855 182.059355,15.0557434 182.538482,15.9154803 C183.017609,16.7759408 183.256811,17.8202171 183.256811,19.0483092 L183.256811,19.3392303 C183.256811,19.9478487 183.198822,20.5065329 183.082846,21.0167303 C182.966145,21.528375 182.790731,21.9900855 182.558053,22.4033092 C182.078201,23.2442303 181.417861,23.8854145 180.576308,24.3246908 C179.73403,24.7639671 178.74968,24.9839671 177.62326,24.9839671 C175.822003,24.9839671 174.433186,24.4954803 173.455361,23.5192303" id="Fill-165" fill="#7B00FF" mask="url(#mask-2)"></path>
            <path d="M185.199704,24.6928289 L185.199704,13.5401316 L187.260459,13.5401316 L187.590266,16.1576974 C187.810621,15.2400658 188.220888,14.5576316 188.822515,14.1118421 C189.425592,13.6646053 190.251923,13.4431579 191.300059,13.4431579 L192.05753,13.4431579 L192.05753,16.0223684 L190.951405,16.0223684 C190.510695,16.0223684 190.12145,16.0505921 189.785118,16.1099342 C189.447337,16.1671053 189.164645,16.2546711 188.930518,16.3719079 C188.463713,16.5919079 188.144053,16.9566447 187.967914,17.4675658 C187.793225,17.9784868 187.706243,18.6674342 187.706243,19.5336842 L187.706243,24.6928289 L185.199704,24.6928289 Z" id="Fill-166" fill="#7B00FF" mask="url(#mask-2)"></path>
            <path d="M83.221426,40.1887895 C83.1561893,40.5122763 83.0663077,40.8256316 82.9488817,41.1295789 C82.8321805,41.4335263 82.6901095,41.7215526 82.5219438,41.9929342 C82.1718402,42.5226711 81.6992367,42.9496447 81.1034083,43.2738553 C80.5075799,43.5966184 79.7689556,43.758 78.8882604,43.758 C77.2051538,43.758 75.9127426,43.2376711 75.0132012,42.1962895 C74.1122101,41.1556316 73.6620769,39.5295132 73.6620769,37.3186579 L73.6620769,35.9798421 C73.6620769,33.7812895 74.2035414,32.1327368 75.2842959,31.0341842 C76.3657751,29.9349079 77.8451982,29.3849079 79.7247396,29.3849079 C81.4469882,29.3849079 82.7836154,29.8278026 83.736071,30.7143158 C84.6878018,31.5993816 85.2024467,32.8376053 85.2814556,34.4282632 L82.619074,34.4282632 C82.6053018,34.1699079 82.5705089,33.92675 82.5117959,33.7009605 C82.4538077,33.4744474 82.3733491,33.2515526 82.2689704,33.0315526 C82.0747101,32.6183289 81.7738964,32.2854342 81.3650799,32.0321447 C80.957713,31.7803026 80.3974024,31.6551053 79.6848728,31.6551053 C78.5193107,31.6551053 77.6581864,32.0198421 77.1015,32.7500395 C76.5440888,33.4809605 76.2664704,34.5903684 76.2664704,36.0768158 L76.2664704,37.2216842 C76.2526982,38.7081316 76.5216183,39.7885921 77.0717811,40.4608947 C77.6212189,41.1331974 78.4671213,41.4689868 79.6080385,41.4689868 C79.9697396,41.4689868 80.2973728,41.4335263 80.5887633,41.3626053 C80.8801538,41.2916842 81.1360266,41.1853026 81.3563817,41.0427368 C81.7963669,40.7576053 82.1203757,40.3798421 82.3269586,39.9072763 C82.5342663,39.4361579 82.6444438,38.9346447 82.658216,38.4049079 L79.2767811,38.4049079 L79.2767811,36.2121447 L85.3387189,36.2121447 L85.3387189,43.4670789 L83.4156864,43.4670789 L83.221426,40.1887895 Z" id="Fill-167" fill="#7B00FF" mask="url(#mask-2)"></path>
            <polygon id="Fill-168" fill="#7B00FF" mask="url(#mask-2)" points="87.6897041 43.4673684 90.2346598 43.4673684 90.2346598 28.53125 87.6897041 28.53125"></polygon>
            <path d="M99.9779038,40.6252434 C100.514294,40.0238618 100.78249,39.1742566 100.78249,38.0749803 L100.78249,37.8224145 C100.78249,36.6855066 100.507771,35.7989934 99.9583328,35.1650461 C99.4081701,34.5318224 98.6717204,34.2148487 97.7540577,34.2148487 C96.8465429,34.2148487 96.1115429,34.5224145 95.5483328,35.135375 C94.9836731,35.7497829 94.7031553,36.6464276 94.7031553,37.8224145 L94.7031553,38.0749803 C94.7031553,39.1742566 94.9720754,40.0238618 95.5091908,40.6252434 C96.0455814,41.2273487 96.7878299,41.5276776 97.7337618,41.5276776 C98.6927411,41.5276776 99.4407885,41.2273487 99.9779038,40.6252434 M93.5658624,42.2933355 C92.588037,41.3178092 92.1002115,39.9239934 92.1002115,38.1140592 L92.1002115,37.8224145 C92.1002115,37.2014934 92.1610991,36.6268882 92.2835991,36.0964276 C92.4075488,35.5666908 92.5923861,35.0876118 92.8373861,34.6606382 C93.3165133,33.8074145 93.9812027,33.1582697 94.8285547,32.7110329 C95.6773565,32.2652434 96.645034,32.0423487 97.7337618,32.0423487 C98.2904482,32.0423487 98.8123417,32.0980724 99.2972678,32.2073487 C99.7829186,32.3173487 100.233052,32.4881382 100.647667,32.7218882 C101.502993,33.1741908 102.169132,33.8298487 102.648984,34.6895855 C103.128111,35.5500461 103.368037,36.5943224 103.368037,37.8224145 L103.368037,38.1140592 C103.368037,38.7219539 103.310049,39.2806382 103.194072,39.7915592 C103.076646,40.3024803 102.901232,40.7641908 102.66928,41.1781382 C102.189428,42.0183355 101.529087,42.6595197 100.686809,43.0987961 C99.8445311,43.5380724 98.860182,43.7580724 97.7337618,43.7580724 C95.9332293,43.7580724 94.5444127,43.2710329 93.5658624,42.2933355" id="Fill-169" fill="#7B00FF" mask="url(#mask-2)"></path>
            <path d="M112.965803,40.6065 C113.484072,40.0043947 113.74357,39.1164342 113.74357,37.9397237 L113.74357,37.7059737 C113.74357,36.5943947 113.4703,35.7274211 112.926661,35.1072237 C112.381572,34.4863026 111.677016,34.1765658 110.807919,34.1765658 C109.888806,34.1765658 109.150907,34.5000526 108.59422,35.1463026 C108.037534,35.7925526 107.759191,36.6269605 107.759191,37.6473553 L107.759191,37.84275 C107.759191,38.9934079 108.030286,39.8915 108.573925,40.53775 C109.117564,41.1847237 109.843141,41.5074868 110.74993,41.5074868 C111.709635,41.5074868 112.447534,41.2078816 112.965803,40.6065 M109.137859,43.0597895 C108.503614,42.5944605 108.037534,41.9800526 107.73962,41.2172895 L107.506942,43.4672237 L105.349783,43.4672237 L105.349783,28.5318289 L107.816454,28.5318289 L107.816454,34.4479474 C108.141188,33.7105132 108.626839,33.1250526 109.274857,32.6915658 C109.922149,32.2588026 110.699191,32.0424211 111.605981,32.0424211 C112.072786,32.0424211 112.506247,32.0981447 112.90709,32.2074211 C113.308658,32.3174211 113.69138,32.4759079 114.054531,32.6821579 C114.765611,33.1091316 115.322297,33.7365658 115.72459,34.5637368 C116.125433,35.3916316 116.326942,36.4257763 116.326942,37.6676184 L116.326942,37.9585395 C116.326942,39.7945263 115.892756,41.2209079 115.025833,42.2347895 C114.158185,43.2508421 112.991173,43.7581447 111.527697,43.7581447 C110.568717,43.7581447 109.772105,43.5258421 109.137859,43.0597895" id="Fill-170" fill="#7B00FF" mask="url(#mask-2)"></path>
            <path d="M123.233333,41.6729211 C123.550093,41.5889737 123.845833,41.4630526 124.116928,41.2944342 C124.662016,40.9586447 125.079531,40.5280526 125.370922,40.0048289 C125.662312,39.4808816 125.808007,38.9540395 125.808007,38.4235789 L125.808007,37.8221974 C125.574605,37.9908158 125.266543,38.1326579 124.884546,38.2491711 C124.502549,38.3649605 124.058939,38.4626579 123.552993,38.5400921 C122.88033,38.6435789 122.372209,38.7441711 122.029354,38.8411447 C121.685049,38.9381184 121.38351,39.0705526 121.125463,39.2384474 C120.904383,39.3802895 120.739842,39.5489079 120.629664,39.7435789 C120.520212,39.9375263 120.465123,40.1560789 120.465123,40.4021316 C120.465123,40.8674605 120.610818,41.2177237 120.901484,41.4500263 C121.192874,41.6823289 121.62996,41.7988421 122.213466,41.7988421 C122.576617,41.7988421 122.915848,41.7568684 123.233333,41.6729211 Z M125.904413,41.2365395 C125.529664,41.9609474 124.962105,42.5623289 124.204635,43.0406842 C123.447164,43.5190395 122.491809,43.7578553 121.339294,43.7578553 C120.135315,43.7578553 119.224901,43.4864737 118.608777,42.9437105 C117.993377,42.4002237 117.686765,41.6758158 117.686765,40.7704868 C117.686765,40.1495658 117.815064,39.6104211 118.075286,39.1508816 C118.333333,38.6927895 118.68996,38.3208158 119.142993,38.0356842 C119.298111,37.9321974 119.458303,37.8417368 119.62067,37.7643026 C119.780862,37.6868684 119.94033,37.6217368 120.095448,37.5703553 C120.418732,37.4545658 120.807253,37.3510789 121.26101,37.2606184 C121.714768,37.1694342 122.2903,37.0724605 122.990507,36.9689737 C123.987179,36.8401579 124.702608,36.6809474 125.137519,36.4942368 C125.570981,36.3068026 125.786987,35.9869342 125.786987,35.5346316 C125.786987,35.0678553 125.613022,34.6987763 125.263643,34.4281184 C124.91354,34.1567368 124.305389,34.0206842 123.437016,34.0206842 C122.517904,34.0206842 121.837268,34.2146316 121.398007,34.6018026 C120.955848,34.9904211 120.716646,35.5396974 120.678954,36.2510789 L118.055714,36.2510789 C118.146321,34.9839079 118.645019,33.9656842 119.551809,33.1964079 C120.457874,32.4271316 121.708244,32.0421316 123.301469,32.0421316 C123.90962,32.0421316 124.454709,32.0804868 124.933111,32.1586447 C125.412963,32.2360789 125.834102,32.3591053 126.196528,32.5277237 C126.92138,32.8367368 127.442549,33.2839737 127.759309,33.8650921 C128.077519,34.4476579 128.236262,35.1387763 128.236262,35.9406184 L128.236262,43.4669342 L126.176957,43.4669342 L125.904413,41.2365395 Z" id="Fill-171" fill="#7B00FF" mask="url(#mask-2)"></path>
            <polygon id="Fill-172" fill="#7B00FF" mask="url(#mask-2)" points="130.644438 43.4673684 133.189393 43.4673684 133.189393 28.53125 130.644438 28.53125"></polygon>
            <path d="M144.302898,31.8095395 L144.302898,36.9303289 L147.080531,36.9303289 C148.000368,36.9303289 148.712898,36.7074342 149.21812,36.2616447 C149.723342,35.8151316 149.976315,35.1717763 149.976315,34.3315789 C149.976315,33.5811184 149.73349,32.9732237 149.247839,32.5078947 C148.762188,32.0425658 148.020664,31.8095395 147.023268,31.8095395 L144.302898,31.8095395 Z M144.302898,39.1028289 L144.302898,43.4680921 L141.796359,43.4680921 L141.796359,29.6370395 L147.023268,29.6370395 C147.644466,29.6370395 148.210575,29.6855263 148.723046,29.7817763 C149.234067,29.87875 149.690723,30.0314474 150.092291,30.2384211 C150.908475,30.6263158 151.517351,31.1726974 151.918919,31.8775658 C152.319762,32.5831579 152.521996,33.4001974 152.521996,34.3315789 C152.521996,35.7796711 152.076936,36.9404605 151.190442,37.8125 C150.303223,38.6859868 148.9463,39.1165789 147.120398,39.1028289 L144.302898,39.1028289 Z" id="Fill-173" fill="#7B00FF" mask="url(#mask-2)"></path>
            <path d="M154.347536,43.4672961 L154.347536,32.3145987 L156.407565,32.3145987 L156.737373,34.9321645 C156.957728,34.0145329 157.368719,33.3320987 157.970346,32.8855855 C158.573423,32.4390724 159.39903,32.217625 160.447166,32.217625 L161.205361,32.217625 L161.205361,34.7968355 L160.098512,34.7968355 C159.657802,34.7968355 159.268556,34.8250592 158.932225,34.8836776 C158.594444,34.9415724 158.311751,35.0291382 158.077624,35.1456513 C157.611544,35.366375 157.29116,35.7311118 157.115021,36.2420329 C156.940331,36.7529539 156.853349,37.4411776 156.853349,38.3081513 L156.853349,43.4672961 L154.347536,43.4672961 Z" id="Fill-174" fill="#7B00FF" mask="url(#mask-2)"></path>
            <path d="M169.899962,40.6252434 C170.437077,40.0238618 170.705997,39.1742566 170.705997,38.0749803 L170.705997,37.8224145 C170.705997,36.6855066 170.429828,35.7989934 169.880391,35.1650461 C169.330228,34.5318224 168.594503,34.2148487 167.676115,34.2148487 C166.768601,34.2148487 166.033601,34.5224145 165.470391,35.135375 C164.905731,35.7497829 164.625213,36.6464276 164.625213,37.8224145 L164.625213,38.0749803 C164.625213,39.1742566 164.894133,40.0238618 165.431249,40.6252434 C165.968364,41.2273487 166.709888,41.5276776 167.65582,41.5276776 C168.614799,41.5276776 169.362846,41.2273487 169.899962,40.6252434 M163.48792,42.2933355 C162.510095,41.3178092 162.022269,39.9239934 162.022269,38.1140592 L162.022269,37.8224145 C162.022269,37.2014934 162.083882,36.6268882 162.205657,36.0964276 C162.329607,35.5666908 162.514444,35.0876118 162.759444,34.6606382 C163.240021,33.8074145 163.90326,33.1582697 164.751337,32.7110329 C165.599414,32.2652434 166.567092,32.0423487 167.65582,32.0423487 C168.212506,32.0423487 168.734399,32.0980724 169.219325,32.2073487 C169.704976,32.3173487 170.155109,32.4881382 170.569725,32.7218882 C171.42505,33.1741908 172.091914,33.8298487 172.571766,34.6895855 C173.050893,35.5500461 173.290095,36.5943224 173.290095,37.8224145 L173.290095,38.1140592 C173.290095,38.7219539 173.232107,39.2806382 173.11613,39.7915592 C172.998704,40.3024803 172.824015,40.7641908 172.591337,41.1781382 C172.111485,42.0183355 171.451145,42.6595197 170.608867,43.0987961 C169.766589,43.5380724 168.78224,43.7580724 167.65582,43.7580724 C165.855287,43.7580724 164.46647,43.2710329 163.48792,42.2933355" id="Fill-175" fill="#7B00FF" mask="url(#mask-2)"></path>
            <path d="M175.864407,42.7400658 C174.990235,42.0605263 174.469067,41.0748684 174.300176,39.7809211 L177.058238,39.7809211 C177.176389,40.4409211 177.464155,40.9127632 177.924436,41.1971711 C178.383268,41.4823026 179.008815,41.6241447 179.798179,41.6241447 C180.615812,41.6241447 181.197143,41.4953289 181.547247,41.2369737 C181.897351,40.9778947 182.071315,40.6290789 182.071315,40.1883553 C182.071315,40.0211842 182.035797,39.8728289 181.964762,39.7425658 C181.892277,39.61375 181.786448,39.50375 181.644377,39.4132895 C181.360235,39.2453947 180.986212,39.11875 180.526655,39.0355263 C180.067099,38.9508553 179.572025,38.8705263 179.040709,38.7923684 C178.535487,38.7142105 178.033889,38.6215789 177.535191,38.5115789 C177.036493,38.4023026 176.579111,38.2365789 176.165945,38.0165789 C175.75133,37.7973026 175.420797,37.4897368 175.174348,37.0953289 C174.928623,36.7009211 174.805398,36.1928947 174.805398,35.5719737 C174.805398,34.5508553 175.18957,33.7063158 175.961537,33.04125 C176.73133,32.3754605 177.88167,32.0425658 179.410383,32.0425658 C181.003608,32.0425658 182.190916,32.3653289 182.975206,33.0123026 C183.758771,33.6585526 184.228475,34.5385526 184.383593,35.6501316 L181.779925,35.6501316 C181.689318,35.1073684 181.453016,34.7093421 181.071744,34.4575 C180.688297,34.2049342 180.129436,34.0782895 179.390812,34.0782895 C178.599999,34.0782895 178.056359,34.2049342 177.75772,34.4575 C177.460531,34.7093421 177.311936,35.0292105 177.311936,35.4171053 C177.311936,35.5864474 177.347454,35.7340789 177.41849,35.8636184 C177.489525,35.9924342 177.596078,36.1031579 177.739599,36.1928947 C178.023741,36.3615132 178.399939,36.4874342 178.866744,36.5713816 C179.332099,36.6560526 179.830797,36.7371053 180.362114,36.8138158 C180.866611,36.89125 181.368933,36.9853289 181.867632,37.0953289 C182.36633,37.2053289 182.822987,37.3703289 183.237602,37.5903289 C183.652217,37.8096053 183.982025,38.1171711 184.228475,38.5115789 C184.4742,38.9052632 184.597425,39.4132895 184.597425,40.0342105 C184.597425,41.1067105 184.198756,41.9961184 183.402143,42.7002632 C182.606981,43.4058553 181.385605,43.7582895 179.740191,43.7582895 C178.030265,43.7582895 176.738578,43.4181579 175.864407,42.7400658" id="Fill-176" fill="#7B00FF" mask="url(#mask-2)"></path>
            <path d="M193.845595,40.645 C194.376186,40.0436184 194.642932,39.1932895 194.642932,38.0947368 L194.642932,37.8609868 C194.642932,36.6719737 194.366763,35.7666447 193.816601,35.1457237 C193.266438,34.5248026 192.556808,34.2150658 191.68771,34.2150658 C190.768598,34.2150658 190.030698,34.5414474 189.474012,35.1949342 C188.917325,35.8469737 188.638982,36.7240789 188.638982,37.8226316 L188.638982,38.0173026 C188.638982,39.0898026 188.907902,39.9466447 189.445018,40.5863816 C189.982133,41.2275658 190.711334,41.5474342 191.630447,41.5474342 C192.576379,41.5474342 193.315003,41.2463816 193.845595,40.645 M190.115506,43.1076974 C189.494308,42.7140132 189.020979,42.1806579 188.69697,41.5076316 L188.69697,47.3079605 L186.229574,47.3079605 L186.229574,32.3139474 L188.348317,32.3139474 L188.619411,34.5834211 C188.917325,33.8206579 189.389204,33.20625 190.037947,32.7401974 C190.68524,32.2755921 191.494175,32.0425658 192.466926,32.0425658 C193.917355,32.0425658 195.072044,32.5440789 195.934618,33.5456579 C196.795018,34.5479605 197.226305,35.9859211 197.226305,37.8609868 L197.226305,38.1330921 C197.226305,38.7409868 197.17484,39.3003947 197.071186,39.8105921 C196.967533,40.3222368 196.810964,40.7839474 196.604382,41.1971711 C196.203538,42.0257895 195.639604,42.6496053 194.914027,43.0693421 C194.18845,43.4890789 193.360669,43.7003947 192.427784,43.7003947 C191.507222,43.7003947 190.736704,43.5028289 190.115506,43.1076974" id="Fill-177" fill="#7B00FF" mask="url(#mask-2)"></path>
            <path d="M202.471624,34.7873553 C201.927985,35.2715 201.58513,35.9546579 201.441609,36.8332105 L207.503547,36.8332105 C207.412941,35.9799868 207.130973,35.3047895 206.65837,34.8068947 C206.185041,34.3097237 205.502956,34.0600526 204.608488,34.0600526 C203.727793,34.0600526 203.015988,34.3017632 202.471624,34.7873553 M208.057334,42.8072237 C207.157068,43.4418947 205.974834,43.7588684 204.511358,43.7588684 C202.633991,43.7588684 201.228503,43.2515658 200.295618,42.2355132 C199.362734,41.2201842 198.897379,39.8531447 198.897379,38.1336711 L198.897379,37.8615658 C198.897379,37.2674211 198.956092,36.7138026 199.072068,36.2028816 C199.188769,35.6926842 199.362734,35.2172237 199.596861,34.7779474 C200.062216,33.9116974 200.719657,33.2386711 201.569183,32.7610395 C202.415811,32.2819605 203.42408,32.0431447 204.589642,32.0431447 C205.548621,32.0431447 206.373503,32.1980132 207.066462,32.50775 C207.758695,32.8182105 208.326254,33.2386711 208.76624,33.7684079 C209.206225,34.2988684 209.530234,34.90025 209.737541,35.5725526 C209.944849,36.2455789 210.049953,36.9366974 210.049953,37.6480789 L210.049953,38.8320263 L201.422763,38.8320263 C201.526417,39.7366316 201.853325,40.4349868 202.403488,40.9270921 C202.954376,41.41775 203.689376,41.6638026 204.608488,41.6638026 C205.282601,41.6638026 205.82624,41.5335395 206.240855,41.2751842 C206.65547,41.0175526 206.959908,40.6484737 207.154169,40.1708421 L209.893385,40.1708421 C209.570101,41.2947237 208.957601,42.1754474 208.057334,42.8072237" id="Fill-178" fill="#7B00FF" mask="url(#mask-2)"></path>
            <path d="M211.933626,43.4672961 L211.933626,32.3145987 L213.993655,32.3145987 L214.323463,34.9321645 C214.543818,34.0145329 214.954809,33.3320987 215.556436,32.8855855 C216.158788,32.4390724 216.98512,32.217625 218.033981,32.217625 L218.791451,32.217625 L218.791451,34.7968355 L217.684602,34.7968355 C217.242442,34.7968355 216.855371,34.8250592 216.518315,34.8836776 C216.180534,34.9415724 215.897117,35.0291382 215.66299,35.1456513 C215.197635,35.366375 214.87725,35.7311118 214.701111,36.2420329 C214.526422,36.7529539 214.440164,37.4411776 214.440164,38.3081513 L214.440164,43.4672961 L211.933626,43.4672961 Z" id="Fill-179" fill="#7B00FF" mask="url(#mask-2)"></path>
            <path d="M220.714556,43.4666447 L223.298654,43.4666447 L223.298654,32.3139474 L220.714556,32.3139474 L220.714556,43.4666447 Z M220.733402,30.7421053 C220.47463,30.4975 220.344882,30.0575 220.344882,29.4242763 C220.344882,28.8033553 220.487678,28.3705921 220.77182,28.1245395 C221.058136,27.8784868 221.479275,27.7561842 222.035237,27.7561842 C222.593373,27.7561842 223.012337,27.8784868 223.298654,28.1245395 C223.582796,28.3705921 223.725592,28.8033553 223.725592,29.4242763 C223.725592,30.0184211 223.58642,30.4482895 223.307352,30.7138816 C223.029009,30.9780263 222.605695,31.1111842 222.035237,31.1111842 C221.427086,31.1111842 220.992899,30.9888816 220.733402,30.7421053 Z" id="Fill-180" fill="#7B00FF" mask="url(#mask-2)"></path>
            <path d="M232.448896,43.4672961 L231.011515,43.4672961 C230.493246,43.4672961 230.030065,43.4318355 229.622698,43.3609145 C229.213882,43.2892697 228.873926,43.1894013 228.601382,43.0598618 C228.04542,42.7754539 227.659799,42.310125 227.446692,41.663875 C227.232861,41.0161776 227.125583,40.1311118 227.125583,39.0050592 L227.125583,34.5638092 L224.950302,34.5638092 L224.950302,32.4108487 L225.94045,32.4108487 C226.121663,32.4108487 226.276781,32.4007171 226.40653,32.3819013 C226.536278,32.3623618 226.646456,32.3334145 226.736337,32.2943355 C226.91755,32.203875 227.048024,32.0424934 227.125583,31.8087434 C227.203867,31.5764408 227.254607,31.2341382 227.281426,30.7818355 C227.294473,30.5357829 227.303896,30.2709145 227.309695,29.9857829 C227.316219,29.701375 227.320568,29.4748618 227.320568,29.3076908 L229.496574,29.3076908 L229.496574,32.3145987 L232.448896,32.3145987 L232.448896,34.5638092 L229.496574,34.5638092 L229.496574,38.5788092 C229.496574,38.941375 229.508172,39.2612434 229.534266,39.5398618 C229.561811,39.8170329 229.599503,40.0464408 229.651692,40.2280855 C229.742299,40.5906513 229.942358,40.8258487 230.254044,40.9365724 C230.564281,41.0458487 231.030361,41.100125 231.652284,41.100125 L232.448896,41.100125 L232.448896,43.4672961 Z" id="Fill-181" fill="#7B00FF" mask="url(#mask-2)"></path>
            <path d="M233.886568,47.6376711 L233.886568,45.4268158 L235.189127,45.4268158 C235.434852,45.4268158 235.657382,45.4137895 235.858891,45.3870132 C236.059675,45.3616842 236.23074,45.3298421 236.373536,45.2907632 C236.672175,45.2003026 236.920799,45.0316842 237.121583,44.7863553 C237.322367,44.5403026 237.533299,44.1784605 237.752929,43.7001053 L237.96676,43.1761579 L233.342929,32.3143816 L236.063299,32.3143816 L239.093905,39.8595132 L239.191036,40.3646447 L239.326583,39.8790526 L242.27963,32.3143816 L244.960133,32.3143816 L240.065207,44.1075395 C239.741198,44.8833289 239.440385,45.50425 239.161317,45.9695789 C238.882249,46.4356316 238.581435,46.7909605 238.258151,47.0362895 C237.92182,47.2823421 237.510828,47.4437237 237.024453,47.5211579 C236.538077,47.5993158 235.919778,47.6376711 235.168831,47.6376711 L233.886568,47.6376711 Z" id="Fill-182" fill="#7B00FF" mask="url(#mask-2)"></path>
        </g>
    </g>
</svg>