<?xml version="1.0" encoding="UTF-8"?>
<svg width="91px" height="40px" viewBox="0 0 91 40" version="1.1" xmlns="http://www.w3.org/2000/svg" xmlns:xlink="http://www.w3.org/1999/xlink">
    <g id="Mobile" stroke="none" stroke-width="1" fill="none" fill-rule="evenodd">
        <g class="color" fill="#ffffff">
            <polygon id="Fill-153" points="87.6129032 28.806886 90.5296144 28.806886 90.5296144 13.1333333 87.6129032 13.1333333"></polygon>
            <path d="M67.5403197,24.6806281 C67.4666654,25.0472465 67.3651861,25.4023825 67.2326083,25.7468561 C67.1008489,26.0913298 66.9404462,26.4177596 66.7505817,26.7253254 C66.3553035,27.3256939 65.8217188,27.8095974 65.1490094,28.177036 C64.4762999,28.5428342 63.6423692,28.7257333 62.6480359,28.7257333 C60.7477543,28.7257333 59.2885804,28.1360272 58.2729691,26.9557947 C57.255721,25.7763825 56.7475062,23.9334482 56.7475062,21.4278123 L56.7475062,19.9104877 C56.7475062,17.4187947 57.3588371,15.5504351 58.5790437,14.3054088 C59.8000687,13.0595623 61.4703851,12.4362289 63.592448,12.4362289 C65.5369221,12.4362289 67.0460174,12.9381763 68.1213705,13.9428912 C69.1959052,14.9459658 69.776956,16.349286 69.8661596,18.1520316 L66.8602448,18.1520316 C66.8446956,17.8592289 66.8054132,17.58365 66.7391244,17.3277553 C66.6736538,17.0710404 66.5828135,16.8184263 66.4649666,16.569093 C66.2456404,16.1007728 65.9060121,15.7234921 65.444445,15.4364307 C64.9845147,15.1510096 64.3519059,15.0091193 63.547437,15.0091193 C62.2314798,15.0091193 61.2592427,15.4224877 60.6307258,16.2500447 C60.0013905,17.0784219 59.6879505,18.3357509 59.6879505,20.0203912 L59.6879505,21.3179088 C59.6724012,23.0025491 59.9760207,24.2270711 60.5971722,24.989014 C61.2175052,25.750957 62.1725563,26.1315184 63.4606886,26.1315184 C63.8690609,26.1315184 64.2389693,26.0913298 64.5679586,26.0109526 C64.8969479,25.9305754 65.1858365,25.8100096 65.4346245,25.6484351 C65.9313819,25.325286 66.2971984,24.8971544 66.5304371,24.3615798 C66.7644942,23.8276456 66.8888881,23.259264 66.9044374,22.6588956 L63.0866883,22.6588956 L63.0866883,20.173764 L69.9308117,20.173764 L69.9308117,28.3960228 L67.7596459,28.3960228 L67.5403197,24.6806281 Z" id="Fill-167"></path>
            <path d="M75.7654467,15.5955 L75.7654467,21.3990614 L78.9014841,21.3990614 C79.94001,21.3990614 80.7444789,21.1464474 81.3148907,20.6412193 C81.8853025,20.1351711 82.1709176,19.4060351 82.1709176,18.4538114 C82.1709176,17.6032895 81.8967599,16.9143421 81.3484444,16.3869693 C80.8001288,15.8595965 79.9629247,15.5955 78.8368319,15.5955 L75.7654467,15.5955 Z M75.7654467,23.8612281 L75.7654467,28.8085263 L72.9354839,28.8085263 L72.9354839,13.1333333 L78.8368319,13.1333333 C79.5381848,13.1333333 80.1773406,13.1882851 80.7559362,13.2973684 C81.3328951,13.4072719 81.8484754,13.5803289 82.3018587,13.8148991 C83.2233561,14.2545132 83.9107964,14.8737456 84.3641797,15.6725965 C84.8167446,16.4722675 85.045073,17.3982456 85.045073,18.4538114 C85.045073,20.0949825 84.5425868,21.4105439 83.5417064,22.3988553 C82.5400076,23.388807 81.0079977,23.8768114 78.946495,23.8612281 L75.7654467,23.8612281 Z" id="Fill-173"></path>
            <path d="M18.3663846,6.69947368 C18.5526831,7.14368421 18.3335707,7.64684211 17.889524,7.82578947 C17.4486529,8.00578947 16.9395076,7.79684211 16.7585016,7.35473684 C16.580142,6.91105263 16.7865523,6.40684211 17.2284819,6.22736842 C17.6746456,6.04736842 18.1837909,6.25736842 18.3663846,6.69947368 Z M18.3663846,32.2588947 C18.5526831,32.7031053 18.3335707,33.2062632 17.889524,33.3852105 C17.4486529,33.5652105 16.9395076,33.3562632 16.7585016,32.9141579 C16.580142,32.4704737 16.7865523,31.9662632 17.2284819,31.7867895 C17.6746456,31.6067895 18.1837909,31.8167895 18.3663846,32.2588947 Z M12.3770999,10.6686842 C12.7602821,10.9581579 12.8264392,11.5060526 12.5358771,11.8818421 C12.2447857,12.2539474 11.6959461,12.3265789 11.3180565,12.0339474 C10.9385792,11.7386842 10.8655417,11.2018421 11.1640427,10.8223684 C11.448783,10.4476316 12.0018567,10.3744737 12.3770999,10.6686842 Z M9.19118409,17.0813158 C9.66539842,17.1428947 10.0004181,17.5834211 9.93584878,18.0507895 C9.86863314,18.5218421 9.43358383,18.8560526 8.95672321,18.7913158 C8.48250888,18.7255263 8.15013544,18.2928947 8.21682183,17.8181579 C8.27715713,17.3481579 8.71591124,17.0165789 9.19118409,17.0813158 Z M9.65221992,24.2197368 C10.0893863,24.0355263 10.6069997,24.2555263 10.7874763,24.6923684 C10.9647774,25.1297368 10.7530746,25.6323684 10.3122035,25.8171053 C9.86180572,25.9955263 9.36112853,25.7881579 9.17747633,25.3439474 C8.99752893,24.9071053 9.20764398,24.3997368 9.65221992,24.2197368 Z M13.6449352,30.175 C13.928617,29.7934211 14.4859247,29.7255263 14.8606387,30.015 C15.2369405,30.3092105 15.3057439,30.8497368 15.0141233,31.2271053 C14.715093,31.6071053 14.1763093,31.6781579 13.794715,31.3834211 C13.4210595,31.0939474 13.3443172,30.5507895 13.6449352,30.175 Z M27.2691765,32.8811053 C27.0897584,32.4484737 27.3083416,31.9368947 27.7391568,31.7568947 C28.186379,31.579 28.690761,31.789 28.873884,32.2284737 C29.0533021,32.6737368 28.8511259,33.1758421 28.4007281,33.3584737 C27.9603863,33.5363684 27.4480654,33.3295263 27.2691765,32.8811053 Z M27.2691765,7.32189474 C27.0897584,6.88926316 27.3083416,6.37768421 27.7391568,6.19821053 C28.186379,6.01978947 28.690761,6.23084211 28.873884,6.66926316 C29.0533021,7.11452632 28.8511259,7.61663158 28.4007281,7.79926316 C27.9603863,7.97715789 27.4480654,7.77031579 27.2691765,7.32189474 Z M33.2574027,28.9136842 C32.8768669,28.6284211 32.8080634,28.0773684 33.0949208,27.7068421 C33.3923632,27.3305263 33.9343225,27.2605263 34.3148583,27.55 C34.6953941,27.8468421 34.7705487,28.3847368 34.4752232,28.7631579 C34.1862488,29.1342105 33.6358215,29.2131579 33.2574027,28.9136842 Z M36.4453826,22.5020526 C35.9754024,22.4420526 35.6377364,21.9978421 35.6959546,21.5357368 C35.7705799,21.0620526 36.1971611,20.7341579 36.674551,20.7957368 C37.1514116,20.8615263 37.4864313,21.2894211 37.4208034,21.7636316 C37.3620559,22.2320526 36.923831,22.5704737 36.4453826,22.5020526 Z M35.982759,15.3610526 C35.5455927,15.5442105 35.0285085,15.3273684 34.8453856,14.8978947 C34.6649089,14.4531579 34.877141,13.9536842 35.3206584,13.7721053 C35.774761,13.5915789 36.2749089,13.7942105 36.4569734,14.2363158 C36.6369208,14.6731579 36.4305105,15.1852632 35.982759,15.3610526 Z M31.9885618,9.412 C31.7091141,9.78515789 31.144926,9.85463158 30.7728583,9.57621053 C30.3965565,9.27568421 30.3293409,8.73726316 30.6193738,8.36094737 C30.9152285,7.97989474 31.4545414,7.90831579 31.836665,8.19673684 C32.2129668,8.48778947 32.2902383,9.03357895 31.9885618,9.412 Z M15.8115549,20.7480526 C16.2773011,20.6322632 16.7536325,20.9185789 16.8727153,21.3817368 C16.9886226,21.8454211 16.7091749,22.317 16.2386654,22.4364737 C15.7702728,22.5506842 15.2939415,22.2722632 15.1759172,21.807 C15.0600099,21.3438421 15.3394576,20.8659474 15.8115549,20.7480526 Z M29.8730684,18.8075263 C29.4073222,18.9238421 28.9288738,18.6348947 28.8113787,18.1754211 C28.6944129,17.7101579 28.9749191,17.2359474 29.4443702,17.1191053 C29.9143504,17.0048947 30.3906818,17.2838421 30.5060598,17.7485789 C30.6230256,18.2127895 30.3446364,18.6880526 29.8730684,18.8075263 Z M18.4304776,10.2351053 C18.7062206,10.7187895 18.5310365,11.343 18.0404152,11.6172105 C17.5497939,11.8914211 16.9263291,11.7203684 16.6479398,11.2335263 C16.3732554,10.7456316 16.545264,10.1251053 17.0342975,9.84773684 C17.5243895,9.57457895 18.1510299,9.74194737 18.4304776,10.2351053 Z M14.2222488,13.7065263 C14.7059898,13.9886316 14.8658254,14.6165263 14.5784389,15.1002105 C14.2915815,15.5796842 13.6691752,15.7412632 13.1812002,15.4565263 C12.699047,15.1707368 12.5360358,14.5502105 12.8207761,14.0665263 C13.106575,13.5849474 13.7353323,13.4196842 14.2222488,13.7065263 Z M12.3253915,18.8057368 C12.8853455,18.8099474 13.3399773,19.2746842 13.3320385,19.8320526 C13.3309799,20.3915263 12.8684093,20.8431053 12.3042212,20.8399474 C11.7447965,20.8315263 11.2891062,20.3767895 11.2917525,19.8157368 C11.2965158,19.2573158 11.7569694,18.7988947 12.3253915,18.8057368 Z M13.2459283,24.1647368 C13.7344326,23.8910526 14.3605437,24.0652632 14.6373452,24.5526316 C14.9130881,25.0405263 14.7384333,25.6584211 14.2504583,25.9384211 C13.761954,26.2089474 13.1358429,26.0389474 12.8590414,25.5531579 C12.5827692,25.0673684 12.7516022,24.4426316 13.2459283,24.1647368 Z M16.7393425,28.3511053 C17.0230243,27.8684737 17.6507232,27.7105789 18.1365812,27.9926842 C18.6224392,28.2774211 18.7854504,28.8979474 18.4991223,29.3847895 C18.2112064,29.8637368 17.5872124,30.0253158 17.0987081,29.7442632 C16.6133794,29.4611053 16.451956,28.8363684 16.7393425,28.3511053 Z M27.2536693,29.321 C26.9784556,28.8352105 27.1531105,28.2131053 27.6437318,27.9388947 C28.1359408,27.6636316 28.7588764,27.8336316 29.0351486,28.3220526 C29.3087745,28.8094211 29.1362367,29.4283684 28.6498494,29.7057368 C28.1602867,29.9825789 27.5357633,29.8120526 27.2536693,29.321 Z M31.4618452,25.8472632 C30.9786335,25.5646316 30.8172101,24.9372632 31.1035381,24.4562105 C31.391454,23.9741053 32.0186236,23.8114737 32.501306,24.0962105 C32.9845178,24.3835789 33.1491167,25.0062105 32.8659642,25.4883158 C32.5785776,25.9725263 31.9503494,26.1351579 31.4618452,25.8472632 Z M33.3592318,20.7491053 C32.7987485,20.7438421 32.3472922,20.2791053 32.3483508,19.7212105 C32.3557604,19.1612105 32.8156847,18.7117368 33.380402,18.7154211 C33.940356,18.7243684 34.3981634,19.1806842 34.3934001,19.7391053 C34.3881075,20.3017368 33.9281831,20.7554211 33.3592318,20.7491053 Z M32.4345667,15.3908421 C31.9502965,15.6618947 31.3241854,15.4882105 31.0452669,15.0029474 C30.771641,14.5150526 30.9441788,13.894 31.4353294,13.6182105 C31.9238337,13.3471579 32.5499448,13.5145263 32.8272755,14.0018947 C33.1030184,14.4897895 32.9320684,15.1145263 32.4345667,15.3908421 Z M28.94581,11.2070526 C28.6621282,11.6854737 28.0328416,11.8449474 27.5485713,11.5628421 C27.0600671,11.2775789 26.9028777,10.656 27.1870888,10.1723158 C27.4739461,9.69231579 28.101645,9.52863158 28.5843274,9.81073684 C29.0738902,10.0954737 29.2347844,10.7212632 28.94581,11.2070526 Z M27.9136529,4.17736842 C27.7956285,4.58263158 27.3738107,4.82578947 26.9615194,4.71052632 C26.5508159,4.60157895 26.3036529,4.17315789 26.4211479,3.76894737 C26.5333504,3.35631579 26.9615194,3.11684211 27.3738107,3.22842105 C27.7871604,3.34473684 28.0290309,3.76473684 27.9136529,4.17736842 Z M19.3918202,3.74842105 C19.4929083,4.15631579 19.2489208,4.57684211 18.8361003,4.68157895 C18.4232798,4.79 17.9945815,4.54473684 17.8919057,4.13315789 C17.7839372,3.72157895 18.0321588,3.30210526 18.4470963,3.19210526 C18.8615046,3.08842105 19.2817347,3.33315789 19.3918202,3.74842105 Z M15.3381345,5.18268421 C15.5424277,5.55057895 15.4164645,6.02057895 15.0438675,6.22742105 C14.6733876,6.439 14.196527,6.309 13.9911752,5.94057895 C13.7747091,5.57057895 13.9101989,5.10321053 14.2801496,4.88847368 C14.6532758,4.68110526 15.1227268,4.81005263 15.3381345,5.18268421 Z M11.7966637,7.61173684 C12.0888136,7.91489474 12.0877551,8.40226316 11.7823738,8.69910526 C11.4838728,8.99752632 10.9874297,8.99436842 10.6921042,8.69226316 C10.3861936,8.39015789 10.3936032,7.90278947 10.695809,7.59963158 C11.0054244,7.30226316 11.4912824,7.30910526 11.7966637,7.61173684 Z M9.00721433,10.8714211 C9.36710914,11.0856316 9.49307232,11.5556316 9.27713544,11.9245789 C9.06384484,12.2893158 8.58275016,12.4145789 8.2223261,12.1966842 C7.84867061,11.9840526 7.72905851,11.5124737 7.94076134,11.1424737 C8.16093228,10.7751053 8.63514661,10.6561579 9.00721433,10.8714211 Z M7.15947206,14.7365789 C7.56647074,14.8507895 7.81045825,15.275 7.6940217,15.6834211 C7.58499474,16.0918421 7.15206246,16.3371053 6.74771006,16.2197368 C6.33224326,16.1097368 6.09248981,15.6844737 6.19939974,15.2718421 C6.31848258,14.8602632 6.74188823,14.6239474 7.15947206,14.7365789 Z M6.38368705,18.9437368 C6.80285865,18.9521579 7.14899277,19.299 7.14475871,19.7200526 C7.14475871,20.1458421 6.79174425,20.4921579 6.36833859,20.4847895 C5.93911111,20.4847895 5.59932807,20.1363684 5.59562327,19.7100526 C5.60356213,19.2816316 5.95287179,18.9437368 6.38368705,18.9437368 Z M6.72579882,23.2087368 C7.13597304,23.1087368 7.56202498,23.3518947 7.66628863,23.7650526 C7.77584484,24.1729474 7.52444773,24.5997895 7.11586128,24.7003158 C6.69880671,24.8103158 6.27804734,24.5629474 6.1626693,24.1529474 C6.06052268,23.7371579 6.30821499,23.3197895 6.72579882,23.2087368 Z M8.16781262,27.2422105 C8.54093886,27.0385263 9.01674096,27.1648421 9.21997567,27.5337895 C9.43326627,27.9016842 9.30042275,28.3795789 8.93205983,28.5806316 C8.56052137,28.7948421 8.08683629,28.6637895 7.87248718,28.2953684 C7.66554767,27.9216842 7.79415713,27.4558947 8.16781262,27.2422105 Z M10.6125569,30.7642632 C10.9158212,30.4721579 11.4101473,30.4721579 11.7049435,30.7753158 C12.004503,31.0774211 12.0023859,31.5700526 11.6975339,31.859 C11.3942696,32.1642632 10.9047068,32.1579474 10.5982669,31.859 C10.3013537,31.5516316 10.3050585,31.0658421 10.6125569,30.7642632 Z M13.8893991,33.5394737 C14.105336,33.1789474 14.5806088,33.0515789 14.9468547,33.2689474 C15.3136298,33.4810526 15.4380053,33.9621053 15.2215391,34.3189474 C15.0082485,34.6889474 14.5340342,34.8084211 14.1593202,34.6 C13.7930743,34.3789474 13.6692281,33.9110526 13.8893991,33.5394737 Z M17.7771627,35.3744211 C17.8920115,34.9702105 18.3164757,34.7249474 18.7287669,34.8433684 C19.1389412,34.9528421 19.3839872,35.3833684 19.2649043,35.7833684 C19.1564066,36.1986316 18.7314132,36.4354737 18.3143586,36.3317895 C17.9015381,36.2112632 17.6623139,35.7896842 17.7771627,35.3744211 Z M26.2990483,35.8058947 C26.1921384,35.3990526 26.4393014,34.9748421 26.8558268,34.8706316 C27.2670595,34.7616842 27.6909944,35.0127368 27.7915533,35.4201053 C27.9048143,35.8332632 27.6608268,36.2501053 27.2432429,36.3653684 C26.8283054,36.4648421 26.4070168,36.2211579 26.2990483,35.8058947 Z M30.3522048,34.3705789 C30.1442068,34.0037368 30.2738748,33.5295263 30.6443547,33.3232105 C31.0132469,33.1132105 31.4916953,33.2479474 31.6981055,33.6137368 C31.9161594,33.9826842 31.7817281,34.4500526 31.4112482,34.6663684 C31.0354757,34.8700526 30.5649661,34.7453158 30.3522048,34.3705789 Z M33.8936755,31.9407368 C33.5967623,31.6375789 33.5994086,31.1502105 33.9047899,30.8544211 C34.2080542,30.5570526 34.7023803,30.5602105 34.9971765,30.8638947 C35.3025579,31.1649474 35.294619,31.6491579 34.9945302,31.956 C34.6827978,32.2486316 34.1964106,32.2486316 33.8936755,31.9407368 Z M36.6841305,28.6803158 C36.3200016,28.4682105 36.1935092,27.994 36.4110339,27.6297895 C36.6275,27.2645263 37.1070069,27.1408421 37.4669017,27.3582105 C37.842145,27.5697895 37.9617571,28.0387368 37.7500542,28.414 C37.5277663,28.7766316 37.055669,28.9008421 36.6841305,28.6803158 Z M38.5277446,24.817 C38.1196874,24.7022632 37.8783462,24.2785789 37.9942535,23.8712105 C38.1053974,23.4627895 38.5367419,23.2206842 38.9432114,23.3348947 C39.3565611,23.4448947 39.5968439,23.8664737 39.4904632,24.2817368 C39.3671463,24.6922632 38.9453284,24.9338421 38.5277446,24.817 Z M39.3045881,20.6082632 C38.8817117,20.6035263 38.5403409,20.2561579 38.5429872,19.8351053 C38.5440457,19.4093158 38.8975894,19.0635263 39.3225828,19.073 C39.7496933,19.0672105 40.0900056,19.4156316 40.0958274,19.8440526 C40.0841838,20.2708947 39.7396374,20.613 39.3045881,20.6082632 Z M38.9629527,16.3414737 C38.5506614,16.4488421 38.127785,16.2004211 38.0208751,15.7904211 C37.9129066,15.3814737 38.1637745,14.9551579 38.5734195,14.8551579 C38.9920618,14.7425263 39.4085871,14.9909474 39.5250237,15.4025263 C39.6276995,15.8188421 39.3805365,16.2372632 38.9629527,16.3414737 Z M37.5188748,12.3103158 C37.1499826,12.5197895 36.6768268,12.3876842 36.4677702,12.0208421 C36.2555381,11.654 36.3899694,11.1766316 36.7588616,10.9761053 C37.1288123,10.7566316 37.5966755,10.8897895 37.8194928,11.2566316 C38.0248445,11.6350526 37.8951765,12.1008421 37.5188748,12.3103158 Z M35.0746598,8.78878947 C34.7740417,9.08457895 34.2818327,9.08089474 33.9854487,8.77721053 C33.6843014,8.47773684 33.6880062,7.98405263 33.9939168,7.69405263 C34.2955934,7.38668421 34.7793343,7.39773684 35.0905375,7.69247368 C35.3885092,8.00405263 35.3858629,8.48984211 35.0746598,8.78878947 Z M31.7993524,6.01636842 C31.582357,6.37742105 31.1060256,6.50057895 30.740309,6.28742105 C30.3756509,6.07636842 30.250217,5.59636842 30.4703879,5.23689474 C30.6810322,4.86426316 31.1504832,4.74636842 31.5262558,4.95321053 C31.897265,5.17531579 32.0216404,5.64636842 31.7993524,6.01636842 Z M16.2932847,1.97673684 C16.4472985,2.33305263 16.2657633,2.74568421 15.906927,2.892 C15.5512663,3.032 15.1395043,2.862 14.9934293,2.50410526 C14.8462959,2.14568421 15.0161874,1.73673684 15.3781992,1.59094737 C15.738094,1.44515789 16.1408586,1.61936842 16.2932847,1.97673684 Z M11.8835148,4.26884211 C12.124856,4.57673684 12.0576404,5.01726316 11.7485542,5.25252632 C11.4415851,5.47936842 10.9980677,5.42305263 10.7641361,5.11305263 C10.5296752,4.80463158 10.5873642,4.36726316 10.8990966,4.13042105 C11.2092413,3.89778947 11.6421736,3.96568421 11.8835148,4.26884211 Z M8.2221144,7.62052632 C8.53437607,7.85368421 8.585714,8.29631579 8.34754832,8.60526316 C8.10779487,8.90157895 7.66745299,8.95894737 7.36154241,8.72052632 C7.05404405,8.48473684 6.99265023,8.04631579 7.23610848,7.74 C7.47215713,7.43631579 7.9077357,7.38578947 8.2221144,7.62052632 Z M5.55566437,11.7978947 C5.91873471,11.9421053 6.0828044,12.3584211 5.9324954,12.7184211 C5.78218639,13.0652632 5.36830736,13.2347368 5.01052959,13.0826316 C4.65381032,12.9331579 4.480214,12.5252632 4.63581558,12.1668421 C4.78453682,11.8142105 5.19418179,11.6515789 5.55566437,11.7978947 Z M4.06659961,16.5200526 C4.45666206,16.5663684 4.72446614,16.9258421 4.67206969,17.3095263 C4.61543918,17.6853158 4.26189546,17.9553158 3.8792426,17.9005789 C3.49182643,17.8495263 3.21872978,17.5000526 3.272714,17.1132105 C3.32775674,16.7316316 3.68024195,16.4716316 4.06659961,16.5200526 Z M3.85934254,21.4640526 C4.2457002,21.4087895 4.5981854,21.6856316 4.64793557,22.0714211 C4.69345168,22.4487895 4.42088429,22.8008947 4.03558514,22.8456316 C3.64922748,22.8966842 3.29356673,22.6272105 3.24910914,22.2414211 C3.20041749,21.8593158 3.47192636,21.5161579 3.85934254,21.4640526 Z M4.94474293,26.2921053 C5.30463774,26.1410526 5.71957528,26.3173684 5.86406246,26.6736842 C6.00749112,27.0305263 5.83548258,27.4389474 5.47611703,27.5836842 C5.11622222,27.7310526 4.7023432,27.5626316 4.55785602,27.2021053 C4.41019329,26.8457895 4.5827311,26.4426316 4.94474293,26.2921053 Z M7.24833432,30.6781579 C7.56006673,30.4371053 8.00411341,30.5023684 8.23698652,30.8097368 C8.47091815,31.1155263 8.40952433,31.5560526 8.09885043,31.7871053 C7.79029356,32.0228947 7.34730539,31.9681579 7.11125674,31.6560526 C6.87785437,31.3481579 6.94189448,30.915 7.24833432,30.6781579 Z M10.6172143,34.3204737 C10.853263,34.0078421 11.3026022,33.9562632 11.6074543,34.1931053 C11.9123064,34.4273158 11.9673491,34.8694211 11.7275957,35.1741579 C11.4931348,35.4783684 11.0480296,35.5399474 10.7394727,35.2988947 C10.4340914,35.0641579 10.3827535,34.6299474 10.6172143,34.3204737 Z M14.8181923,36.9711053 C14.9632087,36.6105789 15.3855559,36.4437368 15.7417459,36.5942632 C16.0963481,36.7432105 16.2646519,37.1558421 16.1122258,37.5100526 C15.9656216,37.8674211 15.5528011,38.039 15.1913185,37.8858421 C14.8356578,37.7358421 14.6726466,37.3300526 14.8181923,36.9711053 Z M29.3975838,37.5796316 C29.2398652,37.2206842 29.4208711,36.8064737 29.7802367,36.6612105 C30.1385437,36.5185789 30.5487179,36.6906842 30.6937344,37.0506842 C30.8435141,37.4059474 30.6730934,37.817 30.3084352,37.9643684 C29.9506575,38.1091053 29.5494806,37.9354211 29.3975838,37.5796316 Z M33.8073537,35.2870526 C33.5638955,34.9791579 33.6284648,34.5344211 33.9386095,34.3012632 C34.2492834,34.0686316 34.6901545,34.1328421 34.9209106,34.4423158 C35.1580178,34.7465263 35.102975,35.1870526 34.7885963,35.4244211 C34.4800394,35.6549474 34.0460487,35.5912632 33.8073537,35.2870526 Z M37.4708182,31.9366316 C37.1564395,31.7034737 37.101926,31.2550526 37.342738,30.9513684 C37.5803744,30.6471579 38.0207163,30.594 38.3260976,30.8324211 C38.6351838,31.0650526 38.6949898,31.5082105 38.4541778,31.8155789 C38.2144244,32.1192632 37.7804336,32.1676842 37.4708182,31.9366316 Z M40.1356805,27.7577368 C39.7710224,27.6135263 39.6043064,27.1945789 39.7551446,26.8393158 C39.9065122,26.4835263 40.3188034,26.3193158 40.6749934,26.4735263 C41.0338297,26.6182632 41.2063675,27.0277368 41.0544707,27.3882632 C40.9036325,27.7435263 40.4966338,27.9035263 40.1356805,27.7577368 Z M41.6226811,23.0355263 C41.2347357,22.9892105 40.9642853,22.6276316 41.017211,22.2465789 C41.0717245,21.8634211 41.4257975,21.6002632 41.8105674,21.6534211 C42.1942788,21.7028947 42.4700217,22.055 42.4165667,22.4423684 C42.3609947,22.8228947 42.0085095,23.0828947 41.6226811,23.0355263 Z M41.8330079,18.0920526 C41.4455917,18.1462632 41.089931,17.8688947 41.0417686,17.4846842 C40.995194,17.1020526 41.2688199,16.7541579 41.654119,16.7104737 C42.0357133,16.6567895 42.3950789,16.9246842 42.442712,17.3141579 C42.4882281,17.6957368 42.2188363,18.0367895 41.8330079,18.0920526 Z M40.7450671,13.2622105 C40.3862308,13.4169474 39.9697055,13.2374737 39.8252183,12.8774737 C39.6786141,12.5206316 39.8548567,12.1169474 40.2152807,11.9737895 C40.5730585,11.8253684 40.9853498,11.9916842 41.134071,12.3543158 C41.2796167,12.7106316 41.1028448,13.1101053 40.7450671,13.2622105 Z M38.4414227,8.87794737 C38.1318074,9.119 37.6835266,9.05215789 37.4527705,8.74426316 C37.2177804,8.43478947 37.280762,8.00005263 37.5924944,7.76794737 C37.896288,7.53268421 38.3419224,7.58689474 38.5790296,7.90163158 C38.8108442,8.20794737 38.7457456,8.63847368 38.4414227,8.87794737 Z M35.0746598,5.23231579 C34.8375526,5.54547368 34.3866256,5.59968421 34.0838905,5.36021053 C33.7748044,5.12284211 33.7234665,4.68652632 33.9642784,4.38126316 C34.1982101,4.07652632 34.6396105,4.01284211 34.9508136,4.25442105 C35.2556657,4.49178947 35.3038281,4.92494737 35.0746598,5.23231579 Z M30.8716177,2.58142105 C30.7266012,2.94457895 30.3053126,3.11089474 29.9480641,2.95773684 C29.5902863,2.80773684 29.4272751,2.39984211 29.5797012,2.04352632 C29.7247176,1.68931579 30.1343626,1.51457895 30.49955,1.66615789 C30.8536229,1.81826316 31.0139878,2.22510526 30.8716177,2.58142105 Z M12.1780993,0.352052632 C12.3326423,0.634157895 12.2357883,0.988368421 11.9536943,1.14626316 C11.6774221,1.30363158 11.3132932,1.20784211 11.1571624,0.928894737 C10.9962682,0.646789474 11.0962978,0.291 11.3757456,0.133105263 C11.6594274,-0.0268947368 12.0193222,0.0694210526 12.1780993,0.352052632 Z M3.83917784,8.25652632 C4.11439152,8.426 4.21124556,8.78073684 4.04505884,9.05494737 C3.88469395,9.33073684 3.52215286,9.42863158 3.24535141,9.26389474 C2.96484517,9.10073684 2.87328369,8.74284211 3.03364859,8.466 C3.19930605,8.186 3.55973011,8.09284211 3.83917784,8.25652632 Z M0.594408613,19.2495789 C0.915667653,19.258 1.17870842,19.5185263 1.1739451,19.838 C1.17182807,20.1564211 0.90719954,20.4211579 0.584881986,20.4169474 C0.259388889,20.4127368 0.000582182774,20.1501053 5.29257068e-05,19.8306316 C0.00534549638,19.5058947 0.267857002,19.2448421 0.594408613,19.2495789 Z M3.30992078,30.3826316 C3.59201479,30.23 3.9519096,30.3252632 4.10751118,30.6036842 C4.26417127,30.8815789 4.16943425,31.2426316 3.88786949,31.3968421 C3.60524622,31.5573684 3.24852696,31.4573684 3.08657429,31.1810526 C2.92885569,30.8973684 3.02570973,30.5405263 3.30992078,30.3826316 Z M11.2591502,38.6738947 C11.4263955,38.4007368 11.7841732,38.306 12.0604454,38.4707368 C12.3346006,38.6307368 12.4378057,38.9907368 12.2710897,39.266 C12.1054323,39.5433684 11.7471252,39.6344211 11.4682068,39.476 C11.186642,39.3096842 11.0924343,38.9523158 11.2591502,38.6738947 Z M33.5081118,39.2015263 C33.3525102,38.9204737 33.450952,38.5646842 33.7282827,38.4094211 C34.0082597,38.2525789 34.3729178,38.3457368 34.5279901,38.6252105 C34.6878258,38.9078421 34.5899132,39.261 34.3109947,39.4246842 C34.0262544,39.581 33.6658304,39.4841579 33.5081118,39.2015263 Z M41.8449162,31.2957368 C41.5691732,31.131 41.473907,30.7720526 41.6406229,30.5004737 C41.8009878,30.2257368 42.1629997,30.1241579 42.4398011,30.2894211 C42.7192488,30.4546842 42.8134566,30.8099474 42.6520332,31.0883684 C42.4842587,31.3662632 42.1227761,31.4625789 41.8449162,31.2957368 Z M45.0907439,20.3037368 C44.7694849,20.2984737 44.5080319,20.0353158 44.5122659,19.7174211 C44.5133245,19.4000526 44.7768945,19.1316316 45.1007998,19.1363684 C45.4236466,19.1405789 45.6845703,19.4021579 45.6850996,19.7237368 C45.679807,20.0474211 45.416237,20.3105789 45.0907439,20.3037368 Z M42.3757081,9.17247368 C42.0941433,9.32721053 41.7337193,9.22878947 41.5791762,8.95089474 C41.4214576,8.67352632 41.5156654,8.31089474 41.7972301,8.15510526 C42.0787949,7.99826316 42.4371019,8.09563158 42.5985253,8.37405263 C42.7573024,8.65563158 42.6604484,9.01510526 42.3757081,9.17247368 Z M34.4260023,0.880421053 C34.2592863,1.15252632 33.90045,1.24936842 33.6257656,1.08568421 C33.3489642,0.923578947 33.2494638,0.563578947 33.4151213,0.289368421 C33.5786617,0.0109473684 33.9390858,-0.0816842105 34.2185335,0.0783157895 C34.497452,0.244105263 34.5932475,0.603578947 34.4260023,0.880421053 Z" id="Combined-Shape"></path>
        </g>
    </g>
</svg>