<?xml version="1.0" encoding="UTF-8"?>
<svg width="245px" height="55px" viewBox="0 0 245 55" version="1.1" xmlns="http://www.w3.org/2000/svg" xmlns:xlink="http://www.w3.org/1999/xlink">
    <g id="DesktopSmall-" stroke="none" stroke-width="1" fill="none" fill-rule="evenodd">
        <g class="color" fill="#ffffff">
            <path d="M25.1539615,9.21177632 C25.4091095,9.82256579 25.1090207,10.5144079 24.5008698,10.7604605 C23.897068,11.0079605 23.1997604,10.7206579 22.9518609,10.1127632 C22.7075858,9.50269737 22.9902781,8.80940789 23.5955296,8.56263158 C24.2065799,8.31513158 24.9038876,8.60388158 25.1539615,9.21177632 Z M25.1539615,44.3559803 C25.4091095,44.9667697 25.1090207,45.6586118 24.5008698,45.9046645 C23.897068,46.1521645 23.1997604,45.8648618 22.9518609,45.2569671 C22.7075858,44.6469013 22.9902781,43.9536118 23.5955296,43.7068355 C24.2065799,43.4593355 24.9038876,43.7480855 25.1539615,44.3559803 Z M16.9512456,14.6694408 C17.4760385,15.0674671 17.566645,15.8208224 17.1687012,16.3375329 C16.7700325,16.8491776 16.0183609,16.9490461 15.5008166,16.5466776 C14.9810976,16.1406908 14.881068,15.4025329 15.2898846,14.8807566 C15.679855,14.3654934 16.4373254,14.2649013 16.9512456,14.6694408 Z M12.587926,23.4868092 C13.2373935,23.5714803 13.6962249,24.1772039 13.6077929,24.8198355 C13.5157367,25.4675329 12.9199083,25.9270724 12.2668166,25.8380592 C11.6173491,25.7475987 11.162142,25.1527303 11.2534734,24.4999671 C11.3361065,23.8537171 11.9370089,23.3977961 12.587926,23.4868092 Z M13.2193447,33.3021382 C13.8180725,33.0488487 14.5269778,33.3513487 14.7741524,33.9520066 C15.0169778,34.5533882 14.727037,35.2445066 14.1232352,35.4985197 C13.5063861,35.7438487 12.820676,35.4587171 12.5691524,34.8479276 C12.3227027,34.2472697 12.6104689,33.5496382 13.2193447,33.3021382 Z M18.6876287,41.490625 C19.0761494,40.9659539 19.8394186,40.8725987 20.3526139,41.270625 C20.8679837,41.6751645 20.9622145,42.4183882 20.562821,42.9372697 C20.1532796,43.4597697 19.4153802,43.5574671 18.8927618,43.1522039 C18.3810163,42.7541776 18.2759127,42.0073355 18.6876287,41.490625 Z M37.3469157,45.2115197 C37.1011908,44.6166513 37.4005547,43.9132303 37.9905843,43.6657303 C38.6030843,43.421125 39.2938683,43.709875 39.5446672,44.3141513 C39.790392,44.9263882 39.5134985,45.6167829 38.8966494,45.8679013 C38.2935725,46.1125066 37.5919157,45.8280987 37.3469157,45.2115197 Z M37.3469157,10.0676053 C37.1011908,9.47273684 37.4005547,8.76931579 37.9905843,8.52253947 C38.6030843,8.27721053 39.2938683,8.56740789 39.5446672,9.17023684 C39.790392,9.78247368 39.5134985,10.4728684 38.8966494,10.7239868 C38.2935725,10.9685921 37.5919157,10.6841842 37.3469157,10.0676053 Z M45.548182,39.7563158 C45.0270133,39.3640789 44.9327825,38.6063816 45.3256524,38.0969079 C45.7330192,37.5794737 46.4752678,37.4832237 46.9964364,37.88125 C47.517605,38.2894079 47.620534,39.0290132 47.2160666,39.5493421 C46.8202973,40.0595395 46.0664512,40.1680921 45.548182,39.7563158 Z M49.9143284,30.9403224 C49.2706598,30.8578224 48.8082041,30.2470329 48.8879379,29.6116382 C48.990142,28.9603224 49.5743728,28.5094671 50.2281893,28.5941382 C50.8812811,28.6845987 51.3401124,29.2729539 51.2502308,29.9249934 C51.1697722,30.5690724 50.5695947,31.0344013 49.9143284,30.9403224 Z M49.2807352,21.1214474 C48.6820074,21.3732895 47.9738269,21.0751316 47.7230281,20.4846053 C47.4758536,19.8730921 47.7665192,19.1863158 48.3739453,18.9366447 C48.9958683,18.6884211 49.6808536,18.9670395 49.9302027,19.5749342 C50.1766524,20.1755921 49.8939601,20.8797368 49.2807352,21.1214474 Z M43.8104216,12.9415 C43.4276997,13.4545921 42.6550074,13.5501184 42.1454364,13.1672895 C41.6300666,12.7540658 41.5380104,12.0137368 41.9352293,11.4963026 C42.3404216,10.9723553 43.0790459,10.8739342 43.6023891,11.2705132 C44.1177589,11.6707105 44.2235873,12.4211711 43.8104216,12.9415 Z M21.6549556,28.5285724 C22.2928254,28.3693618 22.9451923,28.7630461 23.108284,29.3998882 C23.2670266,30.0374539 22.8843047,30.685875 22.2399112,30.8501513 C21.5984172,31.0071908 20.9460503,30.6243618 20.7844083,29.984625 C20.6256657,29.3477829 21.0083876,28.6906776 21.6549556,28.5285724 Z M40.9131154,25.8603487 C40.2752456,26.0202829 39.6199793,25.6229803 39.4590621,24.9912039 C39.2988698,24.3514671 39.6830414,23.6994276 40.3259852,23.5387697 C40.9696538,23.3817303 41.6220207,23.7652829 41.7800385,24.4042961 C41.9402308,25.0425855 41.5589586,25.6960724 40.9131154,25.8603487 Z M25.2417411,14.0732697 C25.6193891,14.7383355 25.379463,15.596625 24.7075251,15.9736645 C24.0355873,16.3507039 23.1817115,16.1155066 22.8004393,15.4460987 C22.4242411,14.7752434 22.659818,13.9220197 23.3295814,13.5406382 C24.0007944,13.1650461 24.8590192,13.3951776 25.2417411,14.0732697 Z M19.4782973,18.8464737 C20.1408121,19.2343684 20.3597175,20.0977237 19.9661228,20.7627895 C19.573253,21.4220658 18.7208269,21.6442368 18.0525133,21.2527237 C17.3921731,20.8597632 17.1689186,20.0065395 17.5588891,19.3414737 C17.9503092,18.6793026 18.8114334,18.4520658 19.4782973,18.8464737 Z M16.8804275,25.8578882 C17.647321,25.8636776 18.2699689,26.5026908 18.2590962,27.2690724 C18.2576464,28.0383487 17.6241257,28.6592697 16.8514334,28.6549276 C16.0852648,28.6433487 15.4611672,28.0180855 15.4647914,27.2466382 C15.4713151,26.4788092 16.1019364,25.8484803 16.8804275,25.8578882 Z M18.1411627,33.2265132 C18.8102012,32.8501974 19.6677012,33.0897368 20.0467988,33.7598684 C20.4244467,34.4307237 20.1852456,35.2803289 19.516932,35.6653289 C18.8478935,36.0373026 17.9903935,35.8035526 17.6112959,35.1355921 C17.2329231,34.4676316 17.4641509,33.6086184 18.1411627,33.2265132 Z M22.9256213,38.9827697 C23.314142,38.3191513 24.1738166,38.1020461 24.8392308,38.4899408 C25.504645,38.8814539 25.7278994,39.7346776 25.3357544,40.4040855 C24.9414349,41.0626382 24.0868343,41.2848092 23.4177959,40.8983618 C22.7531065,40.5090197 22.5320266,39.6500066 22.9256213,38.9827697 Z M37.3256775,40.316375 C36.9487544,39.6484145 37.1879556,38.7930197 37.8598935,38.4159803 C38.5340059,38.0374934 39.3871568,38.2712434 39.7655296,38.9428224 C40.1402781,39.6129539 39.9039763,40.4640066 39.2378373,40.8453882 C38.5673491,41.2260461 37.7120237,40.9915724 37.3256775,40.316375 Z M43.0890488,35.5399868 C42.4272589,35.1513684 42.206179,34.2887368 42.598324,33.6272895 C42.9926435,32.9643947 43.8515932,32.7407763 44.5126583,33.1322895 C45.1744482,33.5274211 45.3998772,34.3835395 45.0120814,35.0464342 C44.6184867,35.7122237 43.7580873,35.9358421 43.0890488,35.5399868 Z M45.6876435,28.5300197 C44.9200251,28.5227829 44.3017263,27.8837697 44.303176,27.1166645 C44.313324,26.3466645 44.9432204,25.7286382 45.7166376,25.7337039 C46.4835311,25.7460066 47.1105281,26.3734408 47.1040044,27.1412697 C47.0967559,27.9148882 46.4668595,28.5387039 45.6876435,28.5300197 Z M44.4212544,21.1624079 C43.7580148,21.5351053 42.9005148,21.2962895 42.5185178,20.6290526 C42.1437692,19.9581974 42.380071,19.10425 43.0527337,18.7250395 C43.7217722,18.3523421 44.5792722,18.5824737 44.9590947,19.2526053 C45.3367426,19.9234605 45.1026154,20.7824737 44.4212544,21.1624079 Z M39.6431746,15.4096974 C39.2546538,16.0675263 38.3928047,16.2868026 37.7295651,15.8989079 C37.0605266,15.5066711 36.8452456,14.652 37.2344911,13.9869342 C37.6273609,13.3269342 38.4870355,13.1018684 39.1481006,13.4897632 C39.8185888,13.8812763 40.0389438,14.7417368 39.6431746,15.4096974 Z M38.229568,5.74388158 C38.067926,6.30111842 37.4902189,6.63546053 36.9255592,6.47697368 C36.363074,6.32717105 36.024568,5.73809211 36.1854852,5.18230263 C36.3391538,4.61493421 36.9255592,4.28565789 37.4902189,4.43907895 C38.0563284,4.59901316 38.3875858,5.17651316 38.229568,5.74388158 Z M26.5583624,5.15407895 C26.6968092,5.71493421 26.3626524,6.29315789 25.7972678,6.43717105 C25.2318831,6.58625 24.644753,6.24901316 24.5041317,5.68309211 C24.3562618,5.11717105 24.6962175,4.54039474 25.2645015,4.38914474 C25.8320607,4.24657895 26.4075932,4.58309211 26.5583624,5.15407895 Z M21.0065754,7.12619079 C21.2863683,7.63204605 21.1138536,8.27829605 20.6035577,8.56270395 C20.0961612,8.853625 19.4430695,8.674875 19.1618269,8.16829605 C18.8653624,7.65954605 19.0509246,7.01691447 19.5575962,6.72165132 C20.0686169,6.43651974 20.7115607,6.61382237 21.0065754,7.12619079 Z M16.1563003,10.4661382 C16.5564186,10.8829803 16.5549689,11.5531118 16.1367293,11.9612697 C15.7279127,12.3715987 15.0480015,12.3672566 14.643534,11.9518618 C14.2245695,11.5364671 14.2347175,10.8663355 14.648608,10.4494934 C15.0726464,10.0406118 15.7380607,10.0500197 16.1563003,10.4661382 Z M12.3359675,14.9482039 C12.8288669,15.2427434 13.0013817,15.8889934 12.705642,16.3962961 C12.4135266,16.8978092 11.7546361,17.0700461 11.2610118,16.7704408 C10.7492663,16.4780724 10.5854497,15.8296513 10.8753905,15.3209013 C11.176929,14.8157697 11.8263964,14.6522171 12.3359675,14.9482039 Z M9.80536391,20.2627961 C10.3627751,20.4198355 10.696932,21.003125 10.5374645,21.5647039 C10.388145,22.1262829 9.79521598,22.4635197 9.24142899,22.3021382 C8.67242012,22.1508882 8.34406213,21.5661513 8.49048225,20.9987829 C8.65357396,20.4328618 9.23345562,20.1079276 9.80536391,20.2627961 Z M8.74287574,26.0476382 C9.31695858,26.0592171 9.79101183,26.536125 9.78521302,27.1150724 C9.78521302,27.7005329 9.30173669,28.1767171 8.72185503,28.1665855 C8.134,28.1665855 7.66864497,27.6875066 7.66357101,27.1013224 C7.67444379,26.5122434 8.15284615,26.0476382 8.74287574,26.0476382 Z M9.21142012,31.9120132 C9.77318047,31.7745132 10.3566864,32.1088553 10.4994822,32.6769474 C10.6495266,33.2378026 10.3052219,33.8247105 9.74563609,33.9629342 C9.17445266,34.1141842 8.59819527,33.7740526 8.44017751,33.2103026 C8.30028107,32.6385921 8.63951183,32.0647105 9.21142012,31.9120132 Z M11.1863521,37.4580395 C11.6973728,37.1779737 12.3490148,37.3516579 12.627358,37.8589605 C12.9194734,38.3648158 12.7375355,39.0219211 12.2330385,39.2983684 C11.7241923,39.5929079 11.0754497,39.4127105 10.7818846,38.9061316 C10.4984675,38.3923158 10.6746065,37.7518553 11.1863521,37.4580395 Z M14.5345888,42.3008618 C14.949929,41.8992171 15.6269408,41.8992171 16.0306834,42.3160592 C16.4409497,42.7314539 16.4380503,43.4088224 16.0205355,43.806125 C15.6051953,44.2258618 14.9347071,44.2171776 14.5150178,43.806125 C14.1083757,43.3834934 14.1134497,42.7155329 14.5345888,42.3008618 Z M19.0224379,46.1167763 C19.3181775,45.6210526 19.9690947,45.4459211 20.4706923,45.7448026 C20.9730148,46.0364474 21.143355,46.6978947 20.8468905,47.1885526 C20.5547751,47.6973026 19.9053077,47.8615789 19.3921124,47.575 C18.8905148,47.2710526 18.7208994,46.6276974 19.0224379,46.1167763 Z M24.3469837,48.6398289 C24.5042766,48.0840395 25.085608,47.7468026 25.6502678,47.9096316 C26.2120281,48.0601579 26.5476346,48.6521316 26.3845429,49.2021316 C26.2359482,49.7731184 25.653892,50.0987763 25.0827086,49.9562105 C24.517324,49.7904868 24.1896908,49.2108158 24.3469837,48.6398289 Z M36.0182618,49.2331053 C35.8718417,48.6736974 36.2103476,48.0904079 36.7808062,47.9471184 C37.3440163,47.7973158 37.9246228,48.1425132 38.0623447,48.7026447 C38.217463,49.2707368 37.8833062,49.8438947 37.3113979,50.0023816 C36.7431139,50.1391579 36.1661317,49.8040921 36.0182618,49.2331053 Z M41.569324,47.2595461 C41.2844571,46.7551382 41.4620459,46.1030987 41.9694423,45.8194145 C42.4746642,45.5306645 43.1299305,45.7159276 43.4126228,46.2188882 C43.7112618,46.7261908 43.5271494,47.3688224 43.019753,47.6662566 C42.505108,47.9463224 41.8607145,47.7748092 41.569324,47.2595461 Z M46.4195991,43.9185132 C46.0129571,43.5016711 46.0165814,42.8315395 46.434821,42.4248289 C46.8501612,42.0159474 47.5271731,42.0202895 47.9309157,42.4378553 C48.3491553,42.8518026 48.3382825,43.5175921 47.9272914,43.9395 C47.5003536,44.3418684 46.8342145,44.3418684 46.4195991,43.9185132 Z M50.2413092,39.4354342 C49.7426109,39.1437895 49.5693713,38.49175 49.8672855,37.9909605 C50.16375,37.4887237 50.820466,37.3186579 51.3133654,37.6175395 C51.8272855,37.9084605 51.9911021,38.5532632 51.7011612,39.06925 C51.3967234,39.5678684 50.7501553,39.7386579 50.2413092,39.4354342 Z M52.7662589,34.123375 C52.2073979,33.9656118 51.8768654,33.3830461 52.035608,32.8229145 C52.1878269,32.2613355 52.7785814,31.9284408 53.3352678,32.0854803 C53.9013772,32.2367303 54.2304601,32.8164013 54.0847648,33.3873882 C53.9158743,33.9518618 53.3381672,34.2840329 52.7662589,34.123375 Z M53.8301967,28.3363618 C53.2510399,28.3298487 52.7835104,27.8522171 52.7871346,27.2732697 C52.7885843,26.6878092 53.2727855,26.2123487 53.8548417,26.225375 C54.4397973,26.2174145 54.9058772,26.6964934 54.9138506,27.2855724 C54.8979038,27.8724803 54.4260251,28.342875 53.8301967,28.3363618 Z M53.3623047,22.4695263 C52.797645,22.6171579 52.2184882,22.2755789 52.072068,21.7118289 C51.9241982,21.1495263 52.2677781,20.5633421 52.8288136,20.4258421 C53.4021716,20.2709737 53.9726302,20.6125526 54.1320976,21.1784737 C54.2727189,21.7509079 53.934213,22.3262368 53.3623047,22.4695263 Z M51.3845459,16.9266842 C50.879324,17.2147105 50.2313062,17.0330658 49.9449896,16.5286579 C49.654324,16.02425 49.8384364,15.3678684 50.3436583,15.0921447 C50.8503299,14.7903684 51.4910991,14.9734605 51.7962618,15.4778684 C52.0775044,15.9981974 51.8999157,16.6386579 51.3845459,16.9266842 Z M48.037034,12.0845855 C47.625318,12.4912961 46.9512056,12.4862303 46.5452885,12.0686645 C46.1328476,11.6568882 46.1379216,10.9780724 46.5568861,10.5793224 C46.9700518,10.1566908 47.6325666,10.1718882 48.0587796,10.5771513 C48.4668713,11.0055724 48.463247,11.6735329 48.037034,12.0845855 Z M43.551287,8.27250658 C43.2540976,8.76895395 42.6017308,8.93829605 42.100858,8.64520395 C41.6014349,8.35500658 41.429645,7.69500658 41.7311834,7.20073026 C42.0196746,6.68836184 42.6626183,6.52625658 43.1772633,6.81066447 C43.6853846,7.11605921 43.8557249,7.76375658 43.551287,8.27250658 Z M22.314716,2.71801316 C22.5256479,3.20794737 22.2770237,3.77531579 21.785574,3.9765 C21.2984734,4.169 20.7345385,3.93525 20.5344793,3.44314474 C20.3329704,2.95031579 20.5656479,2.38801316 21.0614467,2.18755263 C21.5543462,1.98709211 22.1059586,2.22663158 22.314716,2.71801316 Z M16.2752485,5.86965789 C16.6057811,6.29301316 16.5137249,6.89873684 16.0904112,7.22222368 C15.669997,7.53413158 15.062571,7.45669737 14.7421864,7.03044737 C14.4210769,6.60636842 14.5000858,6.00498684 14.9270237,5.67932895 C15.351787,5.35946053 15.944716,5.45281579 16.2752485,5.86965789 Z M11.2607219,10.4782237 C11.6883846,10.7988158 11.7586953,11.4074342 11.4325118,11.8322368 C11.1041538,12.2396711 10.5010769,12.3185526 10.0821124,11.9907237 C9.66097337,11.6665132 9.57689053,11.0636842 9.91032249,10.6425 C10.2336065,10.2249342 10.8301598,10.1554605 11.2607219,10.4782237 Z M7.60884467,16.2221053 C8.1060932,16.4203947 8.33079734,16.9928289 8.12493935,17.4878289 C7.91908136,17.9647368 7.35224704,18.1977632 6.86224704,17.9886184 C6.37369675,17.7830921 6.13594527,17.2222368 6.34905178,16.7294079 C6.55273521,16.2445395 7.11377071,16.0209211 7.60884467,16.2221053 Z M5.56947337,22.7150724 C6.10368935,22.7787566 6.4704645,23.2730329 6.39870414,23.8005987 C6.32114497,24.3173092 5.83694379,24.6885592 5.31287574,24.6132961 C4.78228402,24.5430987 4.40826036,24.0625724 4.48219527,23.5306645 C4.55757988,23.0059934 5.04033136,22.6484934 5.56947337,22.7150724 Z M5.2856213,29.5130724 C5.81476331,29.4370855 6.29751479,29.8177434 6.36565089,30.3482039 C6.42798817,30.8670855 6.05468935,31.3512303 5.52699704,31.4127434 C4.99785503,31.4829408 4.51075444,31.1124145 4.44986686,30.5819539 C4.38318047,30.0565592 4.75502959,29.5847171 5.2856213,29.5130724 Z M6.77214793,36.1516447 C7.26504734,35.9439474 7.83333136,36.1863816 8.03121598,36.6763158 C8.22765089,37.1669737 7.99207396,37.7285526 7.49989941,37.9275658 C7.007,38.1301974 6.44016568,37.8986184 6.24228107,37.4028947 C6.04004734,36.9129605 6.27634911,36.3586184 6.77214793,36.1516447 Z M9.92706657,42.1824671 C10.3540044,41.8510197 10.9621553,41.9407566 11.2810902,42.3633882 C11.6014749,42.7838487 11.517392,43.3895724 11.0919038,43.7072697 C10.6693151,44.0314803 10.0626139,43.9562171 9.73932988,43.5270724 C9.41967012,43.1037171 9.50737722,42.508125 9.92706657,42.1824671 Z M14.5409675,47.1906513 C14.8642515,46.7607829 15.4796509,46.6898618 15.8971657,47.0155197 C16.3146805,47.3375592 16.3900651,47.9454539 16.0617071,48.3644671 C15.7405976,48.7827566 15.130997,48.8674276 14.7084083,48.5359803 C14.2901686,48.2132171 14.219858,47.6161776 14.5409675,47.1906513 Z M20.2944808,50.8352697 C20.4930902,50.3395461 21.0715222,50.1101382 21.5593476,50.3171118 C22.0449985,50.5219145 22.2755015,51.0892829 22.0667441,51.5763224 C21.8659601,52.0677039 21.3005754,52.303625 20.8055015,52.0930329 C20.3184009,51.8867829 20.0951464,51.3288224 20.2944808,50.8352697 Z M40.2619083,51.6719934 C40.0459024,51.1784408 40.2938018,50.6089013 40.7859763,50.4091645 C41.2767012,50.2130461 41.8384615,50.4496908 42.037071,50.9446908 C42.2422041,51.4331776 42.0088018,51.998375 41.5093787,52.2010066 C41.0193787,52.4000197 40.4699408,52.1612039 40.2619083,51.6719934 Z M46.3013757,48.5196974 C45.9679438,48.0963421 46.0563757,47.4848289 46.4811391,47.1642368 C46.9066272,46.8443684 47.510429,46.9326579 47.8264645,47.3581842 C48.1511982,47.7764737 48.0758136,48.3821974 47.6452515,48.7085789 C47.2226627,49.0255526 46.628284,48.9379868 46.3013757,48.5196974 Z M51.3187293,43.9128684 C50.8881672,43.5922763 50.8135074,42.9756974 51.1433151,42.5581316 C51.4687737,42.1398421 52.0718506,42.06675 52.4900902,42.3945789 C52.9134038,42.7144474 52.9953121,43.3237895 52.6655044,43.7464211 C52.3371464,44.1639868 51.7427678,44.2305658 51.3187293,43.9128684 Z M54.968432,38.1668882 C54.4690089,37.9685987 54.2406805,37.3925461 54.4472633,36.9040592 C54.654571,36.4148487 55.2192308,36.1890592 55.7070562,36.4010987 C56.1985059,36.6001118 56.4348077,37.1631382 56.2267751,37.6588618 C56.0201923,38.1473487 55.4627811,38.3673487 54.968432,38.1668882 Z M57.0049763,31.6738487 C56.4736598,31.6101645 56.1032604,31.1129934 56.1757456,30.5890461 C56.2504053,30.0622039 56.7353314,29.7003618 57.2622988,29.7734539 C57.7878166,29.8414803 58.1654645,30.325625 58.0922544,30.8582566 C58.016145,31.3814803 57.5333935,31.7389803 57.0049763,31.6738487 Z M57.2930325,24.8765724 C56.7624408,24.9511118 56.2753402,24.5697303 56.2093787,24.0414408 C56.1455917,23.5153224 56.5203402,23.0369671 57.0480325,22.9769013 C57.5706509,22.9030855 58.0628254,23.2714408 58.1280621,23.8069671 C58.1903994,24.3316382 57.8214497,24.8005855 57.2930325,24.8765724 Z M55.8030266,18.2355395 C55.3115769,18.4483026 54.7411183,18.2015263 54.5432337,17.7065263 C54.3424497,17.2158684 54.5838254,16.6608026 55.0774497,16.4639605 C55.5674497,16.2598816 56.1321095,16.4885658 56.3357929,16.9871842 C56.5351272,17.4771184 56.2930266,18.0263947 55.8030266,18.2355395 Z M52.6480355,12.2071776 C52.223997,12.538625 51.6100473,12.4467171 51.2940118,12.0233618 C50.9721775,11.5978355 51.0584349,11.0000724 51.4853728,10.6809276 C51.9014379,10.3574408 52.5117633,10.4319803 52.836497,10.8647434 C53.1539822,11.2859276 53.0648254,11.8779013 52.6480355,12.2071776 Z M48.037034,7.19443421 C47.7123003,7.62502632 47.0947263,7.69956579 46.6801109,7.37028947 C46.2567973,7.04390789 46.1864867,6.44397368 46.5162944,6.02423684 C46.836679,5.60522368 47.4412056,5.51765789 47.8674186,5.84982895 C48.2849334,6.17621053 48.350895,6.77180263 48.037034,7.19443421 Z M42.2806938,3.54945395 C42.0820843,4.04879605 41.5051021,4.27748026 41.0158269,4.06688816 C40.5258269,3.86063816 40.3025725,3.29978289 40.5113299,2.80984868 C40.7099393,2.32280921 41.2709749,2.08254605 41.7711228,2.29096711 C42.2560488,2.50011184 42.475679,3.05951974 42.2806938,3.54945395 Z M16.6787012,0.484072368 C16.890358,0.871967105 16.7577101,1.35900658 16.3713639,1.57611184 C15.9929911,1.79249342 15.4942929,1.66078289 15.2804615,1.27723026 C15.0601065,0.889335526 15.1971036,0.400125 15.5798254,0.183019737 C15.9683462,-0.0369802632 16.4612456,0.0954539474 16.6787012,0.484072368 Z M5.25800444,11.3527237 C5.63492751,11.58575 5.76757544,12.0735132 5.53997189,12.4505526 C5.32034172,12.8297632 4.82381805,12.9643684 4.44472041,12.7378553 C4.06054882,12.5135132 3.93514941,12.0214079 4.15477959,11.64075 C4.38165828,11.25575 4.87528254,11.1276579 5.25800444,11.3527237 Z M0.814081361,26.4681711 C1.25406657,26.47975 1.61431805,26.8379737 1.60779438,27.27725 C1.60489497,27.7150789 1.24246893,28.0790921 0.801034024,28.0733026 C0.35525,28.0675132 0.000797337278,27.7063947 7.24852071e-05,27.2671184 C0.00732100592,26.8206053 0.366847633,26.4616579 0.814081361,26.4681711 Z M4.53315237,41.7761184 C4.91949852,41.56625 5.41239793,41.6972368 5.62550444,42.0800658 C5.84006065,42.4621711 5.71031213,42.9586184 5.32469083,43.1706579 C4.93761982,43.3913816 4.44906953,43.2538816 4.22726479,42.8739474 C4.01125888,42.4838816 4.1439068,41.9932237 4.53315237,41.7761184 Z M15.4201405,53.1766053 C15.6491938,52.8010132 16.1391938,52.67075 16.5175666,52.8972632 C16.8930399,53.1172632 17.0343861,53.6122632 16.8060577,53.99075 C16.579179,54.3721316 16.0884541,54.4973289 15.7064571,54.2795 C15.3208358,54.0508158 15.1918121,53.5594342 15.4201405,53.1766053 Z M45.8915444,53.9020987 C45.6784379,53.5156513 45.8132604,53.0264408 46.1930828,52.8129539 C46.5765296,52.5972961 47.0759527,52.7253882 47.2883343,53.1096645 C47.5072396,53.4982829 47.373142,53.983875 46.991145,54.2089408 C46.6011746,54.423875 46.1075503,54.2907171 45.8915444,53.9020987 Z M57.3093417,43.0316382 C56.9316938,42.805125 56.8012204,42.3115724 57.0295488,41.9381513 C57.249179,41.5603882 57.7449778,41.4207171 58.1240754,41.6479539 C58.5067973,41.8751908 58.635821,42.3636776 58.4147411,42.7465066 C58.184963,43.1286118 57.6898891,43.2610461 57.3093417,43.0316382 Z M61.7547145,27.9176382 C61.3147293,27.9104013 60.9566524,27.5485592 60.9624512,27.1114539 C60.9639009,26.6750724 61.3248772,26.3059934 61.7684867,26.3125066 C62.2106464,26.3182961 62.5679985,26.6779671 62.5687234,27.1201382 C62.5614749,27.5652039 62.2004985,27.9270461 61.7547145,27.9176382 Z M58.0362959,12.6121513 C57.6506746,12.8249145 57.1570503,12.6895855 56.9453935,12.3074803 C56.7293876,11.9260987 56.8584112,11.4274803 57.2440325,11.2132697 C57.6296538,10.9976118 58.1203787,11.1314934 58.3414586,11.5143224 C58.5589142,11.9014934 58.4262663,12.3957697 58.0362959,12.6121513 Z M47.1486553,1.21057895 C46.9203269,1.58472368 46.4288772,1.71788158 46.052679,1.49281579 C45.6735814,1.26992105 45.5373092,0.774921053 45.7641879,0.397881579 C45.9881672,0.0150526316 46.4817914,-0.112315789 46.8645133,0.107684211 C47.2465104,0.335644737 47.3777086,0.829921053 47.1486553,1.21057895 Z" id="Combined-Shape"></path>
            <g id="Group-21" transform="translate(73.000000, 8.000000)">
                <polygon id="Fill-153" points="1.18715976 16.6928289 3.77053254 16.6928289 3.77053254 2.86322368 1.18715976 2.86322368"></polygon>
                <path d="M8.93872781,16.6928289 L6.37347633,16.6928289 L6.37347633,5.54013158 L8.53136095,5.54013158 L8.76331361,7.77052632 C9.06122781,7.00776316 9.52730769,6.39986842 10.163003,5.94684211 C10.7972485,5.49453947 11.5931361,5.26802632 12.5513905,5.26802632 C13.8988905,5.26802632 14.9260059,5.68197368 15.6320118,6.50986842 C16.3380178,7.33631579 16.6902959,8.44210526 16.6902959,9.82578947 L16.6902959,16.6928289 L14.1250444,16.6928289 L14.1250444,10.4467105 C14.1250444,9.54210526 13.9510799,8.82059211 13.6017012,8.28434211 C13.2515976,7.74809211 12.6231509,7.47960526 11.7163609,7.47960526 C10.770429,7.47960526 10.0716716,7.78644737 9.6179142,8.40085526 C9.16488166,9.01526316 8.93872781,9.83881579 8.93872781,10.8729605 L8.93872781,16.6928289 Z" id="Fill-155"></path>
                <path d="M18.9641568,16.6928289 L21.5482544,16.6928289 L21.5482544,5.54013158 L18.9641568,5.54013158 L18.9641568,16.6928289 Z M18.983003,3.96901316 C18.7235059,3.72296053 18.5944822,3.28368421 18.5944822,2.64973684 C18.5944822,2.02881579 18.7372781,1.59605263 19.022145,1.35072368 C19.3077367,1.10394737 19.7288757,0.981644737 20.2848373,0.981644737 C20.8429734,0.981644737 21.2633876,1.10394737 21.5482544,1.35072368 C21.8323964,1.59605263 21.9744675,2.02881579 21.9744675,2.64973684 C21.9744675,3.24460526 21.8352959,3.67447368 21.5569527,3.93934211 C21.2793343,4.20493421 20.854571,4.33736842 20.2848373,4.33736842 C19.6759615,4.33736842 19.2425,4.21434211 18.983003,3.96901316 Z" id="Fill-156"></path>
                <path d="M30.698497,16.6928289 L29.2618402,16.6928289 C28.7421213,16.6928289 28.2796657,16.6573684 27.8722988,16.5864474 C27.4634822,16.5148026 27.1235266,16.4156579 26.8509822,16.2853947 C26.2950207,16.0009868 25.9101243,15.5356579 25.695568,14.8894079 C25.4817367,14.2431579 25.3751834,13.3566447 25.3751834,12.2313158 L25.3751834,7.79006579 L23.1999024,7.79006579 L23.1999024,5.63638158 L24.1900503,5.63638158 C24.3712633,5.63638158 24.5263817,5.62697368 24.6561302,5.60743421 C24.7851538,5.58789474 24.8960562,5.55894737 24.9859379,5.51986842 C25.1678757,5.42940789 25.2968994,5.26802632 25.3751834,5.03427632 C25.4527426,4.80197368 25.5042071,4.45967105 25.5310266,4.00736842 C25.5433491,3.76203947 25.553497,3.49644737 25.5592959,3.21131579 C25.5658195,2.92690789 25.5694438,2.70039474 25.5694438,2.53322368 L27.7454497,2.53322368 L27.7454497,5.54013158 L30.698497,5.54013158 L30.698497,7.79006579 L27.7454497,7.79006579 L27.7454497,11.8043421 C27.7454497,12.1669079 27.758497,12.4867763 27.7838669,12.7653947 C27.8114112,13.0432895 27.8491036,13.2726974 27.900568,13.4536184 C27.9911746,13.8161842 28.1919586,14.0521053 28.5029201,14.1621053 C28.8138817,14.2713816 29.2799615,14.3271053 29.9018846,14.3271053 L30.698497,14.3271053 L30.698497,16.6928289 Z" id="Fill-157"></path>
                <path d="M32.5435355,16.6928289 L35.1276331,16.6928289 L35.1276331,5.54013158 L32.5435355,5.54013158 L32.5435355,16.6928289 Z M32.5638314,3.96901316 C32.3043343,3.72296053 32.1760355,3.28368421 32.1760355,2.64973684 C32.1760355,2.02881579 32.3173817,1.59605263 32.6029734,1.35072368 C32.8863905,1.10394737 33.3075296,0.981644737 33.8656657,0.981644737 C34.4216272,0.981644737 34.8427663,1.10394737 35.128358,1.35072368 C35.4132249,1.59605263 35.5560207,2.02881579 35.5560207,2.64973684 C35.5560207,3.24460526 35.4153994,3.67447368 35.1385059,3.93934211 C34.8594379,4.20493421 34.4353994,4.33736842 33.8656657,4.33736842 C33.2567899,4.33736842 32.8226036,4.21434211 32.5638314,3.96901316 Z" id="Fill-158"></path>
                <path d="M42.4815473,14.8991776 C42.7990325,14.8152303 43.0933225,14.6885855 43.365142,14.5206908 C43.9102308,14.1849013 44.3277456,13.7543092 44.6184112,13.2310855 C44.9098018,12.7071382 45.0562219,12.1802961 45.0562219,11.6498355 L45.0562219,11.0484539 C44.8220947,11.2170724 44.5147574,11.3589145 44.1327604,11.4747039 C43.7507633,11.5912171 43.3071538,11.6881908 42.801932,11.7663487 C42.1278195,11.8698355 41.6204231,11.9697039 41.277568,12.0666776 C40.9332633,12.1636513 40.6324497,12.2960855 40.3736775,12.4647039 C40.1533225,12.6065461 39.9880562,12.7751645 39.8778787,12.9683882 C39.7677012,13.1623355 39.7133373,13.3823355 39.7133373,13.6283882 C39.7133373,14.0937171 39.8590325,14.4432566 40.1504231,14.6762829 C40.4410888,14.9085855 40.8788994,15.0250987 41.4609556,15.0250987 C41.8241065,15.0250987 42.1640621,14.983125 42.4815473,14.8991776 Z M45.1526272,14.4627961 C44.7771538,15.1872039 44.2103195,15.7885855 43.4528491,16.2662171 C42.6953787,16.7438487 41.7400237,16.9841118 40.5875089,16.9841118 C39.3820799,16.9841118 38.4731154,16.7127303 37.857716,16.1692434 C37.2423166,15.6264803 36.9349793,14.9020724 36.9349793,13.9967434 C36.9349793,13.3758224 37.064003,12.8359539 37.3235,12.3771382 C37.5822722,11.9190461 37.9388994,11.5463487 38.391932,11.2619408 C38.5470503,11.1584539 38.7057929,11.0672697 38.8674349,10.9905592 C39.0298018,10.913125 39.1878195,10.8479934 39.3436627,10.7966118 C39.6676716,10.679375 40.0561923,10.5758882 40.5092249,10.4861513 C40.9622574,10.3956908 41.5392396,10.2987171 42.2387219,10.1952303 C43.2361183,10.0656908 43.9515473,9.90720395 44.3857337,9.72049342 C44.8191953,9.53161184 45.035926,9.21319079 45.035926,8.75944079 C45.035926,8.29411184 44.8619615,7.92503289 44.511858,7.654375 C44.1624793,7.38226974 43.5528787,7.24694079 42.6859556,7.24694079 C41.7661183,7.24694079 41.0862071,7.44088816 40.6462219,7.82805921 C40.204787,8.21667763 39.9655858,8.76595395 39.9271686,9.47733553 L37.3032041,9.47733553 C37.3952604,8.21016447 37.8932337,7.19194079 38.8000237,6.42194079 C39.7060888,5.65338816 40.9571834,5.26838816 42.5496834,5.26838816 C43.1578343,5.26838816 43.7014734,5.30674342 44.1813254,5.38490132 C44.6611775,5.46233553 45.0815917,5.58536184 45.4440178,5.75253289 C46.1695947,6.06299342 46.6907633,6.51023026 47.0082485,7.09134868 C47.3257337,7.67319079 47.4844763,8.36503289 47.4844763,9.166875 L47.4844763,16.6931908 L45.4251716,16.6931908 L45.1526272,14.4627961 Z" id="Fill-159"></path>
                <path d="M56.1497204,16.6928289 L54.7116139,16.6928289 C54.1933447,16.6928289 53.7308891,16.6573684 53.3227973,16.5864474 C52.9147056,16.5148026 52.5740251,16.4156579 52.3014808,16.2853947 C51.7462441,16.0009868 51.3598979,15.5356579 51.1467914,14.8894079 C50.9329601,14.2431579 50.8264068,13.3566447 50.8264068,12.2313158 L50.8264068,7.79006579 L48.6511257,7.79006579 L48.6511257,5.63638158 L49.6412737,5.63638158 C49.8217618,5.63638158 49.9768802,5.62697368 50.1073536,5.60743421 C50.2363772,5.58789474 50.3472796,5.55894737 50.4371612,5.51986842 C50.6183743,5.42940789 50.7481228,5.26802632 50.8264068,5.03427632 C50.903966,4.80197368 50.9554305,4.45967105 50.98225,4.00736842 C50.9945725,3.76203947 51.0039956,3.49644737 51.0105192,3.21131579 C51.0170429,2.92690789 51.0206672,2.70039474 51.0206672,2.53322368 L53.1966731,2.53322368 L53.1966731,5.54013158 L56.1497204,5.54013158 L56.1497204,7.79006579 L53.1966731,7.79006579 L53.1966731,11.8043421 C53.1966731,12.1669079 53.2089956,12.4867763 53.2350902,12.7653947 C53.2619098,13.0432895 53.2996021,13.2726974 53.3517914,13.4536184 C53.4423979,13.8161842 53.643182,14.0521053 53.9541435,14.1621053 C54.2643802,14.2713816 54.7311849,14.3271053 55.3523831,14.3271053 L56.1497204,14.3271053 L56.1497204,16.6928289 Z" id="Fill-160"></path>
                <path d="M57.9959911,16.6928289 L60.5793639,16.6928289 L60.5793639,5.54013158 L57.9959911,5.54013158 L57.9959911,16.6928289 Z M58.0141124,3.96901316 C57.7560651,3.72296053 57.6248669,3.28368421 57.6248669,2.64973684 C57.6248669,2.02881579 57.7683876,1.59605263 58.0532544,1.35072368 C58.3373964,1.10394737 58.7592604,0.981644737 59.3152219,0.981644737 C59.873358,0.981644737 60.294497,1.10394737 60.5793639,1.35072368 C60.8642308,1.59605263 61.0063018,2.02881579 61.0063018,2.64973684 C61.0063018,3.24460526 60.8671302,3.67447368 60.5895118,3.93934211 C60.3104438,4.20493421 59.8856805,4.33736842 59.3152219,4.33736842 C58.707071,4.33736842 58.2743343,4.21434211 58.0141124,3.96901316 Z" id="Fill-161"></path>
                <polygon id="Fill-162" points="66.2523462 16.6928289 61.8611923 5.54013158 64.5228491 5.54013158 67.4179083 13.5310526 70.4296686 5.54013158 73.1101716 5.54013158 68.5247574 16.6928289"></polygon>
                <path d="M76.957324,8.01252632 C76.4136849,8.49811842 76.0708299,9.17982895 75.9273092,10.0591053 L81.9885222,10.0591053 C81.8979157,9.20515789 81.6166731,8.52996053 81.1433447,8.03206579 C80.6707411,7.53489474 79.9886553,7.28522368 79.0941879,7.28522368 C78.2127678,7.28522368 77.5016879,7.52693421 76.957324,8.01252632 M82.543034,16.0331184 C81.6427678,16.6670658 80.460534,16.9840395 78.9963328,16.9840395 C77.1196908,16.9840395 75.7142027,16.4767368 74.781318,15.4606842 C73.8484334,14.4453553 73.3830784,13.0783158 73.3830784,11.3588421 L73.3830784,11.0867368 C73.3830784,10.4925921 73.4410666,9.93897368 73.5577678,9.42805263 C73.6744689,8.91785526 73.8484334,8.44239474 74.0825607,8.00311842 C74.5479157,7.13686842 75.2053565,6.46384211 76.0548831,5.98621053 C76.9015104,5.50713158 77.9090547,5.26831579 79.0753417,5.26831579 C80.034321,5.26831579 80.8592027,5.42318421 81.5521612,5.73364474 C82.244395,6.04338158 82.8119541,6.46384211 83.2519393,6.99357895 C83.6919246,7.52403947 84.0159334,8.12614474 84.2225163,8.79844737 C84.4305488,9.47075 84.5356524,10.1625921 84.5356524,10.87325 L84.5356524,12.0571974 L75.908463,12.0571974 C76.0121169,12.9618026 76.3383003,13.6601579 76.8891879,14.1522632 C77.4400754,14.6429211 78.1750754,14.8889737 79.0941879,14.8889737 C79.7683003,14.8889737 80.3119393,14.7601579 80.7265547,14.5003553 C81.1404453,14.2427237 81.4448831,13.8736447 81.6398683,13.3960132 L84.3790843,13.3960132 C84.0558003,14.5198947 83.4433003,15.4006184 82.543034,16.0331184" id="Fill-163"></path>
                <path d="M95.7440399,7.75069737 L95.7244689,16.6932632 L93.2962145,16.6932632 L93.2962145,7.75069737 L91.3340399,7.75069737 L91.3340399,5.53984211 L93.2962145,5.53984211 L93.2962145,5.09332895 C93.2962145,3.67128947 93.5948536,2.66175 94.1899571,2.06760526 C94.7857855,1.47273684 95.7440399,1.17457895 97.0654453,1.17457895 L98.3861257,1.17457895 L98.3861257,3.26964474 L97.414824,3.26964474 C97.1821464,3.26964474 96.9748388,3.28267105 96.7936257,3.308 C96.6116879,3.3355 96.4630932,3.37313158 96.3471169,3.42523684 C96.0999423,3.52944737 95.9390251,3.73280263 95.8607411,4.03675 C95.7839068,4.34069737 95.7440399,4.79589474 95.7440399,5.40378947 L95.7440399,5.53984211 L98.3672796,5.53984211 L98.3672796,7.75069737 L95.7440399,7.75069737 Z" id="Fill-164"></path>
                <path d="M106.866678,13.8511382 C107.403793,13.2497566 107.673438,12.3994276 107.673438,11.300875 L107.673438,11.0483092 C107.673438,9.91140132 107.397269,9.02488816 106.847107,8.39094079 C106.296944,7.75771711 105.561219,7.44074342 104.642831,7.44074342 C103.735317,7.44074342 103.000317,7.74830921 102.437107,8.36126974 C101.874621,8.97567763 101.591929,9.87159868 101.591929,11.0483092 L101.591929,11.300875 C101.591929,12.3994276 101.860849,13.2497566 102.397964,13.8511382 C102.93508,14.4525197 103.676604,14.7535724 104.62326,14.7535724 C105.58224,14.7535724 106.329562,14.4525197 106.866678,13.8511382 M100.455361,15.5192303 C99.4768107,14.5429803 98.9889852,13.1491645 98.9889852,11.3392303 L98.9889852,11.0483092 C98.9889852,10.4273882 99.0498728,9.85278289 99.1723728,9.32232237 C99.2963225,8.79258553 99.4818846,8.31350658 99.7268846,7.88653289 C100.206737,7.03330921 100.870701,6.38344079 101.718778,5.93692763 C102.566855,5.49113816 103.534533,5.26751974 104.62326,5.26751974 C105.179947,5.26751974 105.701115,5.32324342 106.187491,5.43324342 C106.672417,5.54324342 107.12255,5.71403289 107.536441,5.94633553 C108.392491,6.40008553 109.059355,7.05574342 109.538482,7.91548026 C110.017609,8.77594079 110.256811,9.82021711 110.256811,11.0483092 L110.256811,11.3392303 C110.256811,11.9478487 110.198822,12.5065329 110.082846,13.0167303 C109.966145,13.528375 109.790731,13.9900855 109.558053,14.4033092 C109.078201,15.2442303 108.417861,15.8854145 107.576308,16.3246908 C106.73403,16.7639671 105.74968,16.9839671 104.62326,16.9839671 C102.822003,16.9839671 101.433186,16.4954803 100.455361,15.5192303" id="Fill-165"></path>
                <path d="M112.199704,16.6928289 L112.199704,5.54013158 L114.260459,5.54013158 L114.590266,8.15769737 C114.810621,7.24006579 115.220888,6.55763158 115.822515,6.11184211 C116.425592,5.66460526 117.251923,5.44315789 118.300059,5.44315789 L119.05753,5.44315789 L119.05753,8.02236842 L117.951405,8.02236842 C117.510695,8.02236842 117.12145,8.05059211 116.785118,8.10993421 C116.447337,8.16710526 116.164645,8.25467105 115.930518,8.37190789 C115.463713,8.59190789 115.144053,8.95664474 114.967914,9.46756579 C114.793225,9.97848684 114.706243,10.6674342 114.706243,11.5336842 L114.706243,16.6928289 L112.199704,16.6928289 Z" id="Fill-166"></path>
                <path d="M10.221426,32.1887895 C10.1561893,32.5122763 10.0663077,32.8256316 9.94888166,33.1295789 C9.83218047,33.4335263 9.69010947,33.7215526 9.52194379,33.9929342 C9.17184024,34.5226711 8.69923669,34.9496447 8.10340828,35.2738553 C7.50757988,35.5966184 6.76895562,35.758 5.88826036,35.758 C4.20515385,35.758 2.9127426,35.2376711 2.01320118,34.1962895 C1.11221006,33.1556316 0.662076923,31.5295132 0.662076923,29.3186579 L0.662076923,27.9798421 C0.662076923,25.7812895 1.20354142,24.1327368 2.28429586,23.0341842 C3.36577515,21.9349079 4.84519822,21.3849079 6.72473964,21.3849079 C8.44698817,21.3849079 9.78361538,21.8278026 10.736071,22.7143158 C11.6878018,23.5993816 12.2024467,24.8376053 12.2814556,26.4282632 L9.61907396,26.4282632 C9.60530178,26.1699079 9.57050888,25.92675 9.51179586,25.7009605 C9.45380769,25.4744474 9.37334911,25.2515526 9.26897041,25.0315526 C9.07471006,24.6183289 8.77389645,24.2854342 8.36507988,24.0321447 C7.95771302,23.7803026 7.39740237,23.6551053 6.68487278,23.6551053 C5.51931065,23.6551053 4.65818639,24.0198421 4.1015,24.7500395 C3.54408876,25.4809605 3.26647041,26.5903684 3.26647041,28.0768158 L3.26647041,29.2216842 C3.25269822,30.7081316 3.52161834,31.7885921 4.07178107,32.4608947 C4.62121893,33.1331974 5.4671213,33.4689868 6.60803846,33.4689868 C6.96973964,33.4689868 7.29737278,33.4335263 7.58876331,33.3626053 C7.88015385,33.2916842 8.13602663,33.1853026 8.35638166,33.0427368 C8.79636686,32.7576053 9.12037574,32.3798421 9.32695858,31.9072763 C9.53426627,31.4361579 9.64444379,30.9346447 9.65821598,30.4049079 L6.27678107,30.4049079 L6.27678107,28.2121447 L12.3387189,28.2121447 L12.3387189,35.4670789 L10.4156864,35.4670789 L10.221426,32.1887895 Z" id="Fill-167"></path>
                <polygon id="Fill-168" points="14.6897041 35.4673684 17.2346598 35.4673684 17.2346598 20.53125 14.6897041 20.53125"></polygon>
                <path d="M26.9779038,32.6252434 C27.5142944,32.0238618 27.7824896,31.1742566 27.7824896,30.0749803 L27.7824896,29.8224145 C27.7824896,28.6855066 27.5077707,27.7989934 26.9583328,27.1650461 C26.4081701,26.5318224 25.6717204,26.2148487 24.7540577,26.2148487 C23.8465429,26.2148487 23.1115429,26.5224145 22.5483328,27.135375 C21.9836731,27.7497829 21.7031553,28.6464276 21.7031553,29.8224145 L21.7031553,30.0749803 C21.7031553,31.1742566 21.9720754,32.0238618 22.5091908,32.6252434 C23.0455814,33.2273487 23.7878299,33.5276776 24.7337618,33.5276776 C25.6927411,33.5276776 26.4407885,33.2273487 26.9779038,32.6252434 M20.5658624,34.2933355 C19.588037,33.3178092 19.1002115,31.9239934 19.1002115,30.1140592 L19.1002115,29.8224145 C19.1002115,29.2014934 19.1610991,28.6268882 19.2835991,28.0964276 C19.4075488,27.5666908 19.5923861,27.0876118 19.8373861,26.6606382 C20.3165133,25.8074145 20.9812027,25.1582697 21.8285547,24.7110329 C22.6773565,24.2652434 23.645034,24.0423487 24.7337618,24.0423487 C25.2904482,24.0423487 25.8123417,24.0980724 26.2972678,24.2073487 C26.7829186,24.3173487 27.2330518,24.4881382 27.6476672,24.7218882 C28.5029926,25.1741908 29.1691317,25.8298487 29.6489837,26.6895855 C30.1281109,27.5500461 30.368037,28.5943224 30.368037,29.8224145 L30.368037,30.1140592 C30.368037,30.7219539 30.3100488,31.2806382 30.1940725,31.7915592 C30.0766464,32.3024803 29.9012322,32.7641908 29.6692796,33.1781382 C29.1894275,34.0183355 28.5290873,34.6595197 27.6868092,35.0987961 C26.8445311,35.5380724 25.860182,35.7580724 24.7337618,35.7580724 C22.9332293,35.7580724 21.5444127,35.2710329 20.5658624,34.2933355" id="Fill-169"></path>
                <path d="M39.9658033,32.6065 C40.4840725,32.0043947 40.7435695,31.1164342 40.7435695,29.9397237 L40.7435695,29.7059737 C40.7435695,28.5943947 40.4703003,27.7274211 39.9266612,27.1072237 C39.3815725,26.4863026 38.6770163,26.1765658 37.8079186,26.1765658 C36.8888062,26.1765658 36.1509068,26.5000526 35.5942204,27.1463026 C35.037534,27.7925526 34.7591908,28.6269605 34.7591908,29.6473553 L34.7591908,29.84275 C34.7591908,30.9934079 35.0302855,31.8915 35.5739246,32.53775 C36.1175636,33.1847237 36.8431405,33.5074868 37.7499305,33.5074868 C38.7096346,33.5074868 39.447534,33.2078816 39.9658033,32.6065 M36.1378595,35.0597895 C35.5036139,34.5944605 35.037534,33.9800526 34.7396198,33.2172895 L34.5069423,35.4672237 L32.3497825,35.4672237 L32.3497825,20.5318289 L34.8164541,20.5318289 L34.8164541,26.4479474 C35.1411879,25.7105132 35.6268388,25.1250526 36.2748565,24.6915658 C36.9221494,24.2588026 37.6991908,24.0424211 38.6059808,24.0424211 C39.0727855,24.0424211 39.506247,24.0981447 39.9070902,24.2074211 C40.3086583,24.3174211 40.6913802,24.4759079 41.0545311,24.6821579 C41.7656109,25.1091316 42.3222973,25.7365658 42.7245902,26.5637368 C43.1254334,27.3916316 43.3269423,28.4257763 43.3269423,29.6676184 L43.3269423,29.9585395 C43.3269423,31.7945263 42.8927559,33.2209079 42.0258328,34.2347895 C41.1581849,35.2508421 39.9911731,35.7581447 38.5276967,35.7581447 C37.5687175,35.7581447 36.772105,35.5258421 36.1378595,35.0597895" id="Fill-170"></path>
                <path d="M50.2333328,33.6729211 C50.5500932,33.5889737 50.8458328,33.4630526 51.1169275,33.2944342 C51.6620163,32.9586447 52.0795311,32.5280526 52.3709216,32.0048289 C52.6623121,31.4808816 52.8080074,30.9540395 52.8080074,30.4235789 L52.8080074,29.8221974 C52.574605,29.9908158 52.2665429,30.1326579 51.8845459,30.2491711 C51.5025488,30.3649605 51.0589393,30.4626579 50.5529926,30.5400921 C49.8803299,30.6435789 49.3722086,30.7441711 49.0293536,30.8411447 C48.6850488,30.9381184 48.3835104,31.0705526 48.125463,31.2384474 C47.9043831,31.3802895 47.7398417,31.5489079 47.6296642,31.7435789 C47.5202115,31.9375263 47.4651228,32.1560789 47.4651228,32.4021316 C47.4651228,32.8674605 47.610818,33.2177237 47.9014837,33.4500263 C48.1928743,33.6823289 48.6299601,33.7988421 49.213466,33.7988421 C49.5766169,33.7988421 49.9158476,33.7568684 50.2333328,33.6729211 Z M52.9044127,33.2365395 C52.5296642,33.9609474 51.962105,34.5623289 51.2046346,35.0406842 C50.4471642,35.5190395 49.4918092,35.7578553 48.3392944,35.7578553 C47.1353151,35.7578553 46.2249009,35.4864737 45.6087766,34.9437105 C44.9933772,34.4002237 44.6867648,33.6758158 44.6867648,32.7704868 C44.6867648,32.1495658 44.8150636,31.6104211 45.0752855,31.1508816 C45.3333328,30.6927895 45.6899601,30.3208158 46.1429926,30.0356842 C46.2981109,29.9321974 46.4583033,29.8417368 46.6206701,29.7643026 C46.7808624,29.6868684 46.9403299,29.6217368 47.0954482,29.5703553 C47.4187322,29.4545658 47.807253,29.3510789 48.2610104,29.2606184 C48.7147678,29.1694342 49.2903003,29.0724605 49.9905074,28.9689737 C50.987179,28.8401579 51.702608,28.6809474 52.1375192,28.4942368 C52.5709808,28.3068026 52.7869867,27.9869342 52.7869867,27.5346316 C52.7869867,27.0678553 52.6130222,26.6987763 52.2636435,26.4281184 C51.9135399,26.1567368 51.3053891,26.0206842 50.4370163,26.0206842 C49.5179038,26.0206842 48.8372678,26.2146316 48.3980074,26.6018026 C47.9558476,26.9904211 47.7166464,27.5396974 47.6789541,28.2510789 L45.0557145,28.2510789 C45.146321,26.9839079 45.6450192,25.9656842 46.5518092,25.1964079 C47.4578743,24.4271316 48.7082441,24.0421316 50.3014689,24.0421316 C50.9096198,24.0421316 51.4547086,24.0804868 51.9331109,24.1586447 C52.412963,24.2360789 52.8341021,24.3591053 53.1965281,24.5277237 C53.9213802,24.8367368 54.4425488,25.2839737 54.7593092,25.8650921 C55.0775192,26.4476579 55.2362618,27.1387763 55.2362618,27.9406184 L55.2362618,35.4669342 L53.1769571,35.4669342 L52.9044127,33.2365395 Z" id="Fill-171"></path>
                <polygon id="Fill-172" points="57.6444379 35.4673684 60.1893935 35.4673684 60.1893935 20.53125 57.6444379 20.53125"></polygon>
                <path d="M71.3028979,23.8095395 L71.3028979,28.9303289 L74.0805311,28.9303289 C75.0003683,28.9303289 75.7128979,28.7074342 76.2181198,28.2616447 C76.7233417,27.8151316 76.9763151,27.1717763 76.9763151,26.3315789 C76.9763151,25.5811184 76.7334896,24.9732237 76.2478388,24.5078947 C75.7621879,24.0425658 75.0206642,23.8095395 74.0232678,23.8095395 L71.3028979,23.8095395 Z M71.3028979,31.1028289 L71.3028979,35.4680921 L68.7963595,35.4680921 L68.7963595,21.6370395 L74.0232678,21.6370395 C74.644466,21.6370395 75.2105754,21.6855263 75.7230459,21.7817763 C76.2340666,21.87875 76.6907234,22.0314474 77.0922914,22.2384211 C77.9084749,22.6263158 78.5173506,23.1726974 78.9189186,23.8775658 C79.3197618,24.5831579 79.5219956,25.4001974 79.5219956,26.3315789 C79.5219956,27.7796711 79.0769364,28.9404605 78.1904423,29.8125 C77.3032234,30.6859868 75.9463003,31.1165789 74.1203979,31.1028289 L71.3028979,31.1028289 Z" id="Fill-173"></path>
                <path d="M81.3475355,35.4672961 L81.3475355,24.3145987 L83.4075651,24.3145987 L83.7373728,26.9321645 C83.9577278,26.0145329 84.3687189,25.3320987 84.9703462,24.8855855 C85.5734231,24.4390724 86.3990296,24.217625 87.4471657,24.217625 L88.2053609,24.217625 L88.2053609,26.7968355 L87.0985118,26.7968355 C86.6578018,26.7968355 86.2685562,26.8250592 85.9322249,26.8836776 C85.5944438,26.9415724 85.3117515,27.0291382 85.0776243,27.1456513 C84.6115444,27.366375 84.2911598,27.7311118 84.1150207,28.2420329 C83.9403314,28.7529539 83.8533491,29.4411776 83.8533491,30.3081513 L83.8533491,35.4672961 L81.3475355,35.4672961 Z" id="Fill-174"></path>
                <path d="M96.8999615,32.6252434 C97.4370769,32.0238618 97.705997,31.1742566 97.705997,30.0749803 L97.705997,29.8224145 C97.705997,28.6855066 97.4298284,27.7989934 96.8803905,27.1650461 C96.3302278,26.5318224 95.594503,26.2148487 94.6761154,26.2148487 C93.7686006,26.2148487 93.0336006,26.5224145 92.4703905,27.135375 C91.9057308,27.7497829 91.625213,28.6464276 91.625213,29.8224145 L91.625213,30.0749803 C91.625213,31.1742566 91.8941331,32.0238618 92.4312485,32.6252434 C92.9683639,33.2273487 93.7098876,33.5276776 94.6558195,33.5276776 C95.6147988,33.5276776 96.3628462,33.2273487 96.8999615,32.6252434 M90.4879201,34.2933355 C89.5100947,33.3178092 89.0222692,31.9239934 89.0222692,30.1140592 L89.0222692,29.8224145 C89.0222692,29.2014934 89.0838817,28.6268882 89.2056568,28.0964276 C89.3296065,27.5666908 89.5144438,27.0876118 89.7594438,26.6606382 C90.2400207,25.8074145 90.9032604,25.1582697 91.7513373,24.7110329 C92.5994142,24.2652434 93.5670917,24.0423487 94.6558195,24.0423487 C95.2125059,24.0423487 95.7343994,24.0980724 96.2193254,24.2073487 C96.7049763,24.3173487 97.1551095,24.4881382 97.5697249,24.7218882 C98.4250503,25.1741908 99.0919142,25.8298487 99.5717663,26.6895855 C100.050893,27.5500461 100.290095,28.5943224 100.290095,29.8224145 L100.290095,30.1140592 C100.290095,30.7219539 100.232107,31.2806382 100.11613,31.7915592 C99.9987041,32.3024803 99.8240148,32.7641908 99.5913373,33.1781382 C99.1114852,34.0183355 98.451145,34.6595197 97.6088669,35.0987961 C96.7665888,35.5380724 95.7822396,35.7580724 94.6558195,35.7580724 C92.855287,35.7580724 91.4664704,35.2710329 90.4879201,34.2933355" id="Fill-175"></path>
                <path d="M102.864407,34.7400658 C101.990235,34.0605263 101.469067,33.0748684 101.300176,31.7809211 L104.058238,31.7809211 C104.176389,32.4409211 104.464155,32.9127632 104.924436,33.1971711 C105.383268,33.4823026 106.008815,33.6241447 106.798179,33.6241447 C107.615812,33.6241447 108.197143,33.4953289 108.547247,33.2369737 C108.897351,32.9778947 109.071315,32.6290789 109.071315,32.1883553 C109.071315,32.0211842 109.035797,31.8728289 108.964762,31.7425658 C108.892277,31.61375 108.786448,31.50375 108.644377,31.4132895 C108.360235,31.2453947 107.986212,31.11875 107.526655,31.0355263 C107.067099,30.9508553 106.572025,30.8705263 106.040709,30.7923684 C105.535487,30.7142105 105.033889,30.6215789 104.535191,30.5115789 C104.036493,30.4023026 103.579111,30.2365789 103.165945,30.0165789 C102.75133,29.7973026 102.420797,29.4897368 102.174348,29.0953289 C101.928623,28.7009211 101.805398,28.1928947 101.805398,27.5719737 C101.805398,26.5508553 102.18957,25.7063158 102.961537,25.04125 C103.73133,24.3754605 104.88167,24.0425658 106.410383,24.0425658 C108.003608,24.0425658 109.190916,24.3653289 109.975206,25.0123026 C110.758771,25.6585526 111.228475,26.5385526 111.383593,27.6501316 L108.779925,27.6501316 C108.689318,27.1073684 108.453016,26.7093421 108.071744,26.4575 C107.688297,26.2049342 107.129436,26.0782895 106.390812,26.0782895 C105.599999,26.0782895 105.056359,26.2049342 104.75772,26.4575 C104.460531,26.7093421 104.311936,27.0292105 104.311936,27.4171053 C104.311936,27.5864474 104.347454,27.7340789 104.41849,27.8636184 C104.489525,27.9924342 104.596078,28.1031579 104.739599,28.1928947 C105.023741,28.3615132 105.399939,28.4874342 105.866744,28.5713816 C106.332099,28.6560526 106.830797,28.7371053 107.362114,28.8138158 C107.866611,28.89125 108.368933,28.9853289 108.867632,29.0953289 C109.36633,29.2053289 109.822987,29.3703289 110.237602,29.5903289 C110.652217,29.8096053 110.982025,30.1171711 111.228475,30.5115789 C111.4742,30.9052632 111.597425,31.4132895 111.597425,32.0342105 C111.597425,33.1067105 111.198756,33.9961184 110.402143,34.7002632 C109.606981,35.4058553 108.385605,35.7582895 106.740191,35.7582895 C105.030265,35.7582895 103.738578,35.4181579 102.864407,34.7400658" id="Fill-176"></path>
                <path d="M120.845595,32.645 C121.376186,32.0436184 121.642932,31.1932895 121.642932,30.0947368 L121.642932,29.8609868 C121.642932,28.6719737 121.366763,27.7666447 120.816601,27.1457237 C120.266438,26.5248026 119.556808,26.2150658 118.68771,26.2150658 C117.768598,26.2150658 117.030698,26.5414474 116.474012,27.1949342 C115.917325,27.8469737 115.638982,28.7240789 115.638982,29.8226316 L115.638982,30.0173026 C115.638982,31.0898026 115.907902,31.9466447 116.445018,32.5863816 C116.982133,33.2275658 117.711334,33.5474342 118.630447,33.5474342 C119.576379,33.5474342 120.315003,33.2463816 120.845595,32.645 M117.115506,35.1076974 C116.494308,34.7140132 116.020979,34.1806579 115.69697,33.5076316 L115.69697,39.3079605 L113.229574,39.3079605 L113.229574,24.3139474 L115.348317,24.3139474 L115.619411,26.5834211 C115.917325,25.8206579 116.389204,25.20625 117.037947,24.7401974 C117.68524,24.2755921 118.494175,24.0425658 119.466926,24.0425658 C120.917355,24.0425658 122.072044,24.5440789 122.934618,25.5456579 C123.795018,26.5479605 124.226305,27.9859211 124.226305,29.8609868 L124.226305,30.1330921 C124.226305,30.7409868 124.17484,31.3003947 124.071186,31.8105921 C123.967533,32.3222368 123.810964,32.7839474 123.604382,33.1971711 C123.203538,34.0257895 122.639604,34.6496053 121.914027,35.0693421 C121.18845,35.4890789 120.360669,35.7003947 119.427784,35.7003947 C118.507222,35.7003947 117.736704,35.5028289 117.115506,35.1076974" id="Fill-177"></path>
                <path d="M129.471624,26.7873553 C128.927985,27.2715 128.58513,27.9546579 128.441609,28.8332105 L134.503547,28.8332105 C134.412941,27.9799868 134.130973,27.3047895 133.65837,26.8068947 C133.185041,26.3097237 132.502956,26.0600526 131.608488,26.0600526 C130.727793,26.0600526 130.015988,26.3017632 129.471624,26.7873553 M135.057334,34.8072237 C134.157068,35.4418947 132.974834,35.7588684 131.511358,35.7588684 C129.633991,35.7588684 128.228503,35.2515658 127.295618,34.2355132 C126.362734,33.2201842 125.897379,31.8531447 125.897379,30.1336711 L125.897379,29.8615658 C125.897379,29.2674211 125.956092,28.7138026 126.072068,28.2028816 C126.188769,27.6926842 126.362734,27.2172237 126.596861,26.7779474 C127.062216,25.9116974 127.719657,25.2386711 128.569183,24.7610395 C129.415811,24.2819605 130.42408,24.0431447 131.589642,24.0431447 C132.548621,24.0431447 133.373503,24.1980132 134.066462,24.50775 C134.758695,24.8182105 135.326254,25.2386711 135.76624,25.7684079 C136.206225,26.2988684 136.530234,26.90025 136.737541,27.5725526 C136.944849,28.2455789 137.049953,28.9366974 137.049953,29.6480789 L137.049953,30.8320263 L128.422763,30.8320263 C128.526417,31.7366316 128.853325,32.4349868 129.403488,32.9270921 C129.954376,33.41775 130.689376,33.6638026 131.608488,33.6638026 C132.282601,33.6638026 132.82624,33.5335395 133.240855,33.2751842 C133.65547,33.0175526 133.959908,32.6484737 134.154169,32.1708421 L136.893385,32.1708421 C136.570101,33.2947237 135.957601,34.1754474 135.057334,34.8072237" id="Fill-178"></path>
                <path d="M138.933626,35.4672961 L138.933626,24.3145987 L140.993655,24.3145987 L141.323463,26.9321645 C141.543818,26.0145329 141.954809,25.3320987 142.556436,24.8855855 C143.158788,24.4390724 143.98512,24.217625 145.033981,24.217625 L145.791451,24.217625 L145.791451,26.7968355 L144.684602,26.7968355 C144.242442,26.7968355 143.855371,26.8250592 143.518315,26.8836776 C143.180534,26.9415724 142.897117,27.0291382 142.66299,27.1456513 C142.197635,27.366375 141.87725,27.7311118 141.701111,28.2420329 C141.526422,28.7529539 141.440164,29.4411776 141.440164,30.3081513 L141.440164,35.4672961 L138.933626,35.4672961 Z" id="Fill-179"></path>
                <path d="M147.714556,35.4666447 L150.298654,35.4666447 L150.298654,24.3139474 L147.714556,24.3139474 L147.714556,35.4666447 Z M147.733402,22.7421053 C147.47463,22.4975 147.344882,22.0575 147.344882,21.4242763 C147.344882,20.8033553 147.487678,20.3705921 147.77182,20.1245395 C148.058136,19.8784868 148.479275,19.7561842 149.035237,19.7561842 C149.593373,19.7561842 150.012337,19.8784868 150.298654,20.1245395 C150.582796,20.3705921 150.725592,20.8033553 150.725592,21.4242763 C150.725592,22.0184211 150.58642,22.4482895 150.307352,22.7138816 C150.029009,22.9780263 149.605695,23.1111842 149.035237,23.1111842 C148.427086,23.1111842 147.992899,22.9888816 147.733402,22.7421053 Z" id="Fill-180"></path>
                <path d="M159.448896,35.4672961 L158.011515,35.4672961 C157.493246,35.4672961 157.030065,35.4318355 156.622698,35.3609145 C156.213882,35.2892697 155.873926,35.1894013 155.601382,35.0598618 C155.04542,34.7754539 154.659799,34.310125 154.446692,33.663875 C154.232861,33.0161776 154.125583,32.1311118 154.125583,31.0050592 L154.125583,26.5638092 L151.950302,26.5638092 L151.950302,24.4108487 L152.94045,24.4108487 C153.121663,24.4108487 153.276781,24.4007171 153.40653,24.3819013 C153.536278,24.3623618 153.646456,24.3334145 153.736337,24.2943355 C153.91755,24.203875 154.048024,24.0424934 154.125583,23.8087434 C154.203867,23.5764408 154.254607,23.2341382 154.281426,22.7818355 C154.294473,22.5357829 154.303896,22.2709145 154.309695,21.9857829 C154.316219,21.701375 154.320568,21.4748618 154.320568,21.3076908 L156.496574,21.3076908 L156.496574,24.3145987 L159.448896,24.3145987 L159.448896,26.5638092 L156.496574,26.5638092 L156.496574,30.5788092 C156.496574,30.941375 156.508172,31.2612434 156.534266,31.5398618 C156.561811,31.8170329 156.599503,32.0464408 156.651692,32.2280855 C156.742299,32.5906513 156.942358,32.8258487 157.254044,32.9365724 C157.564281,33.0458487 158.030361,33.100125 158.652284,33.100125 L159.448896,33.100125 L159.448896,35.4672961 Z" id="Fill-181"></path>
                <path d="M160.886568,39.6376711 L160.886568,37.4268158 L162.189127,37.4268158 C162.434852,37.4268158 162.657382,37.4137895 162.858891,37.3870132 C163.059675,37.3616842 163.23074,37.3298421 163.373536,37.2907632 C163.672175,37.2003026 163.920799,37.0316842 164.121583,36.7863553 C164.322367,36.5403026 164.533299,36.1784605 164.752929,35.7001053 L164.96676,35.1761579 L160.342929,24.3143816 L163.063299,24.3143816 L166.093905,31.8595132 L166.191036,32.3646447 L166.326583,31.8790526 L169.27963,24.3143816 L171.960133,24.3143816 L167.065207,36.1075395 C166.741198,36.8833289 166.440385,37.50425 166.161317,37.9695789 C165.882249,38.4356316 165.581435,38.7909605 165.258151,39.0362895 C164.92182,39.2823421 164.510828,39.4437237 164.024453,39.5211579 C163.538077,39.5993158 162.919778,39.6376711 162.168831,39.6376711 L160.886568,39.6376711 Z" id="Fill-182"></path>
            </g>
        </g>
    </g>
</svg>