<svg xmlns="http://www.w3.org/2000/svg" xmlns:xlink="http://www.w3.org/1999/xlink" width="285" height="248" viewBox="0 0 285 248"><defs><path id="7uroa" d="M611.39 318.35a5.37 5.37 0 0 1-2.96 7.04 5.41 5.41 0 0 1-4.11-9.99 5.43 5.43 0 0 1 7.07 2.95"/><path id="7urob" d="M611.39 477.35a5.37 5.37 0 0 1-2.96 7.04 5.41 5.41 0 0 1-4.11-9.99 5.43 5.43 0 0 1 7.07 2.95"/><path id="7uroc" d="M573.69 343.13a5.41 5.41 0 0 1 .99 7.58 5.43 5.43 0 0 1-7.58.96 5.37 5.37 0 0 1-.95-7.58 5.36 5.36 0 0 1 7.54-.96"/><path id="7urod" d="M554.11 383.05a5.4 5.4 0 0 1 4.63 6.06 5.38 5.38 0 1 1-4.63-6.06"/><path id="7uroe" d="M557.35 427.41a5.44 5.44 0 0 1 7.06 2.95 5.4 5.4 0 1 1-7.06-2.95"/><path id="7urof" d="M582.15 464.12a5.37 5.37 0 1 1 8.51 6.57 5.38 5.38 0 1 1-8.51-6.57"/><path id="7urog" d="M666.39 481.42a5.47 5.47 0 0 1 2.92-7.02 5.4 5.4 0 1 1 4.12 10.01 5.4 5.4 0 0 1-7.04-2.99"/><path id="7uroh" d="M666.39 321.42a5.47 5.47 0 0 1 2.92-7.02 5.43 5.43 0 0 1 7.06 2.94 5.4 5.4 0 1 1-9.98 4.08"/><path id="7uroi" d="M704.11 456.64a5.39 5.39 0 1 1 6.57-8.52 5.39 5.39 0 1 1-6.57 8.52"/><path id="7uroj" d="M723.7 416.71a5.47 5.47 0 0 1-4.66-6.04 5.43 5.43 0 0 1 6.08-4.62 5.37 5.37 0 0 1 4.64 6.05 5.35 5.35 0 0 1-6.06 4.61"/><path id="7urok" d="M720.47 372.34a5.47 5.47 0 0 1-7.07-2.89 5.4 5.4 0 0 1 2.95-7.04 5.38 5.38 0 1 1 4.12 9.93"/><path id="7urol" d="M695.63 334.7a5.5 5.5 0 0 1-7.56 1.03 5.47 5.47 0 0 1-.95-7.6 5.4 5.4 0 0 1 7.57-1.03 5.4 5.4 0 0 1 .94 7.6"/><path id="7urom" d="M595.11 406.16a5.43 5.43 0 1 1-3.95 6.62 5.47 5.47 0 0 1 3.95-6.62"/><path id="7uron" d="M682.77 393.71a5.44 5.44 0 1 1-2.67-10.56 5.44 5.44 0 0 1 2.67 10.56"/><path id="7uroo" d="M611.9 340.24a6.37 6.37 0 0 1-11.09 6.24 6.38 6.38 0 0 1 2.4-8.66 6.4 6.4 0 0 1 8.69 2.42"/><path id="7urop" d="M585.59 361.88a6.37 6.37 0 0 1-6.48 10.94 6.38 6.38 0 0 1-2.24-8.69 6.38 6.38 0 0 1 8.72-2.25"/><path id="7uroq" d="M573.43 394a6.35 6.35 0 1 1-.19 12.7 6.35 6.35 0 0 1 .19-12.7"/><path id="7uror" d="M579.23 426.81a6.38 6.38 0 0 1 8.65 2.42 6.4 6.4 0 0 1-2.41 8.67 6.4 6.4 0 0 1-8.65-2.41 6.39 6.39 0 0 1 2.41-8.68"/><path id="7uros" d="M600.89 453.11a6.35 6.35 0 1 1 10.93 6.48 6.35 6.35 0 0 1-10.93-6.48"/><path id="7urot" d="M666.81 459.46a6.36 6.36 0 0 1 11.08-6.24 6.4 6.4 0 0 1-2.4 8.65 6.37 6.37 0 0 1-8.68-2.41"/><path id="7urou" d="M693.11 437.82a6.35 6.35 0 1 1 6.48-10.93 6.35 6.35 0 0 1-6.48 10.93"/><path id="7urov" d="M704.29 405.71a6.4 6.4 0 0 1-6.29-6.42 6.38 6.38 0 0 1 6.42-6.29 6.35 6.35 0 1 1-.13 12.71"/><path id="7urow" d="M698.44 371.89a6.39 6.39 0 0 1-8.63-2.43 6.38 6.38 0 0 1 2.42-8.65 6.39 6.39 0 0 1 8.66 2.4 6.37 6.37 0 0 1-2.45 8.68"/><path id="7urox" d="M676.81 345.59a6.35 6.35 0 1 1-2.25-8.73 6.35 6.35 0 0 1 2.25 8.73"/><path id="7uroy" d="M670.46 302.1a4.82 4.82 0 0 1-9.28-2.55 4.82 4.82 0 1 1 9.28 2.55"/><path id="7uroz" d="M617.48 299.63a4.83 4.83 0 0 1-3.45 5.83 4.78 4.78 0 0 1-5.87-3.43 4.83 4.83 0 0 1 3.45-5.88 4.83 4.83 0 0 1 5.87 3.48"/><path id="7uroA" d="M592.02 308.46a4.81 4.81 0 1 1-8.4 4.69 4.81 4.81 0 0 1 8.4-4.69"/><path id="7uroB" d="M570.27 323.44a4.85 4.85 0 0 1-.08 6.8 4.81 4.81 0 1 1 .08-6.8"/><path id="7uroC" d="M553.28 343.67a4.84 4.84 0 0 1 1.68 6.58 4.78 4.78 0 0 1-6.56 1.7 4.8 4.8 0 1 1 4.88-8.28"/><path id="7uroD" d="M541.13 368.18a4.8 4.8 0 0 1 3.32 5.91 4.77 4.77 0 0 1-5.88 3.36 4.85 4.85 0 0 1-3.41-5.93 4.84 4.84 0 0 1 5.97-3.34"/><path id="7uroE" d="M536.9 394a4.84 4.84 0 0 1 4.73 4.85 4.78 4.78 0 0 1-4.83 4.78 4.84 4.84 0 0 1-4.8-4.84 4.87 4.87 0 0 1 4.9-4.79"/><path id="7uroF" d="M538.64 421.14c2.55-.62 5.2.89 5.85 3.48a4.78 4.78 0 0 1-3.42 5.84 4.87 4.87 0 0 1-5.93-3.42 4.9 4.9 0 0 1 3.5-5.9"/><path id="7uroG" d="M547.45 446.61a4.8 4.8 0 0 1 4.75 8.36 4.83 4.83 0 0 1-6.59-1.78 4.86 4.86 0 0 1 1.84-6.58"/><path id="7uroH" d="M563.45 468.36a4.85 4.85 0 0 1 6.8.07 4.77 4.77 0 0 1-.05 6.77 4.82 4.82 0 0 1-6.83 0 4.85 4.85 0 0 1 .08-6.84"/><path id="7uroI" d="M583.68 485.36a4.8 4.8 0 0 1 8.28 4.87 4.85 4.85 0 0 1-6.6 1.76 4.85 4.85 0 0 1-1.68-6.63"/><path id="7uroJ" d="M607.18 497.51a4.79 4.79 0 0 1 5.92-3.32 4.74 4.74 0 0 1 3.33 5.87 4.84 4.84 0 0 1-5.91 3.43 4.86 4.86 0 0 1-3.34-5.98"/><path id="7uroK" d="M660.15 500a4.8 4.8 0 0 1 9.28-2.41 4.8 4.8 0 0 1-3.4 5.91c-2.58.62-5.2-.9-5.88-3.5"/><path id="7uroL" d="M685.62 491.17a4.82 4.82 0 0 1 1.81-6.55 4.82 4.82 0 0 1 4.77 8.4 4.85 4.85 0 0 1-6.58-1.85"/><path id="7uroM" d="M707.37 475.17a4.8 4.8 0 0 1 6.86-6.73 4.82 4.82 0 0 1-.02 6.82 4.86 4.86 0 0 1-6.84-.09"/><path id="7uroN" d="M725.36 454.93a4.8 4.8 0 0 1 4.87-8.26 4.81 4.81 0 0 1 1.76 6.6 4.84 4.84 0 0 1-6.63 1.66"/><path id="7uroO" d="M736.5 431.44a4.8 4.8 0 0 1 2.58-9.26 4.83 4.83 0 0 1 3.4 5.91 4.86 4.86 0 0 1-5.98 3.35"/><path id="7uroP" d="M741.74 404.6a4.81 4.81 0 0 1 .11-9.6 4.8 4.8 0 1 1-.11 9.6"/><path id="7uroQ" d="M739.01 378.46a4.8 4.8 0 0 1-2.42-9.29c2.6-.7 5.19.85 5.92 3.42.64 2.6-.9 5.22-3.5 5.87"/><path id="7uroR" d="M730.16 353a4.8 4.8 0 1 1-4.72-8.34 4.82 4.82 0 0 1 6.59 1.76 4.84 4.84 0 0 1-1.87 6.58"/><path id="7uroS" d="M715.16 331.26a4.79 4.79 0 0 1-6.77-.07 4.76 4.76 0 0 1 .05-6.77 4.82 4.82 0 0 1 6.82-.01 4.84 4.84 0 0 1-.1 6.85"/><path id="7uroT" d="M694.94 313.28a4.86 4.86 0 0 1-6.58 1.69 4.78 4.78 0 0 1-1.68-6.56 4.8 4.8 0 0 1 6.56-1.78 4.84 4.84 0 0 1 1.7 6.65"/><path id="7uroU" d="M598.41 288.73a4.36 4.36 0 1 1-8.08 3.3 4.36 4.36 0 1 1 8.08-3.3"/><path id="7uroV" d="M570.85 302.73a4.36 4.36 0 1 1-6.96 5.28 4.38 4.38 0 0 1 .84-6.14 4.41 4.41 0 0 1 6.12.86"/><path id="7uroW" d="M548.06 323.92a4.36 4.36 0 1 1-5.35 6.87 4.33 4.33 0 0 1-.78-6.12 4.37 4.37 0 0 1 6.13-.75"/><path id="7uroX" d="M531.08 349.34c2.25.9 3.27 3.5 2.34 5.75a4.4 4.4 0 0 1-8.06-3.45 4.37 4.37 0 0 1 5.72-2.3"/><path id="7uroY" d="M521.98 379.04a4.35 4.35 0 1 1-1.17 8.62 4.35 4.35 0 1 1 1.17-8.62"/><path id="7uroZ" d="M520.83 410.04a4.36 4.36 0 1 1 1.09 8.64 4.35 4.35 0 1 1-1.09-8.64"/><path id="7uroaa" d="M527.73 440.34a4.36 4.36 0 1 1 3.31 8.07 4.35 4.35 0 1 1-3.31-8.07"/><path id="7uroab" d="M541.73 467.92a4.35 4.35 0 1 1 5.29 6.93 4.35 4.35 0 1 1-5.29-6.93"/><path id="7uroac" d="M562.91 490.72a4.37 4.37 0 1 1 6.9 5.34 4.36 4.36 0 1 1-6.9-5.34"/><path id="7uroad" d="M589.33 506.7a4.36 4.36 0 1 1 8.05 3.37 4.35 4.35 0 0 1-5.73 2.35 4.4 4.4 0 0 1-2.32-5.72"/><path id="7uroae" d="M679.36 511.05a4.35 4.35 0 1 1 8.05-3.3 4.34 4.34 0 0 1-2.39 5.71 4.36 4.36 0 0 1-5.66-2.41"/><path id="7uroaf" d="M706.92 497.04a4.36 4.36 0 1 1 6.93-5.28 4.34 4.34 0 0 1-.83 6.13 4.38 4.38 0 0 1-6.1-.85"/><path id="7uroag" d="M729.73 475.83a4.33 4.33 0 0 1-.8-6.15 4.34 4.34 0 0 1 6.12-.75 4.36 4.36 0 1 1-5.32 6.9"/><path id="7uroah" d="M746.71 449.39a4.36 4.36 0 0 1-2.37-5.74 4.33 4.33 0 0 1 5.72-2.29 4.35 4.35 0 1 1-3.35 8.03"/><path id="7uroai" d="M755.81 419.68a4.36 4.36 0 1 1 1.16-8.64 4.38 4.38 0 0 1 3.77 4.93 4.4 4.4 0 0 1-4.93 3.71"/><path id="7uroaj" d="M756.95 388.68a4.37 4.37 0 0 1-4.92-3.8 4.34 4.34 0 0 1 3.81-4.84 4.34 4.34 0 0 1 4.9 3.78 4.39 4.39 0 0 1-3.79 4.86"/><path id="7uroak" d="M750.04 358.39a4.33 4.33 0 0 1-5.72-2.4 4.33 4.33 0 0 1 2.43-5.65 4.34 4.34 0 1 1 3.29 8.05"/><path id="7uroal" d="M736.03 331.85a4.36 4.36 0 1 1-5.28-6.94 4.35 4.35 0 1 1 5.28 6.94"/><path id="7uroam" d="M714.84 309.03a4.34 4.34 0 0 1-6.16.8 4.31 4.31 0 0 1-.74-6.11 4.34 4.34 0 0 1 6.13-.8 4.4 4.4 0 0 1 .77 6.11"/><path id="7uroan" d="M689.39 292.06a4.33 4.33 0 0 1-5.74 2.35 4.33 4.33 0 0 1-2.3-5.71 4.36 4.36 0 0 1 5.72-2.36c2.21.95 3.2 3.5 2.32 5.72"/><path id="7uroao" d="M572.83 277.85a3.67 3.67 0 0 1-1.4 4.96 3.63 3.63 0 1 1-3.59-6.33c1.76-1 4-.4 4.99 1.37"/><path id="7uroap" d="M520.5 327.5a3.67 3.67 0 0 1 1.28 4.99 3.62 3.62 0 0 1-4.97 1.31 3.66 3.66 0 1 1 3.69-6.3"/><path id="7uroaq" d="M500.7 396a3.65 3.65 0 1 1-3.7 3.63 3.66 3.66 0 0 1 3.7-3.63"/><path id="7uroar" d="M517.86 465.45a3.68 3.68 0 0 1 4.96 1.38 3.65 3.65 0 1 1-4.96-1.38"/><path id="7uroas" d="M566.51 517.78a3.65 3.65 0 0 1 6.29 3.7 3.65 3.65 0 0 1-6.29-3.7"/><path id="7uroat" d="M705.46 521.42a3.66 3.66 0 0 1 1.37-4.95 3.66 3.66 0 0 1 3.62 6.35 3.67 3.67 0 0 1-4.99-1.4"/><path id="7uroau" d="M756.78 471.79a3.64 3.64 0 0 1-1.27-4.97 3.63 3.63 0 1 1 6.29 3.67 3.67 3.67 0 0 1-5.02 1.3"/><path id="7uroav" d="M777.6 403.3a3.66 3.66 0 0 1 .06-7.3 3.66 3.66 0 0 1-.06 7.3"/><path id="7uroaw" d="M760.43 333.83a3.65 3.65 0 0 1-3.6-6.36 3.66 3.66 0 0 1 3.6 6.36"/><path id="7uroax" d="M710.79 281.5a3.67 3.67 0 0 1-4.98 1.29 3.65 3.65 0 1 1 4.98-1.29"/></defs><g><g  transform="translate(-497 -276)"><g ><use fill="#fff" xlink:href="#7uroa"/></g><g ><use fill="#fff" xlink:href="#7urob"/></g><g ><use fill="#fff" xlink:href="#7uroc"/></g><g ><use fill="#fff" xlink:href="#7urod"/></g><g ><use fill="#fff" xlink:href="#7uroe"/></g><g ><use fill="#fff" xlink:href="#7urof"/></g><g ><use fill="#fff" xlink:href="#7urog"/></g><g ><use fill="#fff" xlink:href="#7uroh"/></g><g ><use fill="#fff" xlink:href="#7uroi"/></g><g ><use fill="#fff" xlink:href="#7uroj"/></g><g ><use fill="#fff" xlink:href="#7urok"/></g><g ><use fill="#fff" xlink:href="#7urol"/></g><g ><use fill="#fff" xlink:href="#7urom"/></g><g ><use fill="#fff" xlink:href="#7uron"/></g><g ><use fill="#fff" xlink:href="#7uroo"/></g><g ><use fill="#fff" xlink:href="#7urop"/></g><g ><use fill="#fff" xlink:href="#7uroq"/></g><g ><use fill="#fff" xlink:href="#7uror"/></g><g ><use fill="#fff" xlink:href="#7uros"/></g><g ><use fill="#fff" xlink:href="#7urot"/></g><g ><use fill="#fff" xlink:href="#7urou"/></g><g ><use fill="#fff" xlink:href="#7urov"/></g><g ><use fill="#fff" xlink:href="#7urow"/></g><g ><use fill="#fff" xlink:href="#7urox"/></g><g ><use fill="#fff" xlink:href="#7uroy"/></g><g ><use fill="#fff" xlink:href="#7uroz"/></g><g ><use fill="#fff" xlink:href="#7uroA"/></g><g ><use fill="#fff" xlink:href="#7uroB"/></g><g ><use fill="#fff" xlink:href="#7uroC"/></g><g ><use fill="#fff" xlink:href="#7uroD"/></g><g ><use fill="#fff" xlink:href="#7uroE"/></g><g ><use fill="#fff" xlink:href="#7uroF"/></g><g ><use fill="#fff" xlink:href="#7uroG"/></g><g ><use fill="#fff" xlink:href="#7uroH"/></g><g ><use fill="#fff" xlink:href="#7uroI"/></g><g ><use fill="#fff" xlink:href="#7uroJ"/></g><g ><use fill="#fff" xlink:href="#7uroK"/></g><g ><use fill="#fff" xlink:href="#7uroL"/></g><g ><use fill="#fff" xlink:href="#7uroM"/></g><g ><use fill="#fff" xlink:href="#7uroN"/></g><g ><use fill="#fff" xlink:href="#7uroO"/></g><g ><use fill="#fff" xlink:href="#7uroP"/></g><g ><use fill="#fff" xlink:href="#7uroQ"/></g><g ><use fill="#fff" xlink:href="#7uroR"/></g><g ><use fill="#fff" xlink:href="#7uroS"/></g><g ><use fill="#fff" xlink:href="#7uroT"/></g><g ><use fill="#fff" xlink:href="#7uroU"/></g><g ><use fill="#fff" xlink:href="#7uroV"/></g><g ><use fill="#fff" xlink:href="#7uroW"/></g><g ><use fill="#fff" xlink:href="#7uroX"/></g><g ><use fill="#fff" xlink:href="#7uroY"/></g><g ><use fill="#fff" xlink:href="#7uroZ"/></g><g ><use fill="#fff" xlink:href="#7uroaa"/></g><g ><use fill="#fff" xlink:href="#7uroab"/></g><g ><use fill="#fff" xlink:href="#7uroac"/></g><g ><use fill="#fff" xlink:href="#7uroad"/></g><g ><use fill="#fff" xlink:href="#7uroae"/></g><g ><use fill="#fff" xlink:href="#7uroaf"/></g><g ><use fill="#fff" xlink:href="#7uroag"/></g><g ><use fill="#fff" xlink:href="#7uroah"/></g><g ><use fill="#fff" xlink:href="#7uroai"/></g><g ><use fill="#fff" xlink:href="#7uroaj"/></g><g ><use fill="#fff" xlink:href="#7uroak"/></g><g ><use fill="#fff" xlink:href="#7uroal"/></g><g ><use fill="#fff" xlink:href="#7uroam"/></g><g ><use fill="#fff" xlink:href="#7uroan"/></g><g ><use fill="#fff" xlink:href="#7uroao"/></g><g ><use fill="#fff" xlink:href="#7uroap"/></g><g ><use fill="#fff" xlink:href="#7uroaq"/></g><g ><use fill="#fff" xlink:href="#7uroar"/></g><g ><use fill="#fff" xlink:href="#7uroas"/></g><g ><use fill="#fff" xlink:href="#7uroat"/></g><g ><use fill="#fff" xlink:href="#7uroau"/></g><g ><use fill="#fff" xlink:href="#7uroav"/></g><g ><use fill="#fff" xlink:href="#7uroaw"/></g><g ><use fill="#fff" xlink:href="#7uroax"/></g></g></g></svg>