<?xml version="1.0" standalone="no"?>
<!DOCTYPE svg PUBLIC "-//W3C//DTD SVG 20010904//EN"
 "http://www.w3.org/TR/2001/REC-SVG-20010904/DTD/svg10.dtd">
<svg version="1.0" xmlns="http://www.w3.org/2000/svg"
 width="310.000000pt" height="310.000000pt" viewBox="0 0 310.000000 310.000000"
 preserveAspectRatio="xMidYMid meet">
<metadata>
Created by potrace 1.11, written by Peter Selinger 2001-2013
</metadata>
<g transform="translate(0.000000,310.000000) scale(0.100000,-0.100000)"
fill="#000000" stroke="none">
<path d="M1314 3087 c5 -15 0 -17 -29 -14 -27 3 -35 1 -35 -12 0 -10 -3 -12
-8 -6 -4 6 -17 12 -30 12 -19 2 -21 -1 -12 -12 9 -11 5 -12 -25 -5 -27 6 -33
5 -26 -3 6 -9 2 -12 -15 -13 -15 -1 -21 2 -17 10 9 15 -30 -16 -40 -32 -7 -10
-12 -10 -23 -1 -10 8 -14 8 -14 0 0 -6 -3 -10 -7 -10 -22 4 -43 -2 -39 -10 4
-5 -4 -7 -16 -3 -12 3 -19 1 -15 -4 3 -6 -3 -11 -14 -11 -13 -1 -17 2 -12 10
4 7 0 6 -10 -2 -9 -7 -14 -18 -10 -24 3 -5 1 -7 -4 -4 -6 4 -16 0 -23 -8 -6
-7 -17 -12 -25 -9 -7 3 -16 0 -20 -5 -3 -6 -11 -8 -17 -5 -7 5 -8 2 -3 -6 5
-8 3 -11 -6 -8 -8 3 -22 -7 -31 -21 -10 -14 -18 -21 -18 -16 0 6 3 15 8 21 4
5 0 1 -10 -8 -19 -21 -33 -24 -22 -5 5 8 2 8 -9 -2 -9 -7 -17 -19 -17 -26 0
-7 -10 -11 -24 -10 -19 2 -23 -1 -19 -13 4 -10 2 -13 -5 -8 -7 4 -12 1 -12 -8
0 -9 -6 -13 -14 -10 -9 3 -17 -3 -21 -17 -6 -17 -9 -19 -16 -8 -7 12 -9 11
-10 -1 -1 -8 -1 -18 0 -22 0 -4 -8 -5 -19 -3 -22 4 -84 -60 -74 -77 4 -6 -2
-6 -15 1 -12 7 -21 8 -20 4 1 -4 1 -16 0 -27 -1 -16 -3 -17 -18 -5 -10 8 -14
9 -10 2 4 -6 2 -15 -4 -18 -5 -4 -8 -13 -5 -20 3 -8 -2 -12 -12 -10 -26 4 -34
-5 -20 -23 11 -13 10 -15 -4 -9 -17 6 -23 -3 -19 -26 1 -5 -3 -6 -9 -2 -18 11
-32 -5 -19 -21 7 -9 8 -14 3 -13 -22 4 -35 -2 -28 -13 5 -8 2 -9 -10 -5 -14 6
-15 3 -6 -13 6 -11 7 -20 3 -19 -21 4 -32 -2 -27 -15 3 -8 -3 -15 -14 -18 -10
-3 -19 -13 -20 -22 -1 -9 -3 -23 -4 -31 -1 -8 -5 -12 -10 -9 -4 3 -8 -2 -8
-10 0 -9 -5 -16 -11 -16 -5 0 -7 -4 -4 -10 3 -5 1 -10 -5 -10 -6 0 -8 -5 -4
-12 6 -10 5 -10 -8 0 -13 10 -15 8 -14 -15 1 -18 -4 -27 -12 -25 -10 2 -10 -2
-1 -20 12 -22 11 -22 -7 -8 -10 8 -16 10 -12 6 4 -5 2 -16 -5 -24 -10 -13 -9
-14 2 -8 9 6 12 4 9 -5 -3 -8 -9 -14 -14 -14 -22 -1 -35 -17 -24 -30 8 -10 8
-15 0 -20 -8 -5 -8 -10 0 -20 8 -10 6 -13 -7 -11 -13 1 -17 -5 -15 -23 2 -15
0 -21 -7 -16 -7 3 -11 3 -10 -2 4 -21 -2 -34 -13 -27 -7 4 -8 3 -4 -5 6 -9 12
-9 24 1 15 11 15 11 5 -3 -7 -9 -10 -19 -6 -23 4 -4 0 -4 -10 0 -13 5 -16 2
-11 -10 3 -9 0 -24 -7 -33 -10 -11 -10 -14 -2 -9 9 5 11 2 7 -8 -3 -9 -10 -14
-16 -13 -6 1 -12 -11 -13 -28 -4 -29 -3 -29 9 -7 6 12 15 20 18 16 4 -3 -2
-16 -13 -28 -13 -13 -19 -30 -16 -44 3 -15 0 -22 -8 -19 -6 3 -12 -1 -12 -9 0
-7 4 -11 8 -9 3 3 9 -4 12 -16 4 -16 3 -18 -8 -9 -10 8 -15 8 -21 -1 -4 -8 -3
-9 4 -5 7 4 12 4 13 -1 0 -4 2 -16 4 -26 2 -9 -1 -15 -6 -11 -5 3 -6 10 -3 16
4 6 2 8 -3 5 -7 -4 -11 -75 -12 -188 -1 -144 1 -179 11 -173 10 6 10 5 1 -7
-6 -8 -10 -24 -8 -34 2 -11 4 -24 4 -28 1 -5 6 -5 13 -1 6 4 8 3 4 -4 -3 -6
-2 -13 3 -16 11 -7 2 -48 -13 -58 -7 -5 -5 -8 6 -8 9 0 20 -5 24 -12 4 -7 3
-8 -4 -4 -7 4 -12 1 -12 -8 0 -8 5 -16 10 -18 6 -2 12 -13 15 -26 2 -12 0 -20
-5 -17 -5 3 -12 0 -16 -6 -4 -7 -3 -9 3 -6 6 4 19 -3 29 -14 17 -19 17 -20 0
-13 -17 6 -17 5 -5 -17 7 -13 12 -25 11 -26 -6 -9 0 -23 7 -19 13 8 19 -52 7
-64 -8 -8 -6 -9 8 -4 16 6 18 4 13 -9 -5 -13 -1 -17 16 -18 21 0 21 -1 2 -9
-11 -5 -14 -9 -6 -9 7 -1 11 -7 8 -14 -3 -8 -1 -20 5 -28 8 -11 9 -10 4 3 -3
10 -3 18 0 18 6 0 26 -48 31 -75 2 -11 8 -21 13 -23 6 -2 10 -12 10 -23 0 -10
5 -19 10 -19 6 0 10 -9 10 -20 0 -11 7 -20 15 -20 8 0 15 -5 15 -11 0 -5 -6
-7 -12 -3 -9 6 -9 3 0 -9 8 -9 17 -16 20 -15 20 2 23 -4 11 -19 -7 -10 -10
-15 -5 -11 13 11 36 -15 24 -29 -7 -8 -3 -10 14 -5 21 5 22 4 9 -12 -8 -9 -11
-19 -7 -23 3 -3 6 -1 6 5 0 6 7 9 15 6 8 -4 15 -10 15 -16 0 -5 -5 -6 -12 -2
-7 4 -8 3 -4 -4 4 -7 14 -12 23 -12 11 0 14 -6 10 -21 -4 -16 -3 -18 9 -8 11
9 14 7 14 -10 0 -19 11 -26 34 -22 5 1 3 -5 -4 -14 -11 -13 -10 -14 5 -9 13 5
16 4 11 -4 -4 -7 -2 -12 4 -12 6 0 8 -4 5 -10 -3 -5 -1 -10 5 -10 16 0 40 -26
32 -34 -3 -4 2 -4 12 0 15 6 17 4 11 -6 -6 -10 -4 -12 9 -7 9 4 15 3 12 -2 -3
-5 3 -18 13 -30 14 -16 21 -18 25 -9 3 7 4 3 2 -10 -2 -12 -1 -20 4 -17 4 3
13 -2 20 -10 7 -8 19 -15 27 -15 10 0 13 -6 9 -17 -5 -15 -4 -15 9 1 15 19 15
19 15 -2 0 -15 6 -22 19 -22 22 0 44 -23 33 -36 -4 -4 1 -2 10 5 15 11 17 10
13 -11 -4 -23 -4 -23 12 -3 15 20 15 20 10 -3 -3 -12 -1 -20 3 -17 5 3 11 1
15 -5 3 -5 15 -10 26 -10 11 0 17 -4 14 -10 -3 -5 0 -7 8 -4 8 3 21 -1 29 -8
7 -7 25 -22 38 -33 23 -19 24 -19 10 -1 -14 18 -14 19 8 7 12 -6 22 -16 22
-20 0 -5 9 -11 20 -14 13 -3 18 -1 13 6 -4 7 0 6 10 -1 9 -8 21 -11 27 -7 5 3
14 -4 19 -17 6 -13 10 -17 10 -10 1 10 5 10 17 -2 8 -9 21 -16 27 -16 7 0 6 5
-3 11 -12 9 -12 10 3 5 10 -3 21 -6 23 -6 3 0 2 -5 -2 -12 -5 -8 -2 -9 9 -5
10 3 17 2 17 -2 0 -5 7 -12 16 -15 14 -5 15 -4 4 9 -11 13 -10 14 4 9 9 -3 16
-11 16 -18 0 -6 5 -4 10 4 6 10 10 11 10 3 0 -7 5 -13 11 -13 5 0 7 6 3 12 -4
7 2 5 14 -5 12 -11 26 -16 33 -11 7 4 10 3 6 -3 -4 -6 6 -13 23 -15 17 -3 30
-1 30 3 0 4 9 7 19 6 11 0 17 -5 15 -9 -3 -5 -10 -5 -16 -2 -7 4 -8 2 -4 -4 5
-9 13 -9 27 -2 13 7 19 7 19 0 0 -5 -5 -10 -12 -10 -6 0 -9 -3 -5 -6 3 -3 19
1 36 9 24 12 29 12 24 1 -3 -9 1 -14 12 -14 10 0 13 4 9 13 -6 9 -3 8 8 -1 13
-10 58 -13 195 -10 98 2 184 7 191 11 6 5 18 5 25 1 8 -6 8 -3 -1 9 -12 15
-11 15 17 7 17 -5 29 -5 26 0 -3 4 2 11 11 14 8 3 13 2 10 -3 -3 -5 0 -11 8
-14 11 -4 13 1 10 21 l-4 27 15 -25 c13 -22 20 -21 16 3 -1 4 9 2 21 -4 21
-11 22 -11 9 5 -12 15 -12 17 0 14 8 -2 17 -7 21 -13 5 -6 8 -5 8 3 0 7 5 10
10 7 6 -3 10 -1 10 6 0 9 3 9 14 0 16 -13 32 2 21 19 -3 6 -2 10 4 10 5 0 12
-8 14 -17 4 -16 5 -16 6 -1 1 11 7 14 20 11 10 -2 24 2 32 10 8 7 22 13 32 11
10 -1 14 2 11 8 -5 7 2 9 19 6 22 -4 25 -2 17 11 -6 13 -4 17 11 18 11 1 17
-3 13 -9 -4 -6 2 -6 15 1 11 7 21 19 21 28 0 15 2 15 13 2 6 -8 11 -13 10 -11
-1 2 6 12 15 23 21 24 39 25 21 2 -13 -16 -12 -17 4 -4 9 7 17 21 17 30 0 14
2 14 10 1 7 -11 10 -11 10 -2 0 7 4 11 9 7 5 -3 13 0 17 6 4 7 3 9 -4 5 -6 -3
-13 -3 -16 2 -2 4 4 9 15 9 11 1 29 12 40 25 11 13 18 17 14 11 -10 -20 6 -15
26 8 10 11 22 18 27 15 12 -7 35 18 25 27 -3 4 1 7 10 7 9 0 17 7 17 16 0 8 4
12 10 9 5 -3 20 1 32 9 12 9 18 16 12 16 -5 0 -16 -6 -23 -12 -11 -10 -11 -8
0 9 9 16 20 21 33 17 12 -4 16 -2 12 5 -4 6 -2 11 4 11 6 0 9 4 5 9 -3 5 -1
12 5 16 5 3 10 0 11 -7 0 -7 4 -3 9 10 5 12 17 22 26 22 14 0 14 3 4 15 -11
13 -10 14 2 10 17 -7 58 37 58 61 0 9 6 11 18 7 15 -6 15 -5 4 10 -12 14 -11
16 7 12 19 -3 20 -1 10 18 -7 12 -8 19 -4 15 13 -12 47 12 41 28 -4 10 -2 12
6 8 8 -5 9 -2 4 11 -6 16 -4 16 11 4 9 -8 14 -9 10 -2 -4 6 -2 15 4 18 5 4 8
13 5 21 -3 8 -1 14 5 14 6 0 8 4 4 9 -3 5 0 13 6 17 8 5 9 3 4 -7 -5 -8 1 -5
13 5 27 23 28 27 5 19 -16 -6 -16 -5 -4 10 7 9 18 14 25 10 6 -3 8 -2 3 2 -4
5 1 18 10 29 14 16 14 18 3 11 -9 -6 -7 -2 3 8 18 15 15 22 -6 18 -5 -1 -6 3
-2 9 3 6 9 8 13 6 4 -2 13 2 20 10 7 8 8 14 2 14 -5 0 -10 5 -10 10 0 6 6 9
12 8 7 -2 13 4 13 12 0 8 7 21 15 28 8 8 10 11 3 8 -18 -10 -9 25 10 36 10 5
15 14 11 19 -3 6 2 17 12 25 18 15 18 15 -1 9 -18 -6 -18 -5 3 15 25 24 30 39
5 19 -15 -13 -15 -12 -3 11 7 14 18 28 24 32 7 5 6 8 -4 8 -13 0 -13 1 0 10
12 8 12 10 1 10 -10 0 -11 3 -2 13 6 8 7 18 3 22 -4 5 -2 5 5 1 6 -3 14 -2 18
4 3 5 1 10 -5 10 -6 0 -8 5 -5 10 4 6 11 8 16 5 5 -4 5 4 -1 19 -5 15 -6 26
-1 26 5 0 7 9 4 20 -3 12 0 20 8 20 8 0 5 6 -7 16 -10 8 -13 12 -5 8 10 -5 13
-3 8 9 -4 10 -2 14 7 11 10 -4 13 41 14 211 1 138 -3 215 -9 215 -6 0 -7 -5
-3 -12 4 -7 3 -8 -5 -4 -6 4 -9 11 -6 16 3 4 2 10 -2 13 -5 2 -3 3 3 1 6 -1
11 4 11 12 0 8 -5 13 -11 11 -7 -3 -11 9 -12 29 0 21 3 31 10 28 6 -3 2 2 -8
10 -18 15 -15 21 8 17 5 -1 4 4 -2 12 -7 8 -8 18 -4 23 4 4 -1 2 -11 -5 -9 -8
-20 -11 -24 -7 -3 3 -1 6 7 6 10 0 10 4 -1 17 -12 15 -12 16 6 10 19 -7 19 -6
2 7 -12 10 -14 15 -6 18 7 2 9 10 5 17 -6 9 -11 9 -24 -1 -14 -10 -15 -10 -4
2 6 8 12 20 12 28 0 8 -5 10 -12 6 -10 -5 -10 -4 -1 6 9 10 9 19 -2 40 -8 15
-11 31 -7 36 4 5 0 3 -9 -4 -13 -10 -15 -8 -11 18 3 24 1 30 -14 30 -15 0 -16
2 -5 9 11 7 10 11 -7 20 -15 8 -19 18 -16 37 3 18 1 23 -7 18 -9 -5 -10 -2 -6
9 7 19 -30 60 -46 50 -6 -3 -7 -1 -3 6 6 8 12 9 20 2 9 -8 13 -7 13 4 0 8 -3
12 -7 10 -4 -2 -16 2 -26 10 -18 15 -18 15 1 8 l20 -6 -20 20 c-11 11 -23 19
-27 16 -5 -2 -8 1 -8 6 0 6 5 11 12 11 16 0 3 11 -19 15 -10 2 -19 4 -21 4 -1
1 2 10 8 21 9 16 8 18 -5 14 -14 -6 -21 12 -16 39 1 5 -3 6 -9 2 -5 -3 -10 0
-10 7 0 10 -3 9 -11 -2 -8 -12 -9 -10 -4 8 4 13 2 22 -5 22 -6 0 -8 5 -4 13 6
8 3 8 -9 -1 -14 -12 -16 -11 -12 7 3 19 -7 26 -36 23 -3 0 -4 13 -3 29 2 24
-1 28 -11 19 -11 -9 -19 -3 -40 29 -14 23 -32 41 -40 41 -7 0 -17 5 -21 12 -4
7 -3 8 4 4 8 -5 10 -2 6 8 -7 19 -20 21 -27 4 -3 -7 -6 -3 -6 10 -1 13 -7 22
-17 22 -8 0 -12 5 -9 10 3 6 -3 10 -13 10 -11 0 -23 7 -26 16 -3 8 -10 12 -16
9 -6 -4 -7 1 -3 12 6 16 5 16 -10 4 -15 -12 -17 -12 -11 3 4 11 2 16 -7 14 -8
-2 -13 3 -11 11 3 12 1 12 -14 0 -12 -9 -15 -9 -10 -1 4 7 2 12 -4 12 -6 0 -8
5 -4 12 5 8 2 9 -9 5 -9 -3 -19 -1 -23 5 -4 7 -10 6 -16 -3 -8 -11 -9 -11 -5
1 2 8 -1 20 -8 26 -19 19 -75 45 -85 39 -5 -3 -12 0 -16 6 -5 8 -3 9 6 4 9 -5
11 -4 6 4 -6 9 -11 9 -22 0 -14 -11 -19 -2 -15 24 1 4 -8 3 -19 -3 -16 -8 -18
-8 -14 4 4 11 -1 14 -21 12 -15 -2 -31 3 -38 13 -7 10 -19 21 -27 26 -13 7
-13 6 -2 -7 11 -13 11 -18 0 -24 -7 -4 -10 -4 -6 1 11 11 -18 35 -42 35 -14 0
-19 4 -14 13 6 10 4 10 -7 0 -7 -7 -18 -13 -23 -13 -6 0 -4 5 4 10 11 7 11 10
2 10 -8 0 -10 5 -6 13 6 9 4 9 -8 -1 -11 -9 -18 -10 -23 -2 -3 6 -10 8 -15 5
-5 -3 -23 1 -39 10 -19 9 -32 11 -36 5 -3 -6 -12 -10 -18 -10 -7 0 -6 4 3 11
12 8 12 10 -5 8 -36 -3 -46 1 -40 14 4 6 0 4 -8 -5 -13 -17 -15 -16 -26 5 -6
12 -10 15 -8 7 3 -8 -2 -21 -10 -29 -12 -11 -14 -11 -12 0 3 26 -1 36 -16 36
-8 0 -12 -4 -9 -9 3 -4 0 -8 -5 -8 -6 0 -11 4 -11 9 0 5 -81 9 -181 10 -141 1
-179 -2 -173 -12 5 -9 4 -9 -7 1 -16 15 -29 16 -29 1 0 -5 6 -7 13 -3 9 6 9 4
0 -6 -11 -12 -16 -11 -29 6 -14 16 -15 17 -10 1z m611 -45 c-3 -3 -11 0 -18 7
-9 10 -8 11 6 5 10 -3 15 -9 12 -12z m410 -162 c3 -6 -1 -7 -9 -4 -18 7 -21
14 -7 14 6 0 13 -4 16 -10z m-1773 -147 c-6 -2 -9 -10 -6 -15 4 -7 2 -8 -5 -4
-13 9 -5 26 12 25 9 0 8 -2 -1 -6z m2363 -473 c3 -5 1 -10 -4 -10 -6 0 -11 5
-11 10 0 6 2 10 4 10 3 0 8 -4 11 -10z m-2785 -80 c0 -5 -5 -10 -11 -10 -5 0
-7 5 -4 10 3 6 8 10 11 10 2 0 4 -4 4 -10z m2874 -126 c3 -8 2 -12 -4 -9 -6 3
-10 10 -10 16 0 14 7 11 14 -7z m76 -324 c0 -5 -5 -10 -11 -10 -5 0 -7 5 -4
10 3 6 8 10 11 10 2 0 4 -4 4 -10z m-3063 -65 c0 -8 -4 -12 -9 -9 -5 3 -6 10
-3 15 9 13 12 11 12 -6z m1 -310 c-3 -3 -9 2 -12 12 -6 14 -5 15 5 6 7 -7 10
-15 7 -18z m2682 -829 c0 -2 -7 -9 -15 -16 -13 -11 -14 -10 -9 4 5 14 24 23
24 12z m-2129 -173 c13 -16 12 -17 -3 -4 -17 13 -22 21 -14 21 2 0 10 -8 17
-17z m1909 -33 c0 -5 -2 -10 -4 -10 -3 0 -8 5 -11 10 -3 6 -1 10 4 10 6 0 11
-4 11 -10z m-717 -294 c9 1 15 -1 12 -6 -8 -13 -38 -5 -43 11 -2 9 -1 10 5 3
4 -6 16 -10 26 -8z"/>
<path d="M1056 3027 c3 -10 9 -15 12 -12 3 3 0 11 -7 18 -10 9 -11 8 -5 -6z"/>
<path d="M2146 2978 c3 -5 10 -6 15 -3 13 9 11 12 -6 12 -8 0 -12 -4 -9 -9z"/>
<path d="M866 2948 c3 -5 10 -6 15 -3 13 9 11 12 -6 12 -8 0 -12 -4 -9 -9z"/>
<path d="M1 1313 c-1 -17 16 -25 25 -12 4 7 3 9 -4 5 -5 -3 -13 0 -15 6 -4 9
-6 10 -6 1z"/>
<path d="M3055 1160 c3 -5 8 -10 11 -10 2 0 4 5 4 10 0 6 -5 10 -11 10 -5 0
-7 -4 -4 -10z"/>
<path d="M140 880 c0 -5 5 -10 11 -10 5 0 7 5 4 10 -3 6 -8 10 -11 10 -2 0 -4
-4 -4 -10z"/>
</g>
</svg>
